<ttFont>
    <TTGlyph name=".notdef" xMin="0" yMin="0" xMax="500" yMax="700">
      <contour>
        <pt x="0" y="700" on="1"/>
        <pt x="500" y="700" on="1"/>
        <pt x="500" y="0" on="1"/>
        <pt x="0" y="0" on="1"/>
      </contour>
      <contour>
        <pt x="420" y="650" on="1"/>
        <pt x="80" y="650" on="1"/>
        <pt x="250" y="395" on="1"/>
      </contour>
      <contour>
        <pt x="450" y="95" on="1"/>
        <pt x="450" y="605" on="1"/>
        <pt x="280" y="350" on="1"/>
      </contour>
      <contour>
        <pt x="420" y="50" on="1"/>
        <pt x="250" y="305" on="1"/>
        <pt x="80" y="50" on="1"/>
      </contour>
      <contour>
        <pt x="50" y="95" on="1"/>
        <pt x="220" y="350" on="1"/>
        <pt x="50" y="605" on="1"/>
      </contour>
    </TTGlyph>
    <TTGlyph name="A" xMin="4" yMin="0" xMax="648" yMax="686">
      <contour>
        <pt x="484" y="149" on="1"/>
        <pt x="156" y="149" on="1"/>
        <pt x="99" y="0" on="1"/>
        <pt x="4" y="0" on="1"/>
        <pt x="272" y="686" on="1"/>
        <pt x="380" y="686" on="1"/>
        <pt x="648" y="0" on="1"/>
        <pt x="542" y="0" on="1"/>
      </contour>
      <contour>
        <pt x="318" y="568" on="1"/>
        <pt x="191" y="238" on="1"/>
        <pt x="450" y="238" on="1"/>
        <pt x="324" y="568" on="1"/>
      </contour>
    </TTGlyph>
    <TTGlyph name="AE" xMin="7" yMin="0" xMax="939" yMax="686">
      <contour>
        <pt x="507" y="149" on="1"/>
        <pt x="179" y="149" on="1"/>
        <pt x="101" y="0" on="1"/>
        <pt x="7" y="0" on="1"/>
        <pt x="371" y="686" on="1"/>
        <pt x="932" y="686" on="1"/>
        <pt x="919" y="597" on="1"/>
        <pt x="501" y="597" on="1"/>
        <pt x="551" y="395" on="1"/>
        <pt x="887" y="395" on="1"/>
        <pt x="887" y="306" on="1"/>
        <pt x="573" y="306" on="1"/>
        <pt x="627" y="89" on="1"/>
        <pt x="925" y="89" on="1"/>
        <pt x="939" y="0" on="1"/>
        <pt x="544" y="0" on="1"/>
      </contour>
      <contour>
        <pt x="400" y="568" on="1"/>
        <pt x="227" y="238" on="1"/>
        <pt x="486" y="238" on="1"/>
        <pt x="406" y="568" on="1"/>
      </contour>
    </TTGlyph>
    <TTGlyph name="Aacute" xMin="4" yMin="0" xMax="648" yMax="895">
      <contour>
        <pt x="484" y="149" on="1"/>
        <pt x="156" y="149" on="1"/>
        <pt x="99" y="0" on="1"/>
        <pt x="4" y="0" on="1"/>
        <pt x="272" y="686" on="1"/>
        <pt x="380" y="686" on="1"/>
        <pt x="648" y="0" on="1"/>
        <pt x="542" y="0" on="1"/>
      </contour>
      <contour>
        <pt x="318" y="568" on="1"/>
        <pt x="191" y="238" on="1"/>
        <pt x="450" y="238" on="1"/>
        <pt x="324" y="568" on="1"/>
      </contour>
      <contour>
        <pt x="292" y="750" on="1"/>
        <pt x="386" y="895" on="1"/>
        <pt x="476" y="895" on="1"/>
        <pt x="477" y="892" on="1"/>
        <pt x="361" y="750" on="1"/>
      </contour>
    </TTGlyph>
    <TTGlyph name="Acircumflex" xMin="4" yMin="0" xMax="648" yMax="895">
      <contour>
        <pt x="484" y="149" on="1"/>
        <pt x="156" y="149" on="1"/>
        <pt x="99" y="0" on="1"/>
        <pt x="4" y="0" on="1"/>
        <pt x="272" y="686" on="1"/>
        <pt x="380" y="686" on="1"/>
        <pt x="648" y="0" on="1"/>
        <pt x="542" y="0" on="1"/>
      </contour>
      <contour>
        <pt x="318" y="568" on="1"/>
        <pt x="191" y="238" on="1"/>
        <pt x="450" y="238" on="1"/>
        <pt x="324" y="568" on="1"/>
      </contour>
      <contour>
        <pt x="285" y="895" on="1"/>
        <pt x="363" y="895" on="1"/>
        <pt x="498" y="750" on="1"/>
        <pt x="418" y="750" on="1"/>
        <pt x="324" y="839" on="1"/>
        <pt x="229" y="750" on="1"/>
        <pt x="149" y="750" on="1"/>
      </contour>
    </TTGlyph>
    <TTGlyph name="Adieresis" xMin="4" yMin="0" xMax="648" yMax="847">
      <contour>
        <pt x="484" y="149" on="1"/>
        <pt x="156" y="149" on="1"/>
        <pt x="99" y="0" on="1"/>
        <pt x="4" y="0" on="1"/>
        <pt x="272" y="686" on="1"/>
        <pt x="380" y="686" on="1"/>
        <pt x="648" y="0" on="1"/>
        <pt x="542" y="0" on="1"/>
      </contour>
      <contour>
        <pt x="318" y="568" on="1"/>
        <pt x="191" y="238" on="1"/>
        <pt x="450" y="238" on="1"/>
        <pt x="324" y="568" on="1"/>
      </contour>
      <contour>
        <pt x="184" y="847" on="1"/>
        <pt x="274" y="847" on="1"/>
        <pt x="274" y="749" on="1"/>
        <pt x="184" y="749" on="1"/>
      </contour>
      <contour>
        <pt x="372" y="847" on="1"/>
        <pt x="463" y="847" on="1"/>
        <pt x="463" y="749" on="1"/>
        <pt x="372" y="749" on="1"/>
      </contour>
    </TTGlyph>
    <TTGlyph name="Agrave" xMin="4" yMin="0" xMax="648" yMax="895">
      <contour>
        <pt x="484" y="149" on="1"/>
        <pt x="156" y="149" on="1"/>
        <pt x="99" y="0" on="1"/>
        <pt x="4" y="0" on="1"/>
        <pt x="272" y="686" on="1"/>
        <pt x="380" y="686" on="1"/>
        <pt x="648" y="0" on="1"/>
        <pt x="542" y="0" on="1"/>
      </contour>
      <contour>
        <pt x="318" y="568" on="1"/>
        <pt x="191" y="238" on="1"/>
        <pt x="450" y="238" on="1"/>
        <pt x="324" y="568" on="1"/>
      </contour>
      <contour>
        <pt x="290" y="750" on="1"/>
        <pt x="175" y="892" on="1"/>
        <pt x="176" y="895" on="1"/>
        <pt x="265" y="895" on="1"/>
        <pt x="360" y="750" on="1"/>
      </contour>
    </TTGlyph>
    <TTGlyph name="Aring" xMin="4" yMin="0" xMax="648" yMax="926">
      <contour>
        <pt x="484" y="149" on="1"/>
        <pt x="156" y="149" on="1"/>
        <pt x="99" y="0" on="1"/>
        <pt x="4" y="0" on="1"/>
        <pt x="272" y="686" on="1"/>
        <pt x="380" y="686" on="1"/>
        <pt x="648" y="0" on="1"/>
        <pt x="542" y="0" on="1"/>
      </contour>
      <contour>
        <pt x="318" y="568" on="1"/>
        <pt x="191" y="238" on="1"/>
        <pt x="450" y="238" on="1"/>
        <pt x="324" y="568" on="1"/>
      </contour>
      <contour>
        <pt x="427" y="825" on="1"/>
        <pt x="427" y="784" on="0"/>
        <pt x="368" y="725" on="0"/>
        <pt x="326" y="725" on="1"/>
        <pt x="285" y="725" on="0"/>
        <pt x="255" y="754" on="1"/>
        <pt x="225" y="782" on="0"/>
        <pt x="225" y="825" on="1"/>
        <pt x="225" y="867" on="0"/>
        <pt x="284" y="926" on="0"/>
        <pt x="326" y="926" on="1"/>
        <pt x="366" y="926" on="0"/>
        <pt x="397" y="896" on="1"/>
        <pt x="427" y="868" on="0"/>
      </contour>
      <contour>
        <pt x="349" y="772" on="0"/>
        <pt x="382" y="803" on="0"/>
        <pt x="382" y="826" on="1"/>
        <pt x="382" y="848" on="0"/>
        <pt x="349" y="879" on="0"/>
        <pt x="326" y="879" on="1"/>
        <pt x="303" y="879" on="0"/>
        <pt x="270" y="848" on="0"/>
        <pt x="270" y="825" on="1"/>
        <pt x="270" y="802" on="0"/>
        <pt x="303" y="772" on="0"/>
        <pt x="326" y="772" on="1"/>
      </contour>
    </TTGlyph>
    <TTGlyph name="Atilde" xMin="4" yMin="0" xMax="648" yMax="854">
      <contour>
        <pt x="484" y="149" on="1"/>
        <pt x="156" y="149" on="1"/>
        <pt x="99" y="0" on="1"/>
        <pt x="4" y="0" on="1"/>
        <pt x="272" y="686" on="1"/>
        <pt x="380" y="686" on="1"/>
        <pt x="648" y="0" on="1"/>
        <pt x="542" y="0" on="1"/>
      </contour>
      <contour>
        <pt x="318" y="568" on="1"/>
        <pt x="191" y="238" on="1"/>
        <pt x="450" y="238" on="1"/>
        <pt x="324" y="568" on="1"/>
      </contour>
      <contour>
        <pt x="517" y="854" on="1"/>
        <pt x="517" y="813" on="0"/>
        <pt x="490" y="784" on="1"/>
        <pt x="460" y="750" on="0"/>
        <pt x="405" y="750" on="1"/>
        <pt x="375" y="750" on="0"/>
        <pt x="296" y="773" on="0"/>
        <pt x="256" y="784" on="0"/>
        <pt x="236" y="784" on="1"/>
        <pt x="191" y="784" on="0"/>
        <pt x="181" y="750" on="1"/>
        <pt x="131" y="750" on="1"/>
        <pt x="131" y="815" on="0"/>
        <pt x="194" y="844" on="1"/>
        <pt x="215" y="854" on="0"/>
        <pt x="242" y="854" on="1"/>
        <pt x="268" y="854" on="0"/>
        <pt x="311" y="843" on="0"/>
        <pt x="332" y="836" on="1"/>
        <pt x="387" y="819" on="0"/>
        <pt x="412" y="819" on="1"/>
        <pt x="456" y="819" on="0"/>
        <pt x="467" y="854" on="1"/>
      </contour>
    </TTGlyph>
    <TTGlyph name="B" xMin="92" yMin="0" xMax="592" yMax="686">
      <contour>
        <pt x="92" y="686" on="1"/>
        <pt x="396" y="686" on="1"/>
        <pt x="471" y="686" on="0"/>
        <pt x="524" y="637" on="1"/>
        <pt x="576" y="588" on="0"/>
        <pt x="576" y="518" on="1"/>
        <pt x="576" y="449" on="0"/>
        <pt x="537" y="405" on="1"/>
        <pt x="508" y="373" on="0"/>
        <pt x="456" y="358" on="1"/>
        <pt x="456" y="353" on="1"/>
        <pt x="541" y="339" on="0"/>
        <pt x="578" y="260" on="1"/>
        <pt x="592" y="229" on="0"/>
        <pt x="592" y="187" on="1"/>
        <pt x="592" y="145" on="0"/>
        <pt x="562" y="78" on="0"/>
        <pt x="536" y="54" on="1"/>
        <pt x="481" y="0" on="0"/>
        <pt x="402" y="0" on="1"/>
        <pt x="92" y="0" on="1"/>
      </contour>
      <contour>
        <pt x="376" y="394" on="1"/>
        <pt x="417" y="394" on="0"/>
        <pt x="448" y="424" on="1"/>
        <pt x="478" y="452" on="0"/>
        <pt x="478" y="495" on="1"/>
        <pt x="478" y="537" on="0"/>
        <pt x="418" y="597" on="0"/>
        <pt x="376" y="597" on="1"/>
        <pt x="190" y="597" on="1"/>
        <pt x="190" y="394" on="1"/>
      </contour>
      <contour>
        <pt x="386" y="89" on="1"/>
        <pt x="431" y="89" on="0"/>
        <pt x="494" y="152" on="0"/>
        <pt x="494" y="197" on="1"/>
        <pt x="494" y="242" on="0"/>
        <pt x="431" y="305" on="0"/>
        <pt x="386" y="305" on="1"/>
        <pt x="190" y="305" on="1"/>
        <pt x="190" y="89" on="1"/>
      </contour>
    </TTGlyph>
    <TTGlyph name="C" xMin="62" yMin="-10" xMax="609" yMax="696">
      <contour>
        <pt x="609" y="261" on="1"/>
        <pt x="609" y="128" on="0"/>
        <pt x="530" y="56" on="1"/>
        <pt x="459" y="-10" on="0"/>
        <pt x="344" y="-10" on="1"/>
        <pt x="216" y="-10" on="0"/>
        <pt x="142" y="66" on="1"/>
        <pt x="62" y="147" on="0"/>
        <pt x="62" y="298" on="1"/>
        <pt x="62" y="388" on="1"/>
        <pt x="62" y="538" on="0"/>
        <pt x="142" y="620" on="1"/>
        <pt x="217" y="696" on="0"/>
        <pt x="344" y="696" on="1"/>
        <pt x="461" y="696" on="0"/>
        <pt x="532" y="628" on="1"/>
        <pt x="609" y="556" on="0"/>
        <pt x="609" y="423" on="1"/>
        <pt x="511" y="423" on="1"/>
        <pt x="511" y="515" on="0"/>
        <pt x="464" y="564" on="1"/>
        <pt x="421" y="607" on="0"/>
        <pt x="344" y="607" on="1"/>
        <pt x="212" y="607" on="0"/>
        <pt x="174" y="488" on="1"/>
        <pt x="160" y="446" on="0"/>
        <pt x="160" y="388" on="1"/>
        <pt x="160" y="298" on="1"/>
        <pt x="160" y="132" on="0"/>
        <pt x="269" y="92" on="1"/>
        <pt x="303" y="79" on="0"/>
        <pt x="342" y="79" on="1"/>
        <pt x="381" y="79" on="0"/>
        <pt x="444" y="100" on="0"/>
        <pt x="466" y="122" on="1"/>
        <pt x="515" y="171" on="0"/>
        <pt x="515" y="261" on="1"/>
      </contour>
    </TTGlyph>
    <TTGlyph name="Ccedilla" xMin="62" yMin="-197" xMax="609" yMax="696">
      <contour>
        <pt x="609" y="261" on="1"/>
        <pt x="609" y="128" on="0"/>
        <pt x="530" y="56" on="1"/>
        <pt x="459" y="-10" on="0"/>
        <pt x="344" y="-10" on="1"/>
        <pt x="216" y="-10" on="0"/>
        <pt x="142" y="66" on="1"/>
        <pt x="62" y="147" on="0"/>
        <pt x="62" y="298" on="1"/>
        <pt x="62" y="388" on="1"/>
        <pt x="62" y="538" on="0"/>
        <pt x="142" y="620" on="1"/>
        <pt x="217" y="696" on="0"/>
        <pt x="344" y="696" on="1"/>
        <pt x="461" y="696" on="0"/>
        <pt x="532" y="628" on="1"/>
        <pt x="609" y="556" on="0"/>
        <pt x="609" y="423" on="1"/>
        <pt x="511" y="423" on="1"/>
        <pt x="511" y="515" on="0"/>
        <pt x="464" y="564" on="1"/>
        <pt x="421" y="607" on="0"/>
        <pt x="344" y="607" on="1"/>
        <pt x="212" y="607" on="0"/>
        <pt x="174" y="488" on="1"/>
        <pt x="160" y="446" on="0"/>
        <pt x="160" y="388" on="1"/>
        <pt x="160" y="298" on="1"/>
        <pt x="160" y="132" on="0"/>
        <pt x="269" y="92" on="1"/>
        <pt x="303" y="79" on="0"/>
        <pt x="342" y="79" on="1"/>
        <pt x="381" y="79" on="0"/>
        <pt x="444" y="100" on="0"/>
        <pt x="466" y="122" on="1"/>
        <pt x="515" y="171" on="0"/>
        <pt x="515" y="261" on="1"/>
      </contour>
      <contour>
        <pt x="338" y="-17" on="1"/>
        <pt x="449" y="-17" on="0"/>
        <pt x="449" y="-106" on="1"/>
        <pt x="449" y="-155" on="0"/>
        <pt x="408" y="-179" on="1"/>
        <pt x="377" y="-197" on="0"/>
        <pt x="344" y="-197" on="1"/>
        <pt x="279" y="-197" on="0"/>
        <pt x="239" y="-175" on="1"/>
        <pt x="248" y="-126" on="1"/>
        <pt x="288" y="-146" on="0"/>
        <pt x="320" y="-146" on="1"/>
        <pt x="387" y="-146" on="0"/>
        <pt x="387" y="-101" on="1"/>
        <pt x="387" y="-81" on="0"/>
        <pt x="356" y="-60" on="0"/>
        <pt x="335" y="-60" on="1"/>
        <pt x="314" y="-60" on="1"/>
        <pt x="314" y="-17" on="1"/>
      </contour>
    </TTGlyph>
    <TTGlyph name="D" xMin="92" yMin="0" xMax="614" yMax="686">
      <contour>
        <pt x="330" y="89" on="1"/>
        <pt x="462" y="89" on="0"/>
        <pt x="502" y="208" on="1"/>
        <pt x="516" y="249" on="0"/>
        <pt x="516" y="308" on="1"/>
        <pt x="516" y="378" on="1"/>
        <pt x="516" y="544" on="0"/>
        <pt x="404" y="584" on="1"/>
        <pt x="370" y="597" on="0"/>
        <pt x="330" y="597" on="1"/>
        <pt x="190" y="597" on="1"/>
        <pt x="190" y="89" on="1"/>
      </contour>
      <contour>
        <pt x="92" y="0" on="1"/>
        <pt x="92" y="686" on="1"/>
        <pt x="330" y="686" on="1"/>
        <pt x="454" y="686" on="0"/>
        <pt x="530" y="610" on="1"/>
        <pt x="614" y="528" on="0"/>
        <pt x="614" y="378" on="1"/>
        <pt x="614" y="308" on="1"/>
        <pt x="614" y="158" on="0"/>
        <pt x="530" y="76" on="1"/>
        <pt x="454" y="0" on="0"/>
        <pt x="330" y="0" on="1"/>
      </contour>
    </TTGlyph>
    <TTGlyph name="Delta" xMin="25" yMin="0" xMax="597" yMax="686">
      <contour>
        <pt x="25" y="65" on="1"/>
        <pt x="259" y="686" on="1"/>
        <pt x="362" y="686" on="1"/>
        <pt x="597" y="65" on="1"/>
        <pt x="597" y="0" on="1"/>
        <pt x="25" y="0" on="1"/>
      </contour>
      <contour>
        <pt x="113" y="75" on="1"/>
        <pt x="509" y="75" on="1"/>
        <pt x="311" y="597" on="1"/>
      </contour>
    </TTGlyph>
    <TTGlyph name="E" xMin="92" yMin="0" xMax="549" yMax="686">
      <contour>
        <pt x="92" y="0" on="1"/>
        <pt x="92" y="686" on="1"/>
        <pt x="542" y="686" on="1"/>
        <pt x="529" y="597" on="1"/>
        <pt x="190" y="597" on="1"/>
        <pt x="190" y="395" on="1"/>
        <pt x="497" y="395" on="1"/>
        <pt x="497" y="306" on="1"/>
        <pt x="190" y="306" on="1"/>
        <pt x="190" y="89" on="1"/>
        <pt x="535" y="89" on="1"/>
        <pt x="549" y="0" on="1"/>
      </contour>
    </TTGlyph>
    <TTGlyph name="Eacute" xMin="92" yMin="0" xMax="549" yMax="895">
      <contour>
        <pt x="92" y="0" on="1"/>
        <pt x="92" y="686" on="1"/>
        <pt x="542" y="686" on="1"/>
        <pt x="529" y="597" on="1"/>
        <pt x="190" y="597" on="1"/>
        <pt x="190" y="395" on="1"/>
        <pt x="497" y="395" on="1"/>
        <pt x="497" y="306" on="1"/>
        <pt x="190" y="306" on="1"/>
        <pt x="190" y="89" on="1"/>
        <pt x="535" y="89" on="1"/>
        <pt x="549" y="0" on="1"/>
      </contour>
      <contour>
        <pt x="284" y="750" on="1"/>
        <pt x="378" y="895" on="1"/>
        <pt x="468" y="895" on="1"/>
        <pt x="469" y="892" on="1"/>
        <pt x="353" y="750" on="1"/>
      </contour>
    </TTGlyph>
    <TTGlyph name="Ecircumflex" xMin="92" yMin="0" xMax="549" yMax="895">
      <contour>
        <pt x="92" y="0" on="1"/>
        <pt x="92" y="686" on="1"/>
        <pt x="542" y="686" on="1"/>
        <pt x="529" y="597" on="1"/>
        <pt x="190" y="597" on="1"/>
        <pt x="190" y="395" on="1"/>
        <pt x="497" y="395" on="1"/>
        <pt x="497" y="306" on="1"/>
        <pt x="190" y="306" on="1"/>
        <pt x="190" y="89" on="1"/>
        <pt x="535" y="89" on="1"/>
        <pt x="549" y="0" on="1"/>
      </contour>
      <contour>
        <pt x="276" y="895" on="1"/>
        <pt x="354" y="895" on="1"/>
        <pt x="489" y="750" on="1"/>
        <pt x="409" y="750" on="1"/>
        <pt x="315" y="839" on="1"/>
        <pt x="220" y="750" on="1"/>
        <pt x="140" y="750" on="1"/>
      </contour>
    </TTGlyph>
    <TTGlyph name="Edieresis" xMin="92" yMin="0" xMax="549" yMax="848">
      <contour>
        <pt x="92" y="0" on="1"/>
        <pt x="92" y="686" on="1"/>
        <pt x="542" y="686" on="1"/>
        <pt x="529" y="597" on="1"/>
        <pt x="190" y="597" on="1"/>
        <pt x="190" y="395" on="1"/>
        <pt x="497" y="395" on="1"/>
        <pt x="497" y="306" on="1"/>
        <pt x="190" y="306" on="1"/>
        <pt x="190" y="89" on="1"/>
        <pt x="535" y="89" on="1"/>
        <pt x="549" y="0" on="1"/>
      </contour>
      <contour>
        <pt x="178" y="848" on="1"/>
        <pt x="268" y="848" on="1"/>
        <pt x="268" y="750" on="1"/>
        <pt x="178" y="750" on="1"/>
      </contour>
      <contour>
        <pt x="366" y="848" on="1"/>
        <pt x="457" y="848" on="1"/>
        <pt x="457" y="750" on="1"/>
        <pt x="366" y="750" on="1"/>
      </contour>
    </TTGlyph>
    <TTGlyph name="Egrave" xMin="92" yMin="0" xMax="549" yMax="895">
      <contour>
        <pt x="92" y="0" on="1"/>
        <pt x="92" y="686" on="1"/>
        <pt x="542" y="686" on="1"/>
        <pt x="529" y="597" on="1"/>
        <pt x="190" y="597" on="1"/>
        <pt x="190" y="395" on="1"/>
        <pt x="497" y="395" on="1"/>
        <pt x="497" y="306" on="1"/>
        <pt x="190" y="306" on="1"/>
        <pt x="190" y="89" on="1"/>
        <pt x="535" y="89" on="1"/>
        <pt x="549" y="0" on="1"/>
      </contour>
      <contour>
        <pt x="295" y="750" on="1"/>
        <pt x="180" y="892" on="1"/>
        <pt x="181" y="895" on="1"/>
        <pt x="270" y="895" on="1"/>
        <pt x="365" y="750" on="1"/>
      </contour>
    </TTGlyph>
    <TTGlyph name="Eth" xMin="5" yMin="0" xMax="620" yMax="686">
      <contour>
        <pt x="5" y="375" on="1"/>
        <pt x="98" y="375" on="1"/>
        <pt x="98" y="686" on="1"/>
        <pt x="336" y="686" on="1"/>
        <pt x="460" y="686" on="0"/>
        <pt x="536" y="610" on="1"/>
        <pt x="620" y="528" on="0"/>
        <pt x="620" y="378" on="1"/>
        <pt x="620" y="308" on="1"/>
        <pt x="620" y="158" on="0"/>
        <pt x="536" y="76" on="1"/>
        <pt x="460" y="0" on="0"/>
        <pt x="336" y="0" on="1"/>
        <pt x="98" y="0" on="1"/>
        <pt x="98" y="310" on="1"/>
        <pt x="5" y="310" on="1"/>
      </contour>
      <contour>
        <pt x="336" y="89" on="1"/>
        <pt x="468" y="89" on="0"/>
        <pt x="508" y="208" on="1"/>
        <pt x="522" y="249" on="0"/>
        <pt x="522" y="308" on="1"/>
        <pt x="522" y="378" on="1"/>
        <pt x="522" y="544" on="0"/>
        <pt x="410" y="584" on="1"/>
        <pt x="376" y="597" on="0"/>
        <pt x="336" y="597" on="1"/>
        <pt x="196" y="597" on="1"/>
        <pt x="196" y="375" on="1"/>
        <pt x="341" y="375" on="1"/>
        <pt x="341" y="310" on="1"/>
        <pt x="196" y="310" on="1"/>
        <pt x="196" y="89" on="1"/>
      </contour>
    </TTGlyph>
    <TTGlyph name="Euro" xMin="30" yMin="-8" xMax="525" yMax="693">
      <contour>
        <pt x="525" y="2" on="1"/>
        <pt x="481" y="-8" on="0"/>
        <pt x="430" y="-8" on="1"/>
        <pt x="378" y="-8" on="0"/>
        <pt x="280" y="25" on="0"/>
        <pt x="240" y="56" on="1"/>
        <pt x="155" y="125" on="0"/>
        <pt x="130" y="238" on="1"/>
        <pt x="30" y="238" on="1"/>
        <pt x="30" y="303" on="1"/>
        <pt x="120" y="303" on="1"/>
        <pt x="119" y="312" on="0"/>
        <pt x="119" y="322" on="1"/>
        <pt x="119" y="360" on="1"/>
        <pt x="119" y="368" on="0"/>
        <pt x="120" y="377" on="1"/>
        <pt x="30" y="377" on="1"/>
        <pt x="30" y="441" on="1"/>
        <pt x="129" y="441" on="1"/>
        <pt x="154" y="558" on="0"/>
        <pt x="240" y="628" on="1"/>
        <pt x="322" y="693" on="0"/>
        <pt x="437" y="693" on="1"/>
        <pt x="472" y="693" on="0"/>
        <pt x="525" y="685" on="1"/>
        <pt x="525" y="594" on="1"/>
        <pt x="491" y="604" on="0"/>
        <pt x="446" y="604" on="1"/>
        <pt x="365" y="604" on="0"/>
        <pt x="250" y="515" on="0"/>
        <pt x="228" y="441" on="1"/>
        <pt x="426" y="441" on="1"/>
        <pt x="426" y="377" on="1"/>
        <pt x="216" y="377" on="1"/>
        <pt x="214" y="369" on="0"/>
        <pt x="214" y="360" on="1"/>
        <pt x="214" y="322" on="1"/>
        <pt x="214" y="312" on="0"/>
        <pt x="216" y="303" on="1"/>
        <pt x="426" y="303" on="1"/>
        <pt x="426" y="238" on="1"/>
        <pt x="230" y="238" on="1"/>
        <pt x="254" y="164" on="0"/>
        <pt x="372" y="80" on="0"/>
        <pt x="453" y="80" on="1"/>
        <pt x="481" y="80" on="0"/>
        <pt x="525" y="93" on="1"/>
      </contour>
    </TTGlyph>
    <TTGlyph name="F" xMin="92" yMin="0" xMax="524" yMax="686">
      <contour>
        <pt x="511" y="597" on="1"/>
        <pt x="190" y="597" on="1"/>
        <pt x="190" y="388" on="1"/>
        <pt x="470" y="388" on="1"/>
        <pt x="470" y="299" on="1"/>
        <pt x="190" y="299" on="1"/>
        <pt x="190" y="0" on="1"/>
        <pt x="92" y="0" on="1"/>
        <pt x="92" y="686" on="1"/>
        <pt x="524" y="686" on="1"/>
      </contour>
    </TTGlyph>
    <TTGlyph name="G" xMin="62" yMin="-10" xMax="613" yMax="696">
      <contour>
        <pt x="607" y="128" on="1"/>
        <pt x="607" y="45" on="0"/>
        <pt x="613" y="0" on="1"/>
        <pt x="555" y="0" on="1"/>
        <pt x="543" y="37" on="0"/>
        <pt x="535" y="82" on="1"/>
        <pt x="471" y="-10" on="0"/>
        <pt x="344" y="-10" on="1"/>
        <pt x="216" y="-10" on="0"/>
        <pt x="142" y="66" on="1"/>
        <pt x="62" y="147" on="0"/>
        <pt x="62" y="298" on="1"/>
        <pt x="62" y="388" on="1"/>
        <pt x="62" y="538" on="0"/>
        <pt x="142" y="620" on="1"/>
        <pt x="217" y="696" on="0"/>
        <pt x="344" y="696" on="1"/>
        <pt x="458" y="696" on="0"/>
        <pt x="529" y="634" on="1"/>
        <pt x="607" y="565" on="0"/>
        <pt x="607" y="445" on="1"/>
        <pt x="509" y="445" on="1"/>
        <pt x="509" y="527" on="0"/>
        <pt x="461" y="570" on="1"/>
        <pt x="419" y="607" on="0"/>
        <pt x="344" y="607" on="1"/>
        <pt x="212" y="607" on="0"/>
        <pt x="174" y="488" on="1"/>
        <pt x="160" y="446" on="0"/>
        <pt x="160" y="388" on="1"/>
        <pt x="160" y="298" on="1"/>
        <pt x="160" y="132" on="0"/>
        <pt x="269" y="92" on="1"/>
        <pt x="303" y="79" on="0"/>
        <pt x="344" y="79" on="1"/>
        <pt x="430" y="79" on="0"/>
        <pt x="511" y="165" on="0"/>
        <pt x="511" y="261" on="1"/>
        <pt x="511" y="274" on="1"/>
        <pt x="317" y="274" on="1"/>
        <pt x="317" y="362" on="1"/>
        <pt x="607" y="362" on="1"/>
      </contour>
    </TTGlyph>
    <TTGlyph name="H" xMin="92" yMin="0" xMax="601" yMax="686">
      <contour>
        <pt x="503" y="0" on="1"/>
        <pt x="503" y="306" on="1"/>
        <pt x="190" y="306" on="1"/>
        <pt x="190" y="0" on="1"/>
        <pt x="92" y="0" on="1"/>
        <pt x="92" y="686" on="1"/>
        <pt x="190" y="686" on="1"/>
        <pt x="190" y="395" on="1"/>
        <pt x="503" y="395" on="1"/>
        <pt x="503" y="686" on="1"/>
        <pt x="601" y="686" on="1"/>
        <pt x="601" y="0" on="1"/>
      </contour>
    </TTGlyph>
    <TTGlyph name="I" xMin="53" yMin="0" xMax="311" yMax="686">
      <contour>
        <pt x="53" y="686" on="1"/>
        <pt x="311" y="686" on="1"/>
        <pt x="311" y="597" on="1"/>
        <pt x="231" y="597" on="1"/>
        <pt x="231" y="89" on="1"/>
        <pt x="311" y="89" on="1"/>
        <pt x="311" y="0" on="1"/>
        <pt x="53" y="0" on="1"/>
        <pt x="53" y="89" on="1"/>
        <pt x="133" y="89" on="1"/>
        <pt x="133" y="597" on="1"/>
        <pt x="53" y="597" on="1"/>
      </contour>
    </TTGlyph>
    <TTGlyph name="Iacute" xMin="53" yMin="0" xMax="329" yMax="895">
      <contour>
        <pt x="53" y="686" on="1"/>
        <pt x="311" y="686" on="1"/>
        <pt x="311" y="597" on="1"/>
        <pt x="231" y="597" on="1"/>
        <pt x="231" y="89" on="1"/>
        <pt x="311" y="89" on="1"/>
        <pt x="311" y="0" on="1"/>
        <pt x="53" y="0" on="1"/>
        <pt x="53" y="89" on="1"/>
        <pt x="133" y="89" on="1"/>
        <pt x="133" y="597" on="1"/>
        <pt x="53" y="597" on="1"/>
      </contour>
      <contour>
        <pt x="144" y="750" on="1"/>
        <pt x="238" y="895" on="1"/>
        <pt x="328" y="895" on="1"/>
        <pt x="329" y="892" on="1"/>
        <pt x="213" y="750" on="1"/>
      </contour>
    </TTGlyph>
    <TTGlyph name="Icircumflex" xMin="8" yMin="0" xMax="357" yMax="895">
      <contour>
        <pt x="53" y="686" on="1"/>
        <pt x="311" y="686" on="1"/>
        <pt x="311" y="597" on="1"/>
        <pt x="231" y="597" on="1"/>
        <pt x="231" y="89" on="1"/>
        <pt x="311" y="89" on="1"/>
        <pt x="311" y="0" on="1"/>
        <pt x="53" y="0" on="1"/>
        <pt x="53" y="89" on="1"/>
        <pt x="133" y="89" on="1"/>
        <pt x="133" y="597" on="1"/>
        <pt x="53" y="597" on="1"/>
      </contour>
      <contour>
        <pt x="144" y="895" on="1"/>
        <pt x="222" y="895" on="1"/>
        <pt x="357" y="750" on="1"/>
        <pt x="277" y="750" on="1"/>
        <pt x="183" y="839" on="1"/>
        <pt x="88" y="750" on="1"/>
        <pt x="8" y="750" on="1"/>
      </contour>
    </TTGlyph>
    <TTGlyph name="Idieresis" xMin="43" yMin="0" xMax="322" yMax="848">
      <contour>
        <pt x="53" y="686" on="1"/>
        <pt x="311" y="686" on="1"/>
        <pt x="311" y="597" on="1"/>
        <pt x="231" y="597" on="1"/>
        <pt x="231" y="89" on="1"/>
        <pt x="311" y="89" on="1"/>
        <pt x="311" y="0" on="1"/>
        <pt x="53" y="0" on="1"/>
        <pt x="53" y="89" on="1"/>
        <pt x="133" y="89" on="1"/>
        <pt x="133" y="597" on="1"/>
        <pt x="53" y="597" on="1"/>
      </contour>
      <contour>
        <pt x="43" y="848" on="1"/>
        <pt x="133" y="848" on="1"/>
        <pt x="133" y="750" on="1"/>
        <pt x="43" y="750" on="1"/>
      </contour>
      <contour>
        <pt x="231" y="848" on="1"/>
        <pt x="322" y="848" on="1"/>
        <pt x="322" y="750" on="1"/>
        <pt x="231" y="750" on="1"/>
      </contour>
    </TTGlyph>
    <TTGlyph name="Igrave" xMin="32" yMin="0" xMax="311" yMax="895">
      <contour>
        <pt x="53" y="686" on="1"/>
        <pt x="311" y="686" on="1"/>
        <pt x="311" y="597" on="1"/>
        <pt x="231" y="597" on="1"/>
        <pt x="231" y="89" on="1"/>
        <pt x="311" y="89" on="1"/>
        <pt x="311" y="0" on="1"/>
        <pt x="53" y="0" on="1"/>
        <pt x="53" y="89" on="1"/>
        <pt x="133" y="89" on="1"/>
        <pt x="133" y="597" on="1"/>
        <pt x="53" y="597" on="1"/>
      </contour>
      <contour>
        <pt x="147" y="750" on="1"/>
        <pt x="32" y="892" on="1"/>
        <pt x="33" y="895" on="1"/>
        <pt x="122" y="895" on="1"/>
        <pt x="217" y="750" on="1"/>
      </contour>
    </TTGlyph>
    <TTGlyph name="J" xMin="29" yMin="-10" xMax="439" yMax="686">
      <contour>
        <pt x="29" y="208" on="1"/>
        <pt x="127" y="208" on="1"/>
        <pt x="127" y="181" on="1"/>
        <pt x="127" y="136" on="0"/>
        <pt x="188" y="79" on="0"/>
        <pt x="235" y="79" on="1"/>
        <pt x="281" y="79" on="0"/>
        <pt x="341" y="134" on="0"/>
        <pt x="341" y="181" on="1"/>
        <pt x="341" y="686" on="1"/>
        <pt x="439" y="686" on="1"/>
        <pt x="439" y="187" on="1"/>
        <pt x="439" y="92" on="0"/>
        <pt x="380" y="40" on="1"/>
        <pt x="325" y="-10" on="0"/>
        <pt x="236" y="-10" on="1"/>
        <pt x="227" y="-10" on="1"/>
        <pt x="89" y="-10" on="0"/>
        <pt x="44" y="101" on="1"/>
        <pt x="29" y="138" on="0"/>
        <pt x="29" y="187" on="1"/>
      </contour>
    </TTGlyph>
    <TTGlyph name="K" xMin="92" yMin="0" xMax="609" yMax="686">
      <contour>
        <pt x="92" y="686" on="1"/>
        <pt x="190" y="686" on="1"/>
        <pt x="190" y="329" on="1"/>
        <pt x="488" y="686" on="1"/>
        <pt x="601" y="686" on="1"/>
        <pt x="349" y="383" on="1"/>
        <pt x="609" y="0" on="1"/>
        <pt x="495" y="0" on="1"/>
        <pt x="287" y="308" on="1"/>
        <pt x="190" y="206" on="1"/>
        <pt x="190" y="0" on="1"/>
        <pt x="92" y="0" on="1"/>
      </contour>
    </TTGlyph>
    <TTGlyph name="L" xMin="92" yMin="0" xMax="519" yMax="686">
      <contour>
        <pt x="92" y="0" on="1"/>
        <pt x="92" y="686" on="1"/>
        <pt x="190" y="686" on="1"/>
        <pt x="190" y="89" on="1"/>
        <pt x="505" y="89" on="1"/>
        <pt x="519" y="0" on="1"/>
      </contour>
    </TTGlyph>
    <TTGlyph name="Lslash" xMin="33" yMin="0" xMax="522" yMax="686">
      <contour>
        <pt x="33" y="364" on="1"/>
        <pt x="95" y="395" on="1"/>
        <pt x="95" y="686" on="1"/>
        <pt x="193" y="686" on="1"/>
        <pt x="193" y="445" on="1"/>
        <pt x="332" y="517" on="1"/>
        <pt x="332" y="446" on="1"/>
        <pt x="193" y="374" on="1"/>
        <pt x="193" y="89" on="1"/>
        <pt x="508" y="89" on="1"/>
        <pt x="522" y="0" on="1"/>
        <pt x="95" y="0" on="1"/>
        <pt x="95" y="324" on="1"/>
        <pt x="33" y="293" on="1"/>
      </contour>
    </TTGlyph>
    <TTGlyph name="M" xMin="92" yMin="0" xMax="846" yMax="686">
      <contour>
        <pt x="748" y="0" on="1"/>
        <pt x="748" y="571" on="1"/>
        <pt x="742" y="571" on="1"/>
        <pt x="505" y="0" on="1"/>
        <pt x="422" y="0" on="1"/>
        <pt x="186" y="571" on="1"/>
        <pt x="181" y="571" on="1"/>
        <pt x="181" y="0" on="1"/>
        <pt x="92" y="0" on="1"/>
        <pt x="92" y="686" on="1"/>
        <pt x="246" y="686" on="1"/>
        <pt x="467" y="146" on="1"/>
        <pt x="471" y="146" on="1"/>
        <pt x="693" y="686" on="1"/>
        <pt x="846" y="686" on="1"/>
        <pt x="846" y="0" on="1"/>
      </contour>
    </TTGlyph>
    <TTGlyph name="N" xMin="92" yMin="0" xMax="602" yMax="686">
      <contour>
        <pt x="519" y="0" on="1"/>
        <pt x="184" y="502" on="1"/>
        <pt x="181" y="501" on="1"/>
        <pt x="181" y="0" on="1"/>
        <pt x="92" y="0" on="1"/>
        <pt x="92" y="686" on="1"/>
        <pt x="178" y="686" on="1"/>
        <pt x="510" y="190" on="1"/>
        <pt x="513" y="191" on="1"/>
        <pt x="513" y="686" on="1"/>
        <pt x="602" y="686" on="1"/>
        <pt x="602" y="0" on="1"/>
      </contour>
    </TTGlyph>
    <TTGlyph name="Ntilde" xMin="92" yMin="0" xMax="602" yMax="854">
      <contour>
        <pt x="519" y="0" on="1"/>
        <pt x="184" y="502" on="1"/>
        <pt x="181" y="501" on="1"/>
        <pt x="181" y="0" on="1"/>
        <pt x="92" y="0" on="1"/>
        <pt x="92" y="686" on="1"/>
        <pt x="178" y="686" on="1"/>
        <pt x="510" y="190" on="1"/>
        <pt x="513" y="191" on="1"/>
        <pt x="513" y="686" on="1"/>
        <pt x="602" y="686" on="1"/>
        <pt x="602" y="0" on="1"/>
      </contour>
      <contour>
        <pt x="541" y="854" on="1"/>
        <pt x="541" y="813" on="0"/>
        <pt x="514" y="784" on="1"/>
        <pt x="484" y="750" on="0"/>
        <pt x="429" y="750" on="1"/>
        <pt x="399" y="750" on="0"/>
        <pt x="320" y="773" on="0"/>
        <pt x="280" y="784" on="0"/>
        <pt x="260" y="784" on="1"/>
        <pt x="215" y="784" on="0"/>
        <pt x="205" y="750" on="1"/>
        <pt x="155" y="750" on="1"/>
        <pt x="155" y="815" on="0"/>
        <pt x="218" y="844" on="1"/>
        <pt x="239" y="854" on="0"/>
        <pt x="266" y="854" on="1"/>
        <pt x="292" y="854" on="0"/>
        <pt x="335" y="843" on="0"/>
        <pt x="356" y="836" on="1"/>
        <pt x="411" y="819" on="0"/>
        <pt x="436" y="819" on="1"/>
        <pt x="480" y="819" on="0"/>
        <pt x="491" y="854" on="1"/>
      </contour>
    </TTGlyph>
    <TTGlyph name="O" xMin="61" yMin="-10" xMax="629" yMax="696">
      <contour>
        <pt x="531" y="388" on="1"/>
        <pt x="531" y="554" on="0"/>
        <pt x="420" y="594" on="1"/>
        <pt x="385" y="607" on="0"/>
        <pt x="345" y="607" on="1"/>
        <pt x="304" y="607" on="0"/>
        <pt x="236" y="582" on="0"/>
        <pt x="212" y="556" on="1"/>
        <pt x="159" y="500" on="0"/>
        <pt x="159" y="388" on="1"/>
        <pt x="159" y="298" on="1"/>
        <pt x="159" y="132" on="0"/>
        <pt x="270" y="92" on="1"/>
        <pt x="304" y="79" on="0"/>
        <pt x="345" y="79" on="1"/>
        <pt x="385" y="79" on="0"/>
        <pt x="454" y="104" on="0"/>
        <pt x="478" y="130" on="1"/>
        <pt x="531" y="186" on="0"/>
        <pt x="531" y="298" on="1"/>
      </contour>
      <contour>
        <pt x="629" y="298" on="1"/>
        <pt x="629" y="148" on="0"/>
        <pt x="546" y="66" on="1"/>
        <pt x="468" y="-10" on="0"/>
        <pt x="345" y="-10" on="1"/>
        <pt x="222" y="-10" on="0"/>
        <pt x="144" y="66" on="1"/>
        <pt x="61" y="148" on="0"/>
        <pt x="61" y="298" on="1"/>
        <pt x="61" y="388" on="1"/>
        <pt x="61" y="538" on="0"/>
        <pt x="144" y="620" on="1"/>
        <pt x="222" y="696" on="0"/>
        <pt x="345" y="696" on="1"/>
        <pt x="468" y="696" on="0"/>
        <pt x="546" y="620" on="1"/>
        <pt x="629" y="538" on="0"/>
        <pt x="629" y="388" on="1"/>
      </contour>
    </TTGlyph>
    <TTGlyph name="OE" xMin="61" yMin="-10" xMax="988" yMax="696">
      <contour>
        <pt x="531" y="58" on="1"/>
        <pt x="461" y="-10" on="0"/>
        <pt x="345" y="-10" on="1"/>
        <pt x="222" y="-10" on="0"/>
        <pt x="144" y="66" on="1"/>
        <pt x="61" y="148" on="0"/>
        <pt x="61" y="298" on="1"/>
        <pt x="61" y="388" on="1"/>
        <pt x="61" y="538" on="0"/>
        <pt x="144" y="620" on="1"/>
        <pt x="222" y="696" on="0"/>
        <pt x="340" y="696" on="1"/>
        <pt x="458" y="696" on="0"/>
        <pt x="531" y="628" on="1"/>
        <pt x="531" y="686" on="1"/>
        <pt x="981" y="686" on="1"/>
        <pt x="968" y="597" on="1"/>
        <pt x="629" y="597" on="1"/>
        <pt x="629" y="395" on="1"/>
        <pt x="936" y="395" on="1"/>
        <pt x="936" y="306" on="1"/>
        <pt x="629" y="306" on="1"/>
        <pt x="629" y="89" on="1"/>
        <pt x="974" y="89" on="1"/>
        <pt x="988" y="0" on="1"/>
        <pt x="531" y="0" on="1"/>
      </contour>
      <contour>
        <pt x="531" y="388" on="1"/>
        <pt x="531" y="554" on="0"/>
        <pt x="420" y="594" on="1"/>
        <pt x="385" y="607" on="0"/>
        <pt x="345" y="607" on="1"/>
        <pt x="304" y="607" on="0"/>
        <pt x="236" y="582" on="0"/>
        <pt x="212" y="556" on="1"/>
        <pt x="159" y="500" on="0"/>
        <pt x="159" y="388" on="1"/>
        <pt x="159" y="298" on="1"/>
        <pt x="159" y="132" on="0"/>
        <pt x="270" y="92" on="1"/>
        <pt x="304" y="79" on="0"/>
        <pt x="345" y="79" on="1"/>
        <pt x="385" y="79" on="0"/>
        <pt x="454" y="104" on="0"/>
        <pt x="478" y="130" on="1"/>
        <pt x="531" y="186" on="0"/>
        <pt x="531" y="298" on="1"/>
      </contour>
    </TTGlyph>
    <TTGlyph name="Oacute" xMin="61" yMin="-10" xMax="629" yMax="895">
      <contour>
        <pt x="531" y="388" on="1"/>
        <pt x="531" y="554" on="0"/>
        <pt x="420" y="594" on="1"/>
        <pt x="385" y="607" on="0"/>
        <pt x="345" y="607" on="1"/>
        <pt x="304" y="607" on="0"/>
        <pt x="236" y="582" on="0"/>
        <pt x="212" y="556" on="1"/>
        <pt x="159" y="500" on="0"/>
        <pt x="159" y="388" on="1"/>
        <pt x="159" y="298" on="1"/>
        <pt x="159" y="132" on="0"/>
        <pt x="270" y="92" on="1"/>
        <pt x="304" y="79" on="0"/>
        <pt x="345" y="79" on="1"/>
        <pt x="385" y="79" on="0"/>
        <pt x="454" y="104" on="0"/>
        <pt x="478" y="130" on="1"/>
        <pt x="531" y="186" on="0"/>
        <pt x="531" y="298" on="1"/>
      </contour>
      <contour>
        <pt x="629" y="298" on="1"/>
        <pt x="629" y="148" on="0"/>
        <pt x="546" y="66" on="1"/>
        <pt x="468" y="-10" on="0"/>
        <pt x="345" y="-10" on="1"/>
        <pt x="222" y="-10" on="0"/>
        <pt x="144" y="66" on="1"/>
        <pt x="61" y="148" on="0"/>
        <pt x="61" y="298" on="1"/>
        <pt x="61" y="388" on="1"/>
        <pt x="61" y="538" on="0"/>
        <pt x="144" y="620" on="1"/>
        <pt x="222" y="696" on="0"/>
        <pt x="345" y="696" on="1"/>
        <pt x="468" y="696" on="0"/>
        <pt x="546" y="620" on="1"/>
        <pt x="629" y="538" on="0"/>
        <pt x="629" y="388" on="1"/>
      </contour>
      <contour>
        <pt x="306" y="750" on="1"/>
        <pt x="400" y="895" on="1"/>
        <pt x="490" y="895" on="1"/>
        <pt x="491" y="892" on="1"/>
        <pt x="375" y="750" on="1"/>
      </contour>
    </TTGlyph>
    <TTGlyph name="Ocircumflex" xMin="61" yMin="-10" xMax="629" yMax="895">
      <contour>
        <pt x="531" y="388" on="1"/>
        <pt x="531" y="554" on="0"/>
        <pt x="420" y="594" on="1"/>
        <pt x="385" y="607" on="0"/>
        <pt x="345" y="607" on="1"/>
        <pt x="304" y="607" on="0"/>
        <pt x="236" y="582" on="0"/>
        <pt x="212" y="556" on="1"/>
        <pt x="159" y="500" on="0"/>
        <pt x="159" y="388" on="1"/>
        <pt x="159" y="298" on="1"/>
        <pt x="159" y="132" on="0"/>
        <pt x="270" y="92" on="1"/>
        <pt x="304" y="79" on="0"/>
        <pt x="345" y="79" on="1"/>
        <pt x="385" y="79" on="0"/>
        <pt x="454" y="104" on="0"/>
        <pt x="478" y="130" on="1"/>
        <pt x="531" y="186" on="0"/>
        <pt x="531" y="298" on="1"/>
      </contour>
      <contour>
        <pt x="629" y="298" on="1"/>
        <pt x="629" y="148" on="0"/>
        <pt x="546" y="66" on="1"/>
        <pt x="468" y="-10" on="0"/>
        <pt x="345" y="-10" on="1"/>
        <pt x="222" y="-10" on="0"/>
        <pt x="144" y="66" on="1"/>
        <pt x="61" y="148" on="0"/>
        <pt x="61" y="298" on="1"/>
        <pt x="61" y="388" on="1"/>
        <pt x="61" y="538" on="0"/>
        <pt x="144" y="620" on="1"/>
        <pt x="222" y="696" on="0"/>
        <pt x="345" y="696" on="1"/>
        <pt x="468" y="696" on="0"/>
        <pt x="546" y="620" on="1"/>
        <pt x="629" y="538" on="0"/>
        <pt x="629" y="388" on="1"/>
      </contour>
      <contour>
        <pt x="304" y="895" on="1"/>
        <pt x="382" y="895" on="1"/>
        <pt x="517" y="750" on="1"/>
        <pt x="437" y="750" on="1"/>
        <pt x="343" y="839" on="1"/>
        <pt x="248" y="750" on="1"/>
        <pt x="168" y="750" on="1"/>
      </contour>
    </TTGlyph>
    <TTGlyph name="Odieresis" xMin="61" yMin="-10" xMax="629" yMax="848">
      <contour>
        <pt x="531" y="388" on="1"/>
        <pt x="531" y="554" on="0"/>
        <pt x="420" y="594" on="1"/>
        <pt x="385" y="607" on="0"/>
        <pt x="345" y="607" on="1"/>
        <pt x="304" y="607" on="0"/>
        <pt x="236" y="582" on="0"/>
        <pt x="212" y="556" on="1"/>
        <pt x="159" y="500" on="0"/>
        <pt x="159" y="388" on="1"/>
        <pt x="159" y="298" on="1"/>
        <pt x="159" y="132" on="0"/>
        <pt x="270" y="92" on="1"/>
        <pt x="304" y="79" on="0"/>
        <pt x="345" y="79" on="1"/>
        <pt x="385" y="79" on="0"/>
        <pt x="454" y="104" on="0"/>
        <pt x="478" y="130" on="1"/>
        <pt x="531" y="186" on="0"/>
        <pt x="531" y="298" on="1"/>
      </contour>
      <contour>
        <pt x="629" y="298" on="1"/>
        <pt x="629" y="148" on="0"/>
        <pt x="546" y="66" on="1"/>
        <pt x="468" y="-10" on="0"/>
        <pt x="345" y="-10" on="1"/>
        <pt x="222" y="-10" on="0"/>
        <pt x="144" y="66" on="1"/>
        <pt x="61" y="148" on="0"/>
        <pt x="61" y="298" on="1"/>
        <pt x="61" y="388" on="1"/>
        <pt x="61" y="538" on="0"/>
        <pt x="144" y="620" on="1"/>
        <pt x="222" y="696" on="0"/>
        <pt x="345" y="696" on="1"/>
        <pt x="468" y="696" on="0"/>
        <pt x="546" y="620" on="1"/>
        <pt x="629" y="538" on="0"/>
        <pt x="629" y="388" on="1"/>
      </contour>
      <contour>
        <pt x="207" y="848" on="1"/>
        <pt x="297" y="848" on="1"/>
        <pt x="297" y="750" on="1"/>
        <pt x="207" y="750" on="1"/>
      </contour>
      <contour>
        <pt x="395" y="848" on="1"/>
        <pt x="486" y="848" on="1"/>
        <pt x="486" y="750" on="1"/>
        <pt x="395" y="750" on="1"/>
      </contour>
    </TTGlyph>
    <TTGlyph name="Ograve" xMin="61" yMin="-10" xMax="629" yMax="895">
      <contour>
        <pt x="531" y="388" on="1"/>
        <pt x="531" y="554" on="0"/>
        <pt x="420" y="594" on="1"/>
        <pt x="385" y="607" on="0"/>
        <pt x="345" y="607" on="1"/>
        <pt x="304" y="607" on="0"/>
        <pt x="236" y="582" on="0"/>
        <pt x="212" y="556" on="1"/>
        <pt x="159" y="500" on="0"/>
        <pt x="159" y="388" on="1"/>
        <pt x="159" y="298" on="1"/>
        <pt x="159" y="132" on="0"/>
        <pt x="270" y="92" on="1"/>
        <pt x="304" y="79" on="0"/>
        <pt x="345" y="79" on="1"/>
        <pt x="385" y="79" on="0"/>
        <pt x="454" y="104" on="0"/>
        <pt x="478" y="130" on="1"/>
        <pt x="531" y="186" on="0"/>
        <pt x="531" y="298" on="1"/>
      </contour>
      <contour>
        <pt x="629" y="298" on="1"/>
        <pt x="629" y="148" on="0"/>
        <pt x="546" y="66" on="1"/>
        <pt x="468" y="-10" on="0"/>
        <pt x="345" y="-10" on="1"/>
        <pt x="222" y="-10" on="0"/>
        <pt x="144" y="66" on="1"/>
        <pt x="61" y="148" on="0"/>
        <pt x="61" y="298" on="1"/>
        <pt x="61" y="388" on="1"/>
        <pt x="61" y="538" on="0"/>
        <pt x="144" y="620" on="1"/>
        <pt x="222" y="696" on="0"/>
        <pt x="345" y="696" on="1"/>
        <pt x="468" y="696" on="0"/>
        <pt x="546" y="620" on="1"/>
        <pt x="629" y="538" on="0"/>
        <pt x="629" y="388" on="1"/>
      </contour>
      <contour>
        <pt x="313" y="750" on="1"/>
        <pt x="198" y="892" on="1"/>
        <pt x="199" y="895" on="1"/>
        <pt x="288" y="895" on="1"/>
        <pt x="383" y="750" on="1"/>
      </contour>
    </TTGlyph>
    <TTGlyph name="Omega" xMin="45" yMin="0" xMax="655" yMax="695">
      <contour>
        <pt x="635" y="337" on="1"/>
        <pt x="635" y="168" on="0"/>
        <pt x="536" y="80" on="1"/>
        <pt x="578" y="84" on="0"/>
        <pt x="620" y="90" on="1"/>
        <pt x="655" y="90" on="1"/>
        <pt x="655" y="0" on="1"/>
        <pt x="391" y="0" on="1"/>
        <pt x="391" y="49" on="1"/>
        <pt x="461" y="62" on="0"/>
        <pt x="531" y="175" on="0"/>
        <pt x="531" y="297" on="1"/>
        <pt x="531" y="375" on="1"/>
        <pt x="531" y="562" on="0"/>
        <pt x="424" y="597" on="1"/>
        <pt x="391" y="608" on="0"/>
        <pt x="349" y="608" on="1"/>
        <pt x="307" y="608" on="0"/>
        <pt x="241" y="584" on="0"/>
        <pt x="218" y="556" on="1"/>
        <pt x="171" y="499" on="0"/>
        <pt x="171" y="375" on="1"/>
        <pt x="171" y="297" on="1"/>
        <pt x="171" y="123" on="0"/>
        <pt x="248" y="73" on="1"/>
        <pt x="274" y="56" on="0"/>
        <pt x="309" y="49" on="1"/>
        <pt x="309" y="0" on="1"/>
        <pt x="45" y="0" on="1"/>
        <pt x="45" y="90" on="1"/>
        <pt x="80" y="90" on="1"/>
        <pt x="100" y="87" on="0"/>
        <pt x="140" y="83" on="0"/>
        <pt x="165" y="80" on="1"/>
        <pt x="67" y="163" on="0"/>
        <pt x="67" y="345" on="1"/>
        <pt x="67" y="370" on="1"/>
        <pt x="67" y="536" on="0"/>
        <pt x="148" y="620" on="1"/>
        <pt x="220" y="695" on="0"/>
        <pt x="342" y="695" on="1"/>
        <pt x="359" y="695" on="1"/>
        <pt x="550" y="695" on="0"/>
        <pt x="613" y="520" on="1"/>
        <pt x="635" y="458" on="0"/>
        <pt x="635" y="370" on="1"/>
      </contour>
    </TTGlyph>
    <TTGlyph name="Oslash" xMin="61" yMin="-65" xMax="629" yMax="754">
      <contour>
        <pt x="345" y="696" on="1"/>
        <pt x="435" y="696" on="0"/>
        <pt x="501" y="655" on="1"/>
        <pt x="560" y="754" on="1"/>
        <pt x="624" y="754" on="1"/>
        <pt x="544" y="621" on="1"/>
        <pt x="629" y="540" on="0"/>
        <pt x="629" y="388" on="1"/>
        <pt x="629" y="298" on="1"/>
        <pt x="629" y="148" on="0"/>
        <pt x="546" y="66" on="1"/>
        <pt x="468" y="-10" on="0"/>
        <pt x="345" y="-10" on="1"/>
        <pt x="257" y="-10" on="0"/>
        <pt x="190" y="30" on="1"/>
        <pt x="134" y="-65" on="1"/>
        <pt x="70" y="-65" on="1"/>
        <pt x="147" y="63" on="1"/>
        <pt x="61" y="145" on="0"/>
        <pt x="61" y="298" on="1"/>
        <pt x="61" y="388" on="1"/>
        <pt x="61" y="538" on="0"/>
        <pt x="144" y="620" on="1"/>
        <pt x="222" y="696" on="0"/>
      </contour>
      <contour>
        <pt x="159" y="298" on="1"/>
        <pt x="159" y="200" on="0"/>
        <pt x="197" y="147" on="1"/>
        <pt x="454" y="577" on="1"/>
        <pt x="409" y="607" on="0"/>
        <pt x="357" y="607" on="1"/>
        <pt x="304" y="607" on="0"/>
        <pt x="236" y="582" on="0"/>
        <pt x="212" y="556" on="1"/>
        <pt x="159" y="500" on="0"/>
        <pt x="159" y="388" on="1"/>
      </contour>
      <contour>
        <pt x="237" y="108" on="1"/>
        <pt x="281" y="79" on="0"/>
        <pt x="333" y="79" on="1"/>
        <pt x="385" y="79" on="0"/>
        <pt x="454" y="104" on="0"/>
        <pt x="478" y="130" on="1"/>
        <pt x="531" y="186" on="0"/>
        <pt x="531" y="298" on="1"/>
        <pt x="531" y="388" on="1"/>
        <pt x="531" y="480" on="0"/>
        <pt x="494" y="537" on="1"/>
      </contour>
    </TTGlyph>
    <TTGlyph name="Otilde" xMin="61" yMin="-10" xMax="629" yMax="854">
      <contour>
        <pt x="531" y="388" on="1"/>
        <pt x="531" y="554" on="0"/>
        <pt x="420" y="594" on="1"/>
        <pt x="385" y="607" on="0"/>
        <pt x="345" y="607" on="1"/>
        <pt x="304" y="607" on="0"/>
        <pt x="236" y="582" on="0"/>
        <pt x="212" y="556" on="1"/>
        <pt x="159" y="500" on="0"/>
        <pt x="159" y="388" on="1"/>
        <pt x="159" y="298" on="1"/>
        <pt x="159" y="132" on="0"/>
        <pt x="270" y="92" on="1"/>
        <pt x="304" y="79" on="0"/>
        <pt x="345" y="79" on="1"/>
        <pt x="385" y="79" on="0"/>
        <pt x="454" y="104" on="0"/>
        <pt x="478" y="130" on="1"/>
        <pt x="531" y="186" on="0"/>
        <pt x="531" y="298" on="1"/>
      </contour>
      <contour>
        <pt x="629" y="298" on="1"/>
        <pt x="629" y="148" on="0"/>
        <pt x="546" y="66" on="1"/>
        <pt x="468" y="-10" on="0"/>
        <pt x="345" y="-10" on="1"/>
        <pt x="222" y="-10" on="0"/>
        <pt x="144" y="66" on="1"/>
        <pt x="61" y="148" on="0"/>
        <pt x="61" y="298" on="1"/>
        <pt x="61" y="388" on="1"/>
        <pt x="61" y="538" on="0"/>
        <pt x="144" y="620" on="1"/>
        <pt x="222" y="696" on="0"/>
        <pt x="345" y="696" on="1"/>
        <pt x="468" y="696" on="0"/>
        <pt x="546" y="620" on="1"/>
        <pt x="629" y="538" on="0"/>
        <pt x="629" y="388" on="1"/>
      </contour>
      <contour>
        <pt x="538" y="854" on="1"/>
        <pt x="538" y="813" on="0"/>
        <pt x="512" y="784" on="1"/>
        <pt x="481" y="750" on="0"/>
        <pt x="426" y="750" on="1"/>
        <pt x="396" y="750" on="0"/>
        <pt x="317" y="773" on="0"/>
        <pt x="277" y="784" on="0"/>
        <pt x="257" y="784" on="1"/>
        <pt x="212" y="784" on="0"/>
        <pt x="202" y="750" on="1"/>
        <pt x="152" y="750" on="1"/>
        <pt x="152" y="815" on="0"/>
        <pt x="214" y="844" on="1"/>
        <pt x="236" y="854" on="0"/>
        <pt x="263" y="854" on="1"/>
        <pt x="289" y="854" on="0"/>
        <pt x="332" y="843" on="0"/>
        <pt x="352" y="836" on="1"/>
        <pt x="408" y="819" on="0"/>
        <pt x="433" y="819" on="1"/>
        <pt x="477" y="819" on="0"/>
        <pt x="488" y="854" on="1"/>
      </contour>
    </TTGlyph>
    <TTGlyph name="P" xMin="92" yMin="0" xMax="593" yMax="686">
      <contour>
        <pt x="190" y="597" on="1"/>
        <pt x="190" y="375" on="1"/>
        <pt x="379" y="375" on="1"/>
        <pt x="426" y="375" on="0"/>
        <pt x="461" y="408" on="1"/>
        <pt x="495" y="440" on="0"/>
        <pt x="495" y="486" on="1"/>
        <pt x="495" y="532" on="0"/>
        <pt x="462" y="564" on="1"/>
        <pt x="427" y="597" on="0"/>
        <pt x="379" y="597" on="1"/>
      </contour>
      <contour>
        <pt x="190" y="286" on="1"/>
        <pt x="190" y="0" on="1"/>
        <pt x="92" y="0" on="1"/>
        <pt x="92" y="686" on="1"/>
        <pt x="388" y="686" on="1"/>
        <pt x="475" y="686" on="0"/>
        <pt x="533" y="632" on="1"/>
        <pt x="593" y="575" on="0"/>
        <pt x="593" y="486" on="1"/>
        <pt x="593" y="397" on="0"/>
        <pt x="533" y="340" on="1"/>
        <pt x="475" y="286" on="0"/>
        <pt x="388" y="286" on="1"/>
      </contour>
    </TTGlyph>
    <TTGlyph name="Q" xMin="61" yMin="-145" xMax="629" yMax="696">
      <contour>
        <pt x="618" y="-112" on="1"/>
        <pt x="559" y="-145" on="0"/>
        <pt x="499" y="-145" on="1"/>
        <pt x="438" y="-145" on="0"/>
        <pt x="373" y="-119" on="0"/>
        <pt x="352" y="-99" on="1"/>
        <pt x="315" y="-63" on="0"/>
        <pt x="305" y="-8" on="1"/>
        <pt x="196" y="5" on="0"/>
        <pt x="131" y="79" on="1"/>
        <pt x="61" y="160" on="0"/>
        <pt x="61" y="298" on="1"/>
        <pt x="61" y="388" on="1"/>
        <pt x="61" y="538" on="0"/>
        <pt x="144" y="620" on="1"/>
        <pt x="222" y="696" on="0"/>
        <pt x="345" y="696" on="1"/>
        <pt x="468" y="696" on="0"/>
        <pt x="546" y="620" on="1"/>
        <pt x="629" y="538" on="0"/>
        <pt x="629" y="388" on="1"/>
        <pt x="629" y="298" on="1"/>
        <pt x="629" y="166" on="0"/>
        <pt x="564" y="86" on="1"/>
        <pt x="505" y="12" on="0"/>
        <pt x="402" y="-5" on="1"/>
        <pt x="409" y="-33" on="0"/>
        <pt x="426" y="-46" on="1"/>
        <pt x="458" y="-70" on="0"/>
        <pt x="501" y="-70" on="1"/>
        <pt x="546" y="-70" on="0"/>
        <pt x="606" y="-46" on="1"/>
        <pt x="618" y="-42" on="1"/>
      </contour>
      <contour>
        <pt x="531" y="388" on="1"/>
        <pt x="531" y="554" on="0"/>
        <pt x="420" y="594" on="1"/>
        <pt x="385" y="607" on="0"/>
        <pt x="345" y="607" on="1"/>
        <pt x="304" y="607" on="0"/>
        <pt x="236" y="582" on="0"/>
        <pt x="212" y="556" on="1"/>
        <pt x="159" y="500" on="0"/>
        <pt x="159" y="388" on="1"/>
        <pt x="159" y="298" on="1"/>
        <pt x="159" y="132" on="0"/>
        <pt x="270" y="92" on="1"/>
        <pt x="304" y="79" on="0"/>
        <pt x="345" y="79" on="1"/>
        <pt x="385" y="79" on="0"/>
        <pt x="454" y="104" on="0"/>
        <pt x="478" y="130" on="1"/>
        <pt x="531" y="186" on="0"/>
        <pt x="531" y="298" on="1"/>
      </contour>
    </TTGlyph>
    <TTGlyph name="R" xMin="92" yMin="-6" xMax="630" yMax="686">
      <contour>
        <pt x="630" y="3" on="1"/>
        <pt x="607" y="-6" on="0"/>
        <pt x="583" y="-6" on="1"/>
        <pt x="563" y="-6" on="0"/>
        <pt x="542" y="0" on="1"/>
        <pt x="506" y="10" on="0"/>
        <pt x="490" y="59" on="1"/>
        <pt x="481" y="84" on="0"/>
        <pt x="481" y="130" on="1"/>
        <pt x="481" y="176" on="0"/>
        <pt x="458" y="245" on="0"/>
        <pt x="440" y="266" on="1"/>
        <pt x="409" y="302" on="0"/>
        <pt x="364" y="302" on="1"/>
        <pt x="190" y="302" on="1"/>
        <pt x="190" y="0" on="1"/>
        <pt x="92" y="0" on="1"/>
        <pt x="92" y="686" on="1"/>
        <pt x="384" y="686" on="1"/>
        <pt x="525" y="686" on="0"/>
        <pt x="575" y="592" on="1"/>
        <pt x="592" y="560" on="0"/>
        <pt x="592" y="525" on="1"/>
        <pt x="592" y="489" on="0"/>
        <pt x="573" y="435" on="0"/>
        <pt x="556" y="412" on="1"/>
        <pt x="521" y="364" on="0"/>
        <pt x="469" y="354" on="1"/>
        <pt x="469" y="349" on="1"/>
        <pt x="535" y="324" on="0"/>
        <pt x="565" y="249" on="1"/>
        <pt x="579" y="214" on="0"/>
        <pt x="579" y="170" on="1"/>
        <pt x="579" y="125" on="0"/>
        <pt x="586" y="79" on="0"/>
        <pt x="592" y="65" on="1"/>
        <pt x="604" y="40" on="0"/>
        <pt x="630" y="31" on="1"/>
      </contour>
      <contour>
        <pt x="385" y="391" on="1"/>
        <pt x="429" y="391" on="0"/>
        <pt x="462" y="420" on="1"/>
        <pt x="494" y="449" on="0"/>
        <pt x="494" y="492" on="1"/>
        <pt x="494" y="496" on="1"/>
        <pt x="494" y="539" on="0"/>
        <pt x="435" y="597" on="0"/>
        <pt x="385" y="597" on="1"/>
        <pt x="190" y="597" on="1"/>
        <pt x="190" y="391" on="1"/>
      </contour>
    </TTGlyph>
    <TTGlyph name="S" xMin="52" yMin="-10" xMax="574" yMax="696">
      <contour>
        <pt x="151" y="215" on="1"/>
        <pt x="150" y="194" on="1"/>
        <pt x="150" y="135" on="0"/>
        <pt x="239" y="79" on="0"/>
        <pt x="314" y="79" on="1"/>
        <pt x="389" y="79" on="0"/>
        <pt x="476" y="134" on="0"/>
        <pt x="476" y="182" on="1"/>
        <pt x="476" y="230" on="0"/>
        <pt x="416" y="275" on="0"/>
        <pt x="325" y="303" on="0"/>
        <pt x="219" y="327" on="0"/>
        <pt x="128" y="371" on="0"/>
        <pt x="68" y="445" on="0"/>
        <pt x="68" y="501" on="1"/>
        <pt x="68" y="557" on="0"/>
        <pt x="107" y="627" on="0"/>
        <pt x="140" y="650" on="1"/>
        <pt x="205" y="696" on="0"/>
        <pt x="314" y="696" on="1"/>
        <pt x="420" y="696" on="0"/>
        <pt x="485" y="651" on="1"/>
        <pt x="556" y="602" on="0"/>
        <pt x="556" y="504" on="1"/>
        <pt x="556" y="492" on="1"/>
        <pt x="458" y="492" on="1"/>
        <pt x="458" y="507" on="1"/>
        <pt x="458" y="556" on="0"/>
        <pt x="378" y="607" on="0"/>
        <pt x="316" y="607" on="1"/>
        <pt x="211" y="607" on="0"/>
        <pt x="178" y="557" on="1"/>
        <pt x="166" y="540" on="0"/>
        <pt x="166" y="516" on="1"/>
        <pt x="166" y="476" on="0"/>
        <pt x="226" y="434" on="0"/>
        <pt x="317" y="406" on="0"/>
        <pt x="423" y="381" on="0"/>
        <pt x="514" y="338" on="0"/>
        <pt x="574" y="265" on="0"/>
        <pt x="574" y="205" on="1"/>
        <pt x="574" y="144" on="0"/>
        <pt x="534" y="63" on="0"/>
        <pt x="499" y="38" on="1"/>
        <pt x="432" y="-10" on="0"/>
        <pt x="313" y="-10" on="1"/>
        <pt x="132" y="-10" on="0"/>
        <pt x="73" y="100" on="1"/>
        <pt x="52" y="139" on="0"/>
        <pt x="52" y="195" on="1"/>
        <pt x="53" y="215" on="1"/>
      </contour>
    </TTGlyph>
    <TTGlyph name="Scaron" xMin="52" yMin="-10" xMax="574" yMax="895">
      <contour>
        <pt x="151" y="215" on="1"/>
        <pt x="150" y="194" on="1"/>
        <pt x="150" y="135" on="0"/>
        <pt x="239" y="79" on="0"/>
        <pt x="314" y="79" on="1"/>
        <pt x="389" y="79" on="0"/>
        <pt x="476" y="134" on="0"/>
        <pt x="476" y="182" on="1"/>
        <pt x="476" y="230" on="0"/>
        <pt x="416" y="275" on="0"/>
        <pt x="325" y="303" on="0"/>
        <pt x="219" y="327" on="0"/>
        <pt x="128" y="371" on="0"/>
        <pt x="68" y="445" on="0"/>
        <pt x="68" y="501" on="1"/>
        <pt x="68" y="557" on="0"/>
        <pt x="107" y="627" on="0"/>
        <pt x="140" y="650" on="1"/>
        <pt x="205" y="696" on="0"/>
        <pt x="314" y="696" on="1"/>
        <pt x="420" y="696" on="0"/>
        <pt x="485" y="651" on="1"/>
        <pt x="556" y="602" on="0"/>
        <pt x="556" y="504" on="1"/>
        <pt x="556" y="492" on="1"/>
        <pt x="458" y="492" on="1"/>
        <pt x="458" y="507" on="1"/>
        <pt x="458" y="556" on="0"/>
        <pt x="378" y="607" on="0"/>
        <pt x="316" y="607" on="1"/>
        <pt x="211" y="607" on="0"/>
        <pt x="178" y="557" on="1"/>
        <pt x="166" y="540" on="0"/>
        <pt x="166" y="516" on="1"/>
        <pt x="166" y="476" on="0"/>
        <pt x="226" y="434" on="0"/>
        <pt x="317" y="406" on="0"/>
        <pt x="423" y="381" on="0"/>
        <pt x="514" y="338" on="0"/>
        <pt x="574" y="265" on="0"/>
        <pt x="574" y="205" on="1"/>
        <pt x="574" y="144" on="0"/>
        <pt x="534" y="63" on="0"/>
        <pt x="499" y="38" on="1"/>
        <pt x="432" y="-10" on="0"/>
        <pt x="313" y="-10" on="1"/>
        <pt x="132" y="-10" on="0"/>
        <pt x="73" y="100" on="1"/>
        <pt x="52" y="139" on="0"/>
        <pt x="52" y="195" on="1"/>
        <pt x="53" y="215" on="1"/>
      </contour>
      <contour>
        <pt x="141" y="895" on="1"/>
        <pt x="221" y="895" on="1"/>
        <pt x="316" y="806" on="1"/>
        <pt x="410" y="895" on="1"/>
        <pt x="490" y="895" on="1"/>
        <pt x="355" y="750" on="1"/>
        <pt x="277" y="750" on="1"/>
      </contour>
    </TTGlyph>
    <TTGlyph name="T" xMin="25" yMin="0" xMax="553" yMax="686">
      <contour>
        <pt x="338" y="597" on="1"/>
        <pt x="338" y="0" on="1"/>
        <pt x="240" y="0" on="1"/>
        <pt x="240" y="597" on="1"/>
        <pt x="25" y="597" on="1"/>
        <pt x="25" y="686" on="1"/>
        <pt x="553" y="686" on="1"/>
        <pt x="553" y="597" on="1"/>
      </contour>
    </TTGlyph>
    <TTGlyph name="Thorn" xMin="92" yMin="0" xMax="593" yMax="686">
      <contour>
        <pt x="190" y="162" on="1"/>
        <pt x="190" y="0" on="1"/>
        <pt x="92" y="0" on="1"/>
        <pt x="92" y="686" on="1"/>
        <pt x="190" y="686" on="1"/>
        <pt x="190" y="562" on="1"/>
        <pt x="388" y="562" on="1"/>
        <pt x="475" y="562" on="0"/>
        <pt x="533" y="508" on="1"/>
        <pt x="593" y="451" on="0"/>
        <pt x="593" y="362" on="1"/>
        <pt x="593" y="273" on="0"/>
        <pt x="533" y="216" on="1"/>
        <pt x="475" y="162" on="0"/>
        <pt x="388" y="162" on="1"/>
      </contour>
      <contour>
        <pt x="190" y="473" on="1"/>
        <pt x="190" y="251" on="1"/>
        <pt x="379" y="251" on="1"/>
        <pt x="426" y="251" on="0"/>
        <pt x="461" y="284" on="1"/>
        <pt x="495" y="316" on="0"/>
        <pt x="495" y="362" on="1"/>
        <pt x="495" y="408" on="0"/>
        <pt x="462" y="440" on="1"/>
        <pt x="427" y="473" on="0"/>
        <pt x="379" y="473" on="1"/>
      </contour>
    </TTGlyph>
    <TTGlyph name="U" xMin="86" yMin="-10" xMax="594" yMax="686">
      <contour>
        <pt x="594" y="686" on="1"/>
        <pt x="594" y="219" on="1"/>
        <pt x="594" y="115" on="0"/>
        <pt x="526" y="52" on="1"/>
        <pt x="458" y="-10" on="0"/>
        <pt x="346" y="-10" on="1"/>
        <pt x="333" y="-10" on="1"/>
        <pt x="221" y="-10" on="0"/>
        <pt x="154" y="52" on="1"/>
        <pt x="86" y="114" on="0"/>
        <pt x="86" y="219" on="1"/>
        <pt x="86" y="686" on="1"/>
        <pt x="184" y="686" on="1"/>
        <pt x="184" y="221" on="1"/>
        <pt x="184" y="159" on="0"/>
        <pt x="226" y="120" on="1"/>
        <pt x="271" y="79" on="0"/>
        <pt x="342" y="79" on="1"/>
        <pt x="413" y="79" on="0"/>
        <pt x="496" y="158" on="0"/>
        <pt x="496" y="221" on="1"/>
        <pt x="496" y="686" on="1"/>
      </contour>
    </TTGlyph>
    <TTGlyph name="Uacute" xMin="86" yMin="-10" xMax="594" yMax="895">
      <contour>
        <pt x="594" y="686" on="1"/>
        <pt x="594" y="219" on="1"/>
        <pt x="594" y="115" on="0"/>
        <pt x="526" y="52" on="1"/>
        <pt x="458" y="-10" on="0"/>
        <pt x="346" y="-10" on="1"/>
        <pt x="333" y="-10" on="1"/>
        <pt x="221" y="-10" on="0"/>
        <pt x="154" y="52" on="1"/>
        <pt x="86" y="114" on="0"/>
        <pt x="86" y="219" on="1"/>
        <pt x="86" y="686" on="1"/>
        <pt x="184" y="686" on="1"/>
        <pt x="184" y="221" on="1"/>
        <pt x="184" y="159" on="0"/>
        <pt x="226" y="120" on="1"/>
        <pt x="271" y="79" on="0"/>
        <pt x="342" y="79" on="1"/>
        <pt x="413" y="79" on="0"/>
        <pt x="496" y="158" on="0"/>
        <pt x="496" y="221" on="1"/>
        <pt x="496" y="686" on="1"/>
      </contour>
      <contour>
        <pt x="304" y="750" on="1"/>
        <pt x="398" y="895" on="1"/>
        <pt x="488" y="895" on="1"/>
        <pt x="489" y="892" on="1"/>
        <pt x="373" y="750" on="1"/>
      </contour>
    </TTGlyph>
    <TTGlyph name="Ucircumflex" xMin="86" yMin="-10" xMax="594" yMax="895">
      <contour>
        <pt x="594" y="686" on="1"/>
        <pt x="594" y="219" on="1"/>
        <pt x="594" y="115" on="0"/>
        <pt x="526" y="52" on="1"/>
        <pt x="458" y="-10" on="0"/>
        <pt x="346" y="-10" on="1"/>
        <pt x="333" y="-10" on="1"/>
        <pt x="221" y="-10" on="0"/>
        <pt x="154" y="52" on="1"/>
        <pt x="86" y="114" on="0"/>
        <pt x="86" y="219" on="1"/>
        <pt x="86" y="686" on="1"/>
        <pt x="184" y="686" on="1"/>
        <pt x="184" y="221" on="1"/>
        <pt x="184" y="159" on="0"/>
        <pt x="226" y="120" on="1"/>
        <pt x="271" y="79" on="0"/>
        <pt x="342" y="79" on="1"/>
        <pt x="413" y="79" on="0"/>
        <pt x="496" y="158" on="0"/>
        <pt x="496" y="221" on="1"/>
        <pt x="496" y="686" on="1"/>
      </contour>
      <contour>
        <pt x="301" y="895" on="1"/>
        <pt x="379" y="895" on="1"/>
        <pt x="514" y="750" on="1"/>
        <pt x="434" y="750" on="1"/>
        <pt x="340" y="839" on="1"/>
        <pt x="245" y="750" on="1"/>
        <pt x="165" y="750" on="1"/>
      </contour>
    </TTGlyph>
    <TTGlyph name="Udieresis" xMin="86" yMin="-10" xMax="594" yMax="848">
      <contour>
        <pt x="594" y="686" on="1"/>
        <pt x="594" y="219" on="1"/>
        <pt x="594" y="115" on="0"/>
        <pt x="526" y="52" on="1"/>
        <pt x="458" y="-10" on="0"/>
        <pt x="346" y="-10" on="1"/>
        <pt x="333" y="-10" on="1"/>
        <pt x="221" y="-10" on="0"/>
        <pt x="154" y="52" on="1"/>
        <pt x="86" y="114" on="0"/>
        <pt x="86" y="219" on="1"/>
        <pt x="86" y="686" on="1"/>
        <pt x="184" y="686" on="1"/>
        <pt x="184" y="221" on="1"/>
        <pt x="184" y="159" on="0"/>
        <pt x="226" y="120" on="1"/>
        <pt x="271" y="79" on="0"/>
        <pt x="342" y="79" on="1"/>
        <pt x="413" y="79" on="0"/>
        <pt x="496" y="158" on="0"/>
        <pt x="496" y="221" on="1"/>
        <pt x="496" y="686" on="1"/>
      </contour>
      <contour>
        <pt x="201" y="848" on="1"/>
        <pt x="291" y="848" on="1"/>
        <pt x="291" y="750" on="1"/>
        <pt x="201" y="750" on="1"/>
      </contour>
      <contour>
        <pt x="389" y="848" on="1"/>
        <pt x="480" y="848" on="1"/>
        <pt x="480" y="750" on="1"/>
        <pt x="389" y="750" on="1"/>
      </contour>
    </TTGlyph>
    <TTGlyph name="Ugrave" xMin="86" yMin="-10" xMax="594" yMax="895">
      <contour>
        <pt x="594" y="686" on="1"/>
        <pt x="594" y="219" on="1"/>
        <pt x="594" y="115" on="0"/>
        <pt x="526" y="52" on="1"/>
        <pt x="458" y="-10" on="0"/>
        <pt x="346" y="-10" on="1"/>
        <pt x="333" y="-10" on="1"/>
        <pt x="221" y="-10" on="0"/>
        <pt x="154" y="52" on="1"/>
        <pt x="86" y="114" on="0"/>
        <pt x="86" y="219" on="1"/>
        <pt x="86" y="686" on="1"/>
        <pt x="184" y="686" on="1"/>
        <pt x="184" y="221" on="1"/>
        <pt x="184" y="159" on="0"/>
        <pt x="226" y="120" on="1"/>
        <pt x="271" y="79" on="0"/>
        <pt x="342" y="79" on="1"/>
        <pt x="413" y="79" on="0"/>
        <pt x="496" y="158" on="0"/>
        <pt x="496" y="221" on="1"/>
        <pt x="496" y="686" on="1"/>
      </contour>
      <contour>
        <pt x="313" y="750" on="1"/>
        <pt x="198" y="892" on="1"/>
        <pt x="199" y="895" on="1"/>
        <pt x="288" y="895" on="1"/>
        <pt x="383" y="750" on="1"/>
      </contour>
    </TTGlyph>
    <TTGlyph name="V" xMin="5" yMin="0" xMax="598" yMax="686">
      <contour>
        <pt x="309" y="133" on="1"/>
        <pt x="503" y="686" on="1"/>
        <pt x="598" y="686" on="1"/>
        <pt x="354" y="0" on="1"/>
        <pt x="249" y="0" on="1"/>
        <pt x="5" y="686" on="1"/>
        <pt x="110" y="686" on="1"/>
        <pt x="303" y="133" on="1"/>
      </contour>
    </TTGlyph>
    <TTGlyph name="W" xMin="14" yMin="0" xMax="903" yMax="686">
      <contour>
        <pt x="455" y="496" on="1"/>
        <pt x="310" y="0" on="1"/>
        <pt x="210" y="0" on="1"/>
        <pt x="14" y="686" on="1"/>
        <pt x="119" y="686" on="1"/>
        <pt x="264" y="169" on="1"/>
        <pt x="270" y="169" on="1"/>
        <pt x="416" y="686" on="1"/>
        <pt x="511" y="686" on="1"/>
        <pt x="656" y="169" on="1"/>
        <pt x="662" y="169" on="1"/>
        <pt x="808" y="686" on="1"/>
        <pt x="903" y="686" on="1"/>
        <pt x="702" y="0" on="1"/>
        <pt x="602" y="0" on="1"/>
        <pt x="462" y="496" on="1"/>
      </contour>
    </TTGlyph>
    <TTGlyph name="X" xMin="9" yMin="0" xMax="621" yMax="685">
      <contour>
        <pt x="313" y="276" on="1"/>
        <pt x="118" y="0" on="1"/>
        <pt x="9" y="0" on="1"/>
        <pt x="259" y="355" on="1"/>
        <pt x="32" y="685" on="1"/>
        <pt x="150" y="685" on="1"/>
        <pt x="318" y="440" on="1"/>
        <pt x="353" y="489" on="0"/>
        <pt x="415" y="578" on="0"/>
        <pt x="462" y="645" on="0"/>
        <pt x="476" y="665" on="1"/>
        <pt x="490" y="685" on="1"/>
        <pt x="599" y="685" on="1"/>
        <pt x="580" y="658" on="1"/>
        <pt x="547" y="610" on="0"/>
        <pt x="415" y="423" on="0"/>
        <pt x="372" y="361" on="1"/>
        <pt x="621" y="0" on="1"/>
        <pt x="503" y="0" on="1"/>
      </contour>
    </TTGlyph>
    <TTGlyph name="Y" xMin="-5" yMin="0" xMax="576" yMax="686">
      <contour>
        <pt x="335" y="265" on="1"/>
        <pt x="335" y="0" on="1"/>
        <pt x="237" y="0" on="1"/>
        <pt x="237" y="265" on="1"/>
        <pt x="-5" y="686" on="1"/>
        <pt x="107" y="686" on="1"/>
        <pt x="290" y="367" on="1"/>
        <pt x="294" y="367" on="1"/>
        <pt x="475" y="686" on="1"/>
        <pt x="576" y="686" on="1"/>
      </contour>
    </TTGlyph>
    <TTGlyph name="Yacute" xMin="-5" yMin="0" xMax="576" yMax="895">
      <contour>
        <pt x="335" y="265" on="1"/>
        <pt x="335" y="0" on="1"/>
        <pt x="237" y="0" on="1"/>
        <pt x="237" y="265" on="1"/>
        <pt x="-5" y="686" on="1"/>
        <pt x="107" y="686" on="1"/>
        <pt x="290" y="367" on="1"/>
        <pt x="294" y="367" on="1"/>
        <pt x="475" y="686" on="1"/>
        <pt x="576" y="686" on="1"/>
      </contour>
      <contour>
        <pt x="259" y="750" on="1"/>
        <pt x="353" y="895" on="1"/>
        <pt x="443" y="895" on="1"/>
        <pt x="444" y="892" on="1"/>
        <pt x="328" y="750" on="1"/>
      </contour>
    </TTGlyph>
    <TTGlyph name="Ydieresis" xMin="-5" yMin="0" xMax="576" yMax="847">
      <contour>
        <pt x="335" y="265" on="1"/>
        <pt x="335" y="0" on="1"/>
        <pt x="237" y="0" on="1"/>
        <pt x="237" y="265" on="1"/>
        <pt x="-5" y="686" on="1"/>
        <pt x="107" y="686" on="1"/>
        <pt x="290" y="367" on="1"/>
        <pt x="294" y="367" on="1"/>
        <pt x="475" y="686" on="1"/>
        <pt x="576" y="686" on="1"/>
      </contour>
      <contour>
        <pt x="158" y="847" on="1"/>
        <pt x="248" y="847" on="1"/>
        <pt x="248" y="749" on="1"/>
        <pt x="158" y="749" on="1"/>
      </contour>
      <contour>
        <pt x="346" y="847" on="1"/>
        <pt x="437" y="847" on="1"/>
        <pt x="437" y="749" on="1"/>
        <pt x="346" y="749" on="1"/>
      </contour>
    </TTGlyph>
    <TTGlyph name="Z" xMin="32" yMin="0" xMax="555" yMax="686">
      <contour>
        <pt x="32" y="0" on="1"/>
        <pt x="32" y="38" on="1"/>
        <pt x="397" y="597" on="1"/>
        <pt x="56" y="597" on="1"/>
        <pt x="56" y="686" on="1"/>
        <pt x="547" y="686" on="1"/>
        <pt x="547" y="648" on="1"/>
        <pt x="181" y="89" on="1"/>
        <pt x="555" y="89" on="1"/>
        <pt x="555" y="0" on="1"/>
      </contour>
    </TTGlyph>
    <TTGlyph name="Zcaron" xMin="32" yMin="0" xMax="555" yMax="895">
      <contour>
        <pt x="32" y="0" on="1"/>
        <pt x="32" y="38" on="1"/>
        <pt x="397" y="597" on="1"/>
        <pt x="56" y="597" on="1"/>
        <pt x="56" y="686" on="1"/>
        <pt x="547" y="686" on="1"/>
        <pt x="547" y="648" on="1"/>
        <pt x="181" y="89" on="1"/>
        <pt x="555" y="89" on="1"/>
        <pt x="555" y="0" on="1"/>
      </contour>
      <contour>
        <pt x="125" y="895" on="1"/>
        <pt x="205" y="895" on="1"/>
        <pt x="300" y="806" on="1"/>
        <pt x="394" y="895" on="1"/>
        <pt x="474" y="895" on="1"/>
        <pt x="339" y="750" on="1"/>
        <pt x="261" y="750" on="1"/>
      </contour>
    </TTGlyph>
    <TTGlyph name="a" xMin="48" yMin="-10" xMax="558" yMax="521">
      <contour>
        <pt x="390" y="234" on="1"/>
        <pt x="262" y="234" on="0"/>
        <pt x="176" y="207" on="0"/>
        <pt x="142" y="170" on="0"/>
        <pt x="142" y="134" on="1"/>
        <pt x="142" y="65" on="0"/>
        <pt x="247" y="65" on="1"/>
        <pt x="303" y="65" on="0"/>
        <pt x="346" y="104" on="1"/>
        <pt x="390" y="145" on="0"/>
        <pt x="390" y="214" on="1"/>
      </contour>
      <contour>
        <pt x="394" y="82" on="1"/>
        <pt x="333" y="-10" on="0"/>
        <pt x="215" y="-10" on="1"/>
        <pt x="99" y="-10" on="0"/>
        <pt x="62" y="62" on="1"/>
        <pt x="48" y="91" on="0"/>
        <pt x="48" y="142" on="1"/>
        <pt x="48" y="193" on="0"/>
        <pt x="98" y="260" on="0"/>
        <pt x="143" y="278" on="1"/>
        <pt x="215" y="307" on="0"/>
        <pt x="390" y="307" on="1"/>
        <pt x="390" y="354" on="1"/>
        <pt x="390" y="393" on="0"/>
        <pt x="376" y="410" on="1"/>
        <pt x="345" y="446" on="0"/>
        <pt x="273" y="446" on="1"/>
        <pt x="203" y="446" on="0"/>
        <pt x="175" y="412" on="1"/>
        <pt x="159" y="392" on="0"/>
        <pt x="159" y="366" on="1"/>
        <pt x="159" y="354" on="1"/>
        <pt x="67" y="354" on="1"/>
        <pt x="65" y="364" on="0"/>
        <pt x="65" y="387" on="1"/>
        <pt x="65" y="409" on="0"/>
        <pt x="97" y="463" on="0"/>
        <pt x="125" y="482" on="1"/>
        <pt x="185" y="521" on="0"/>
        <pt x="275" y="521" on="1"/>
        <pt x="284" y="521" on="1"/>
        <pt x="386" y="521" on="0"/>
        <pt x="484" y="440" on="0"/>
        <pt x="484" y="365" on="1"/>
        <pt x="484" y="100" on="1"/>
        <pt x="484" y="81" on="0"/>
        <pt x="501" y="65" on="0"/>
        <pt x="512" y="65" on="1"/>
        <pt x="536" y="65" on="0"/>
        <pt x="558" y="79" on="1"/>
        <pt x="558" y="10" on="1"/>
        <pt x="525" y="-10" on="0"/>
        <pt x="481" y="-10" on="1"/>
        <pt x="436" y="-10" on="0"/>
        <pt x="396" y="42" on="0"/>
      </contour>
    </TTGlyph>
    <TTGlyph name="aacute" xMin="48" yMin="-10" xMax="558" yMax="720">
      <contour>
        <pt x="390" y="234" on="1"/>
        <pt x="262" y="234" on="0"/>
        <pt x="176" y="207" on="0"/>
        <pt x="142" y="170" on="0"/>
        <pt x="142" y="134" on="1"/>
        <pt x="142" y="65" on="0"/>
        <pt x="247" y="65" on="1"/>
        <pt x="303" y="65" on="0"/>
        <pt x="346" y="104" on="1"/>
        <pt x="390" y="145" on="0"/>
        <pt x="390" y="214" on="1"/>
      </contour>
      <contour>
        <pt x="394" y="82" on="1"/>
        <pt x="333" y="-10" on="0"/>
        <pt x="215" y="-10" on="1"/>
        <pt x="99" y="-10" on="0"/>
        <pt x="62" y="62" on="1"/>
        <pt x="48" y="91" on="0"/>
        <pt x="48" y="142" on="1"/>
        <pt x="48" y="193" on="0"/>
        <pt x="98" y="260" on="0"/>
        <pt x="143" y="278" on="1"/>
        <pt x="215" y="307" on="0"/>
        <pt x="390" y="307" on="1"/>
        <pt x="390" y="354" on="1"/>
        <pt x="390" y="393" on="0"/>
        <pt x="376" y="410" on="1"/>
        <pt x="345" y="446" on="0"/>
        <pt x="273" y="446" on="1"/>
        <pt x="203" y="446" on="0"/>
        <pt x="175" y="412" on="1"/>
        <pt x="159" y="392" on="0"/>
        <pt x="159" y="366" on="1"/>
        <pt x="159" y="354" on="1"/>
        <pt x="67" y="354" on="1"/>
        <pt x="65" y="364" on="0"/>
        <pt x="65" y="387" on="1"/>
        <pt x="65" y="409" on="0"/>
        <pt x="97" y="463" on="0"/>
        <pt x="125" y="482" on="1"/>
        <pt x="185" y="521" on="0"/>
        <pt x="275" y="521" on="1"/>
        <pt x="284" y="521" on="1"/>
        <pt x="386" y="521" on="0"/>
        <pt x="484" y="440" on="0"/>
        <pt x="484" y="365" on="1"/>
        <pt x="484" y="100" on="1"/>
        <pt x="484" y="81" on="0"/>
        <pt x="501" y="65" on="0"/>
        <pt x="512" y="65" on="1"/>
        <pt x="536" y="65" on="0"/>
        <pt x="558" y="79" on="1"/>
        <pt x="558" y="10" on="1"/>
        <pt x="525" y="-10" on="0"/>
        <pt x="481" y="-10" on="1"/>
        <pt x="436" y="-10" on="0"/>
        <pt x="396" y="42" on="0"/>
      </contour>
      <contour>
        <pt x="246" y="575" on="1"/>
        <pt x="340" y="720" on="1"/>
        <pt x="430" y="720" on="1"/>
        <pt x="431" y="717" on="1"/>
        <pt x="315" y="575" on="1"/>
      </contour>
    </TTGlyph>
    <TTGlyph name="acircumflex" xMin="48" yMin="-10" xMax="558" yMax="720">
      <contour>
        <pt x="390" y="234" on="1"/>
        <pt x="262" y="234" on="0"/>
        <pt x="176" y="207" on="0"/>
        <pt x="142" y="170" on="0"/>
        <pt x="142" y="134" on="1"/>
        <pt x="142" y="65" on="0"/>
        <pt x="247" y="65" on="1"/>
        <pt x="303" y="65" on="0"/>
        <pt x="346" y="104" on="1"/>
        <pt x="390" y="145" on="0"/>
        <pt x="390" y="214" on="1"/>
      </contour>
      <contour>
        <pt x="394" y="82" on="1"/>
        <pt x="333" y="-10" on="0"/>
        <pt x="215" y="-10" on="1"/>
        <pt x="99" y="-10" on="0"/>
        <pt x="62" y="62" on="1"/>
        <pt x="48" y="91" on="0"/>
        <pt x="48" y="142" on="1"/>
        <pt x="48" y="193" on="0"/>
        <pt x="98" y="260" on="0"/>
        <pt x="143" y="278" on="1"/>
        <pt x="215" y="307" on="0"/>
        <pt x="390" y="307" on="1"/>
        <pt x="390" y="354" on="1"/>
        <pt x="390" y="393" on="0"/>
        <pt x="376" y="410" on="1"/>
        <pt x="345" y="446" on="0"/>
        <pt x="273" y="446" on="1"/>
        <pt x="203" y="446" on="0"/>
        <pt x="175" y="412" on="1"/>
        <pt x="159" y="392" on="0"/>
        <pt x="159" y="366" on="1"/>
        <pt x="159" y="354" on="1"/>
        <pt x="67" y="354" on="1"/>
        <pt x="65" y="364" on="0"/>
        <pt x="65" y="387" on="1"/>
        <pt x="65" y="409" on="0"/>
        <pt x="97" y="463" on="0"/>
        <pt x="125" y="482" on="1"/>
        <pt x="185" y="521" on="0"/>
        <pt x="275" y="521" on="1"/>
        <pt x="284" y="521" on="1"/>
        <pt x="386" y="521" on="0"/>
        <pt x="484" y="440" on="0"/>
        <pt x="484" y="365" on="1"/>
        <pt x="484" y="100" on="1"/>
        <pt x="484" y="81" on="0"/>
        <pt x="501" y="65" on="0"/>
        <pt x="512" y="65" on="1"/>
        <pt x="536" y="65" on="0"/>
        <pt x="558" y="79" on="1"/>
        <pt x="558" y="10" on="1"/>
        <pt x="525" y="-10" on="0"/>
        <pt x="481" y="-10" on="1"/>
        <pt x="436" y="-10" on="0"/>
        <pt x="396" y="42" on="0"/>
      </contour>
      <contour>
        <pt x="239" y="720" on="1"/>
        <pt x="317" y="720" on="1"/>
        <pt x="452" y="575" on="1"/>
        <pt x="372" y="575" on="1"/>
        <pt x="278" y="664" on="1"/>
        <pt x="183" y="575" on="1"/>
        <pt x="103" y="575" on="1"/>
      </contour>
    </TTGlyph>
    <TTGlyph name="acute" xMin="68" yMin="575" xMax="253" yMax="720">
      <contour>
        <pt x="68" y="575" on="1"/>
        <pt x="162" y="720" on="1"/>
        <pt x="252" y="720" on="1"/>
        <pt x="253" y="717" on="1"/>
        <pt x="137" y="575" on="1"/>
      </contour>
    </TTGlyph>
    <TTGlyph name="adieresis" xMin="48" yMin="-10" xMax="558" yMax="720">
      <contour>
        <pt x="390" y="234" on="1"/>
        <pt x="262" y="234" on="0"/>
        <pt x="176" y="207" on="0"/>
        <pt x="142" y="170" on="0"/>
        <pt x="142" y="134" on="1"/>
        <pt x="142" y="65" on="0"/>
        <pt x="247" y="65" on="1"/>
        <pt x="303" y="65" on="0"/>
        <pt x="346" y="104" on="1"/>
        <pt x="390" y="145" on="0"/>
        <pt x="390" y="214" on="1"/>
      </contour>
      <contour>
        <pt x="394" y="82" on="1"/>
        <pt x="333" y="-10" on="0"/>
        <pt x="215" y="-10" on="1"/>
        <pt x="99" y="-10" on="0"/>
        <pt x="62" y="62" on="1"/>
        <pt x="48" y="91" on="0"/>
        <pt x="48" y="142" on="1"/>
        <pt x="48" y="193" on="0"/>
        <pt x="98" y="260" on="0"/>
        <pt x="143" y="278" on="1"/>
        <pt x="215" y="307" on="0"/>
        <pt x="390" y="307" on="1"/>
        <pt x="390" y="354" on="1"/>
        <pt x="390" y="393" on="0"/>
        <pt x="376" y="410" on="1"/>
        <pt x="345" y="446" on="0"/>
        <pt x="273" y="446" on="1"/>
        <pt x="203" y="446" on="0"/>
        <pt x="175" y="412" on="1"/>
        <pt x="159" y="392" on="0"/>
        <pt x="159" y="366" on="1"/>
        <pt x="159" y="354" on="1"/>
        <pt x="67" y="354" on="1"/>
        <pt x="65" y="364" on="0"/>
        <pt x="65" y="387" on="1"/>
        <pt x="65" y="409" on="0"/>
        <pt x="97" y="463" on="0"/>
        <pt x="125" y="482" on="1"/>
        <pt x="185" y="521" on="0"/>
        <pt x="275" y="521" on="1"/>
        <pt x="284" y="521" on="1"/>
        <pt x="386" y="521" on="0"/>
        <pt x="484" y="440" on="0"/>
        <pt x="484" y="365" on="1"/>
        <pt x="484" y="100" on="1"/>
        <pt x="484" y="81" on="0"/>
        <pt x="501" y="65" on="0"/>
        <pt x="512" y="65" on="1"/>
        <pt x="536" y="65" on="0"/>
        <pt x="558" y="79" on="1"/>
        <pt x="558" y="10" on="1"/>
        <pt x="525" y="-10" on="0"/>
        <pt x="481" y="-10" on="1"/>
        <pt x="436" y="-10" on="0"/>
        <pt x="396" y="42" on="0"/>
      </contour>
      <contour>
        <pt x="136" y="720" on="1"/>
        <pt x="226" y="720" on="1"/>
        <pt x="226" y="622" on="1"/>
        <pt x="136" y="622" on="1"/>
      </contour>
      <contour>
        <pt x="324" y="720" on="1"/>
        <pt x="415" y="720" on="1"/>
        <pt x="415" y="622" on="1"/>
        <pt x="324" y="622" on="1"/>
      </contour>
    </TTGlyph>
    <TTGlyph name="ae" xMin="48" yMin="-10" xMax="841" yMax="521">
      <contour>
        <pt x="457" y="457" on="1"/>
        <pt x="517" y="521" on="0"/>
        <pt x="620" y="521" on="1"/>
        <pt x="627" y="521" on="1"/>
        <pt x="722" y="521" on="0"/>
        <pt x="782" y="463" on="1"/>
        <pt x="841" y="405" on="0"/>
        <pt x="841" y="305" on="1"/>
        <pt x="841" y="234" on="1"/>
        <pt x="484" y="234" on="1"/>
        <pt x="487" y="116" on="0"/>
        <pt x="563" y="78" on="1"/>
        <pt x="589" y="65" on="0"/>
        <pt x="629" y="65" on="1"/>
        <pt x="668" y="65" on="0"/>
        <pt x="718" y="95" on="0"/>
        <pt x="731" y="115" on="1"/>
        <pt x="752" y="147" on="0"/>
        <pt x="752" y="190" on="1"/>
        <pt x="841" y="190" on="1"/>
        <pt x="841" y="99" on="0"/>
        <pt x="780" y="44" on="1"/>
        <pt x="721" y="-10" on="0"/>
        <pt x="627" y="-10" on="1"/>
        <pt x="623" y="-10" on="1"/>
        <pt x="556" y="-10" on="0"/>
        <pt x="453" y="47" on="0"/>
        <pt x="423" y="101" on="1"/>
        <pt x="389" y="47" on="0"/>
        <pt x="275" y="-10" on="0"/>
        <pt x="215" y="-10" on="1"/>
        <pt x="99" y="-10" on="0"/>
        <pt x="62" y="62" on="1"/>
        <pt x="48" y="91" on="0"/>
        <pt x="48" y="142" on="1"/>
        <pt x="48" y="193" on="0"/>
        <pt x="98" y="260" on="0"/>
        <pt x="143" y="278" on="1"/>
        <pt x="215" y="307" on="0"/>
        <pt x="390" y="307" on="1"/>
        <pt x="390" y="354" on="1"/>
        <pt x="390" y="393" on="0"/>
        <pt x="376" y="410" on="1"/>
        <pt x="345" y="446" on="0"/>
        <pt x="273" y="446" on="1"/>
        <pt x="203" y="446" on="0"/>
        <pt x="175" y="412" on="1"/>
        <pt x="159" y="392" on="0"/>
        <pt x="159" y="366" on="1"/>
        <pt x="159" y="354" on="1"/>
        <pt x="67" y="354" on="1"/>
        <pt x="65" y="364" on="0"/>
        <pt x="65" y="387" on="1"/>
        <pt x="65" y="409" on="0"/>
        <pt x="97" y="463" on="0"/>
        <pt x="125" y="482" on="1"/>
        <pt x="185" y="521" on="0"/>
        <pt x="275" y="521" on="1"/>
        <pt x="284" y="521" on="1"/>
        <pt x="410" y="521" on="0"/>
      </contour>
      <contour>
        <pt x="390" y="234" on="1"/>
        <pt x="262" y="234" on="0"/>
        <pt x="176" y="207" on="0"/>
        <pt x="142" y="170" on="0"/>
        <pt x="142" y="134" on="1"/>
        <pt x="142" y="65" on="0"/>
        <pt x="247" y="65" on="1"/>
        <pt x="303" y="65" on="0"/>
        <pt x="346" y="104" on="1"/>
        <pt x="390" y="145" on="0"/>
        <pt x="390" y="214" on="1"/>
      </contour>
      <contour>
        <pt x="622" y="446" on="1"/>
        <pt x="566" y="446" on="0"/>
        <pt x="494" y="377" on="0"/>
        <pt x="486" y="307" on="1"/>
        <pt x="748" y="307" on="1"/>
        <pt x="748" y="319" on="1"/>
        <pt x="748" y="379" on="0"/>
        <pt x="711" y="414" on="1"/>
        <pt x="677" y="446" on="0"/>
      </contour>
    </TTGlyph>
    <TTGlyph name="agrave" xMin="48" yMin="-10" xMax="558" yMax="720">
      <contour>
        <pt x="390" y="234" on="1"/>
        <pt x="262" y="234" on="0"/>
        <pt x="176" y="207" on="0"/>
        <pt x="142" y="170" on="0"/>
        <pt x="142" y="134" on="1"/>
        <pt x="142" y="65" on="0"/>
        <pt x="247" y="65" on="1"/>
        <pt x="303" y="65" on="0"/>
        <pt x="346" y="104" on="1"/>
        <pt x="390" y="145" on="0"/>
        <pt x="390" y="214" on="1"/>
      </contour>
      <contour>
        <pt x="394" y="82" on="1"/>
        <pt x="333" y="-10" on="0"/>
        <pt x="215" y="-10" on="1"/>
        <pt x="99" y="-10" on="0"/>
        <pt x="62" y="62" on="1"/>
        <pt x="48" y="91" on="0"/>
        <pt x="48" y="142" on="1"/>
        <pt x="48" y="193" on="0"/>
        <pt x="98" y="260" on="0"/>
        <pt x="143" y="278" on="1"/>
        <pt x="215" y="307" on="0"/>
        <pt x="390" y="307" on="1"/>
        <pt x="390" y="354" on="1"/>
        <pt x="390" y="393" on="0"/>
        <pt x="376" y="410" on="1"/>
        <pt x="345" y="446" on="0"/>
        <pt x="273" y="446" on="1"/>
        <pt x="203" y="446" on="0"/>
        <pt x="175" y="412" on="1"/>
        <pt x="159" y="392" on="0"/>
        <pt x="159" y="366" on="1"/>
        <pt x="159" y="354" on="1"/>
        <pt x="67" y="354" on="1"/>
        <pt x="65" y="364" on="0"/>
        <pt x="65" y="387" on="1"/>
        <pt x="65" y="409" on="0"/>
        <pt x="97" y="463" on="0"/>
        <pt x="125" y="482" on="1"/>
        <pt x="185" y="521" on="0"/>
        <pt x="275" y="521" on="1"/>
        <pt x="284" y="521" on="1"/>
        <pt x="386" y="521" on="0"/>
        <pt x="484" y="440" on="0"/>
        <pt x="484" y="365" on="1"/>
        <pt x="484" y="100" on="1"/>
        <pt x="484" y="81" on="0"/>
        <pt x="501" y="65" on="0"/>
        <pt x="512" y="65" on="1"/>
        <pt x="536" y="65" on="0"/>
        <pt x="558" y="79" on="1"/>
        <pt x="558" y="10" on="1"/>
        <pt x="525" y="-10" on="0"/>
        <pt x="481" y="-10" on="1"/>
        <pt x="436" y="-10" on="0"/>
        <pt x="396" y="42" on="0"/>
      </contour>
      <contour>
        <pt x="244" y="575" on="1"/>
        <pt x="129" y="717" on="1"/>
        <pt x="130" y="720" on="1"/>
        <pt x="219" y="720" on="1"/>
        <pt x="314" y="575" on="1"/>
      </contour>
    </TTGlyph>
    <TTGlyph name="ampersand" xMin="58" yMin="0" xMax="633" yMax="696">
      <contour>
        <pt x="172" y="672" on="0"/>
        <pt x="254" y="696" on="0"/>
        <pt x="291" y="696" on="1"/>
        <pt x="328" y="696" on="0"/>
        <pt x="361" y="689" on="1"/>
        <pt x="361" y="598" on="1"/>
        <pt x="332" y="607" on="0"/>
        <pt x="305" y="607" on="1"/>
        <pt x="277" y="607" on="0"/>
        <pt x="228" y="594" on="0"/>
        <pt x="210" y="582" on="1"/>
        <pt x="171" y="554" on="0"/>
        <pt x="171" y="503" on="1"/>
        <pt x="171" y="458" on="0"/>
        <pt x="208" y="426" on="1"/>
        <pt x="247" y="395" on="0"/>
        <pt x="306" y="395" on="1"/>
        <pt x="429" y="395" on="1"/>
        <pt x="457" y="538" on="1"/>
        <pt x="525" y="538" on="1"/>
        <pt x="525" y="395" on="1"/>
        <pt x="633" y="395" on="1"/>
        <pt x="633" y="306" on="1"/>
        <pt x="525" y="306" on="1"/>
        <pt x="525" y="0" on="1"/>
        <pt x="300" y="0" on="1"/>
        <pt x="197" y="0" on="0"/>
        <pt x="130" y="46" on="1"/>
        <pt x="58" y="97" on="0"/>
        <pt x="58" y="193" on="1"/>
        <pt x="58" y="316" on="0"/>
        <pt x="184" y="354" on="1"/>
        <pt x="187" y="356" on="1"/>
        <pt x="139" y="377" on="0"/>
        <pt x="74" y="448" on="0"/>
        <pt x="74" y="501" on="1"/>
        <pt x="74" y="554" on="0"/>
        <pt x="111" y="624" on="0"/>
      </contour>
      <contour>
        <pt x="313" y="306" on="1"/>
        <pt x="238" y="306" on="0"/>
        <pt x="156" y="252" on="0"/>
        <pt x="156" y="198" on="1"/>
        <pt x="156" y="142" on="0"/>
        <pt x="202" y="114" on="1"/>
        <pt x="244" y="89" on="0"/>
        <pt x="314" y="89" on="1"/>
        <pt x="427" y="89" on="1"/>
        <pt x="427" y="306" on="1"/>
      </contour>
    </TTGlyph>
    <TTGlyph name="approxequal" xMin="25" yMin="61" xMax="589" yMax="445">
      <contour>
        <pt x="589" y="360" on="1"/>
        <pt x="551" y="318" on="0"/>
        <pt x="491" y="294" on="1"/>
        <pt x="461" y="282" on="0"/>
        <pt x="428" y="282" on="1"/>
        <pt x="394" y="282" on="0"/>
        <pt x="337" y="303" on="0"/>
        <pt x="280" y="327" on="0"/>
        <pt x="221" y="348" on="0"/>
        <pt x="186" y="348" on="1"/>
        <pt x="132" y="348" on="0"/>
        <pt x="71" y="309" on="1"/>
        <pt x="45" y="291" on="0"/>
        <pt x="25" y="270" on="1"/>
        <pt x="25" y="355" on="1"/>
        <pt x="45" y="376" on="0"/>
        <pt x="69" y="392" on="1"/>
        <pt x="130" y="433" on="0"/>
        <pt x="188" y="433" on="1"/>
        <pt x="220" y="433" on="0"/>
        <pt x="277" y="412" on="0"/>
        <pt x="334" y="388" on="0"/>
        <pt x="393" y="367" on="0"/>
        <pt x="427" y="367" on="1"/>
        <pt x="486" y="367" on="0"/>
        <pt x="543" y="406" on="1"/>
        <pt x="569" y="423" on="0"/>
        <pt x="589" y="445" on="1"/>
      </contour>
      <contour>
        <pt x="589" y="151" on="1"/>
        <pt x="551" y="109" on="0"/>
        <pt x="491" y="85" on="1"/>
        <pt x="461" y="73" on="0"/>
        <pt x="428" y="73" on="1"/>
        <pt x="394" y="73" on="0"/>
        <pt x="337" y="94" on="0"/>
        <pt x="280" y="118" on="0"/>
        <pt x="221" y="139" on="0"/>
        <pt x="186" y="139" on="1"/>
        <pt x="132" y="139" on="0"/>
        <pt x="71" y="100" on="1"/>
        <pt x="45" y="82" on="0"/>
        <pt x="25" y="61" on="1"/>
        <pt x="25" y="146" on="1"/>
        <pt x="45" y="167" on="0"/>
        <pt x="69" y="183" on="1"/>
        <pt x="130" y="224" on="0"/>
        <pt x="188" y="224" on="1"/>
        <pt x="220" y="224" on="0"/>
        <pt x="277" y="203" on="0"/>
        <pt x="334" y="179" on="0"/>
        <pt x="393" y="158" on="0"/>
        <pt x="427" y="158" on="1"/>
        <pt x="486" y="158" on="0"/>
        <pt x="543" y="197" on="1"/>
        <pt x="569" y="214" on="0"/>
        <pt x="589" y="236" on="1"/>
      </contour>
    </TTGlyph>
    <TTGlyph name="aring" xMin="48" yMin="-10" xMax="558" yMax="757">
      <contour>
        <pt x="390" y="234" on="1"/>
        <pt x="262" y="234" on="0"/>
        <pt x="176" y="207" on="0"/>
        <pt x="142" y="170" on="0"/>
        <pt x="142" y="134" on="1"/>
        <pt x="142" y="65" on="0"/>
        <pt x="247" y="65" on="1"/>
        <pt x="303" y="65" on="0"/>
        <pt x="346" y="104" on="1"/>
        <pt x="390" y="145" on="0"/>
        <pt x="390" y="214" on="1"/>
      </contour>
      <contour>
        <pt x="394" y="82" on="1"/>
        <pt x="333" y="-10" on="0"/>
        <pt x="215" y="-10" on="1"/>
        <pt x="99" y="-10" on="0"/>
        <pt x="62" y="62" on="1"/>
        <pt x="48" y="91" on="0"/>
        <pt x="48" y="142" on="1"/>
        <pt x="48" y="193" on="0"/>
        <pt x="98" y="260" on="0"/>
        <pt x="143" y="278" on="1"/>
        <pt x="215" y="307" on="0"/>
        <pt x="390" y="307" on="1"/>
        <pt x="390" y="354" on="1"/>
        <pt x="390" y="393" on="0"/>
        <pt x="376" y="410" on="1"/>
        <pt x="345" y="446" on="0"/>
        <pt x="273" y="446" on="1"/>
        <pt x="203" y="446" on="0"/>
        <pt x="175" y="412" on="1"/>
        <pt x="159" y="392" on="0"/>
        <pt x="159" y="366" on="1"/>
        <pt x="159" y="354" on="1"/>
        <pt x="67" y="354" on="1"/>
        <pt x="65" y="364" on="0"/>
        <pt x="65" y="387" on="1"/>
        <pt x="65" y="409" on="0"/>
        <pt x="97" y="463" on="0"/>
        <pt x="125" y="482" on="1"/>
        <pt x="185" y="521" on="0"/>
        <pt x="275" y="521" on="1"/>
        <pt x="284" y="521" on="1"/>
        <pt x="386" y="521" on="0"/>
        <pt x="484" y="440" on="0"/>
        <pt x="484" y="365" on="1"/>
        <pt x="484" y="100" on="1"/>
        <pt x="484" y="81" on="0"/>
        <pt x="501" y="65" on="0"/>
        <pt x="512" y="65" on="1"/>
        <pt x="536" y="65" on="0"/>
        <pt x="558" y="79" on="1"/>
        <pt x="558" y="10" on="1"/>
        <pt x="525" y="-10" on="0"/>
        <pt x="481" y="-10" on="1"/>
        <pt x="436" y="-10" on="0"/>
        <pt x="396" y="42" on="0"/>
      </contour>
      <contour>
        <pt x="378" y="656" on="1"/>
        <pt x="378" y="615" on="0"/>
        <pt x="319" y="556" on="0"/>
        <pt x="277" y="556" on="1"/>
        <pt x="236" y="556" on="0"/>
        <pt x="206" y="584" on="1"/>
        <pt x="176" y="613" on="0"/>
        <pt x="176" y="656" on="1"/>
        <pt x="176" y="698" on="0"/>
        <pt x="235" y="757" on="0"/>
        <pt x="277" y="757" on="1"/>
        <pt x="317" y="757" on="0"/>
        <pt x="348" y="728" on="1"/>
        <pt x="378" y="699" on="0"/>
      </contour>
      <contour>
        <pt x="300" y="603" on="0"/>
        <pt x="333" y="634" on="0"/>
        <pt x="333" y="657" on="1"/>
        <pt x="333" y="679" on="0"/>
        <pt x="300" y="710" on="0"/>
        <pt x="277" y="710" on="1"/>
        <pt x="254" y="710" on="0"/>
        <pt x="221" y="679" on="0"/>
        <pt x="221" y="656" on="1"/>
        <pt x="221" y="633" on="0"/>
        <pt x="254" y="603" on="0"/>
        <pt x="277" y="603" on="1"/>
      </contour>
    </TTGlyph>
    <TTGlyph name="asciicircum" xMin="49" yMin="0" xMax="546" yMax="511">
      <contour>
        <pt x="298" y="421" on="1"/>
        <pt x="133" y="0" on="1"/>
        <pt x="49" y="0" on="1"/>
        <pt x="246" y="511" on="1"/>
        <pt x="349" y="511" on="1"/>
        <pt x="546" y="0" on="1"/>
        <pt x="462" y="0" on="1"/>
        <pt x="413" y="123" on="0"/>
      </contour>
    </TTGlyph>
    <TTGlyph name="asciitilde" xMin="64" yMin="211" xMax="628" yMax="386">
      <contour>
        <pt x="628" y="301" on="1"/>
        <pt x="590" y="259" on="0"/>
        <pt x="530" y="235" on="1"/>
        <pt x="500" y="223" on="0"/>
        <pt x="467" y="223" on="1"/>
        <pt x="433" y="223" on="0"/>
        <pt x="376" y="244" on="0"/>
        <pt x="319" y="268" on="0"/>
        <pt x="260" y="289" on="0"/>
        <pt x="226" y="289" on="1"/>
        <pt x="171" y="289" on="0"/>
        <pt x="110" y="250" on="1"/>
        <pt x="84" y="232" on="0"/>
        <pt x="64" y="211" on="1"/>
        <pt x="64" y="296" on="1"/>
        <pt x="84" y="317" on="0"/>
        <pt x="108" y="333" on="1"/>
        <pt x="170" y="374" on="0"/>
        <pt x="227" y="374" on="1"/>
        <pt x="259" y="374" on="0"/>
        <pt x="316" y="353" on="0"/>
        <pt x="373" y="329" on="0"/>
        <pt x="432" y="308" on="0"/>
        <pt x="466" y="308" on="1"/>
        <pt x="525" y="308" on="0"/>
        <pt x="582" y="347" on="1"/>
        <pt x="608" y="364" on="0"/>
        <pt x="628" y="386" on="1"/>
      </contour>
    </TTGlyph>
    <TTGlyph name="asterisk" xMin="29" yMin="294" xMax="440" yMax="686">
      <contour>
        <pt x="275" y="468" on="1"/>
        <pt x="384" y="343" on="1"/>
        <pt x="320" y="294" on="1"/>
        <pt x="232" y="438" on="1"/>
        <pt x="145" y="296" on="1"/>
        <pt x="81" y="344" on="1"/>
        <pt x="192" y="469" on="1"/>
        <pt x="29" y="509" on="1"/>
        <pt x="54" y="586" on="1"/>
        <pt x="209" y="520" on="1"/>
        <pt x="196" y="686" on="1"/>
        <pt x="275" y="686" on="1"/>
        <pt x="259" y="519" on="1"/>
        <pt x="417" y="584" on="1"/>
        <pt x="440" y="506" on="1"/>
      </contour>
    </TTGlyph>
    <TTGlyph name="at" xMin="38" yMin="-153" xMax="855" yMax="697">
      <contour>
        <pt x="562" y="251" on="1"/>
        <pt x="444" y="251" on="0"/>
        <pt x="361" y="225" on="0"/>
        <pt x="329" y="191" on="0"/>
        <pt x="329" y="158" on="1"/>
        <pt x="329" y="92" on="0"/>
        <pt x="428" y="92" on="1"/>
        <pt x="482" y="92" on="0"/>
        <pt x="520" y="129" on="1"/>
        <pt x="562" y="169" on="0"/>
        <pt x="562" y="233" on="1"/>
      </contour>
      <contour>
        <pt x="259" y="364" on="1"/>
        <pt x="257" y="374" on="0"/>
        <pt x="257" y="395" on="1"/>
        <pt x="257" y="416" on="0"/>
        <pt x="287" y="466" on="0"/>
        <pt x="313" y="484" on="1"/>
        <pt x="366" y="521" on="0"/>
        <pt x="454" y="521" on="1"/>
        <pt x="463" y="521" on="1"/>
        <pt x="559" y="521" on="0"/>
        <pt x="651" y="444" on="0"/>
        <pt x="651" y="374" on="1"/>
        <pt x="651" y="129" on="1"/>
        <pt x="651" y="91" on="0"/>
        <pt x="688" y="91" on="1"/>
        <pt x="761" y="91" on="0"/>
        <pt x="786" y="208" on="1"/>
        <pt x="796" y="253" on="0"/>
        <pt x="796" y="330" on="1"/>
        <pt x="796" y="406" on="0"/>
        <pt x="746" y="528" on="0"/>
        <pt x="702" y="567" on="1"/>
        <pt x="616" y="642" on="0"/>
        <pt x="458" y="642" on="1"/>
        <pt x="288" y="642" on="0"/>
        <pt x="194" y="548" on="1"/>
        <pt x="97" y="451" on="0"/>
        <pt x="97" y="266" on="1"/>
        <pt x="97" y="81" on="0"/>
        <pt x="256" y="-98" on="0"/>
        <pt x="424" y="-98" on="1"/>
        <pt x="480" y="-98" on="0"/>
        <pt x="575" y="-73" on="0"/>
        <pt x="589" y="-66" on="1"/>
        <pt x="589" y="-126" on="1"/>
        <pt x="542" y="-144" on="0"/>
        <pt x="440" y="-153" on="0"/>
        <pt x="424" y="-153" on="1"/>
        <pt x="144" y="-153" on="0"/>
        <pt x="65" y="76" on="1"/>
        <pt x="38" y="154" on="0"/>
        <pt x="38" y="268" on="1"/>
        <pt x="38" y="381" on="0"/>
        <pt x="106" y="547" on="0"/>
        <pt x="164" y="598" on="1"/>
        <pt x="273" y="697" on="0"/>
        <pt x="459" y="697" on="1"/>
        <pt x="739" y="697" on="0"/>
        <pt x="825" y="492" on="1"/>
        <pt x="855" y="420" on="0"/>
        <pt x="855" y="328" on="1"/>
        <pt x="855" y="235" on="0"/>
        <pt x="819" y="121" on="0"/>
        <pt x="792" y="86" on="1"/>
        <pt x="740" y="22" on="0"/>
        <pt x="668" y="22" on="1"/>
        <pt x="592" y="22" on="0"/>
        <pt x="574" y="74" on="1"/>
        <pt x="569" y="90" on="0"/>
        <pt x="567" y="109" on="1"/>
        <pt x="564" y="106" on="1"/>
        <pt x="509" y="22" on="0"/>
        <pt x="398" y="22" on="1"/>
        <pt x="289" y="22" on="0"/>
        <pt x="254" y="90" on="1"/>
        <pt x="241" y="116" on="0"/>
        <pt x="241" y="164" on="1"/>
        <pt x="241" y="212" on="0"/>
        <pt x="288" y="276" on="0"/>
        <pt x="330" y="293" on="1"/>
        <pt x="398" y="320" on="0"/>
        <pt x="562" y="320" on="1"/>
        <pt x="562" y="364" on="1"/>
        <pt x="562" y="401" on="0"/>
        <pt x="548" y="417" on="1"/>
        <pt x="520" y="451" on="0"/>
        <pt x="452" y="451" on="1"/>
        <pt x="387" y="451" on="0"/>
        <pt x="360" y="418" on="1"/>
        <pt x="345" y="399" on="0"/>
        <pt x="345" y="375" on="1"/>
        <pt x="345" y="364" on="1"/>
      </contour>
    </TTGlyph>
    <TTGlyph name="atilde" xMin="48" yMin="-10" xMax="558" yMax="720">
      <contour>
        <pt x="390" y="234" on="1"/>
        <pt x="262" y="234" on="0"/>
        <pt x="176" y="207" on="0"/>
        <pt x="142" y="170" on="0"/>
        <pt x="142" y="134" on="1"/>
        <pt x="142" y="65" on="0"/>
        <pt x="247" y="65" on="1"/>
        <pt x="303" y="65" on="0"/>
        <pt x="346" y="104" on="1"/>
        <pt x="390" y="145" on="0"/>
        <pt x="390" y="214" on="1"/>
      </contour>
      <contour>
        <pt x="394" y="82" on="1"/>
        <pt x="333" y="-10" on="0"/>
        <pt x="215" y="-10" on="1"/>
        <pt x="99" y="-10" on="0"/>
        <pt x="62" y="62" on="1"/>
        <pt x="48" y="91" on="0"/>
        <pt x="48" y="142" on="1"/>
        <pt x="48" y="193" on="0"/>
        <pt x="98" y="260" on="0"/>
        <pt x="143" y="278" on="1"/>
        <pt x="215" y="307" on="0"/>
        <pt x="390" y="307" on="1"/>
        <pt x="390" y="354" on="1"/>
        <pt x="390" y="393" on="0"/>
        <pt x="376" y="410" on="1"/>
        <pt x="345" y="446" on="0"/>
        <pt x="273" y="446" on="1"/>
        <pt x="203" y="446" on="0"/>
        <pt x="175" y="412" on="1"/>
        <pt x="159" y="392" on="0"/>
        <pt x="159" y="366" on="1"/>
        <pt x="159" y="354" on="1"/>
        <pt x="67" y="354" on="1"/>
        <pt x="65" y="364" on="0"/>
        <pt x="65" y="387" on="1"/>
        <pt x="65" y="409" on="0"/>
        <pt x="97" y="463" on="0"/>
        <pt x="125" y="482" on="1"/>
        <pt x="185" y="521" on="0"/>
        <pt x="275" y="521" on="1"/>
        <pt x="284" y="521" on="1"/>
        <pt x="386" y="521" on="0"/>
        <pt x="484" y="440" on="0"/>
        <pt x="484" y="365" on="1"/>
        <pt x="484" y="100" on="1"/>
        <pt x="484" y="81" on="0"/>
        <pt x="501" y="65" on="0"/>
        <pt x="512" y="65" on="1"/>
        <pt x="536" y="65" on="0"/>
        <pt x="558" y="79" on="1"/>
        <pt x="558" y="10" on="1"/>
        <pt x="525" y="-10" on="0"/>
        <pt x="481" y="-10" on="1"/>
        <pt x="436" y="-10" on="0"/>
        <pt x="396" y="42" on="0"/>
      </contour>
      <contour>
        <pt x="471" y="720" on="1"/>
        <pt x="471" y="679" on="0"/>
        <pt x="444" y="650" on="1"/>
        <pt x="414" y="616" on="0"/>
        <pt x="359" y="616" on="1"/>
        <pt x="329" y="616" on="0"/>
        <pt x="250" y="639" on="0"/>
        <pt x="210" y="650" on="0"/>
        <pt x="190" y="650" on="1"/>
        <pt x="145" y="650" on="0"/>
        <pt x="135" y="616" on="1"/>
        <pt x="85" y="616" on="1"/>
        <pt x="85" y="681" on="0"/>
        <pt x="148" y="710" on="1"/>
        <pt x="169" y="720" on="0"/>
        <pt x="196" y="720" on="1"/>
        <pt x="222" y="720" on="0"/>
        <pt x="265" y="709" on="0"/>
        <pt x="286" y="702" on="1"/>
        <pt x="341" y="685" on="0"/>
        <pt x="366" y="685" on="1"/>
        <pt x="410" y="685" on="0"/>
        <pt x="421" y="720" on="1"/>
      </contour>
    </TTGlyph>
    <TTGlyph name="b" xMin="83" yMin="-10" xMax="531" yMax="720">
      <contour>
        <pt x="152" y="81" on="1"/>
        <pt x="119" y="0" on="1"/>
        <pt x="83" y="0" on="1"/>
        <pt x="83" y="720" on="1"/>
        <pt x="177" y="720" on="1"/>
        <pt x="177" y="446" on="1"/>
        <pt x="199" y="477" on="0"/>
        <pt x="277" y="521" on="0"/>
        <pt x="325" y="521" on="1"/>
        <pt x="373" y="521" on="0"/>
        <pt x="446" y="489" on="0"/>
        <pt x="473" y="457" on="1"/>
        <pt x="531" y="388" on="0"/>
        <pt x="531" y="267" on="1"/>
        <pt x="531" y="256" on="1"/>
        <pt x="531" y="124" on="0"/>
        <pt x="470" y="54" on="1"/>
        <pt x="415" y="-10" on="0"/>
        <pt x="324" y="-10" on="1"/>
        <pt x="210" y="-10" on="0"/>
      </contour>
      <contour>
        <pt x="176" y="255" on="1"/>
        <pt x="176" y="105" on="0"/>
        <pt x="253" y="74" on="1"/>
        <pt x="277" y="65" on="0"/>
        <pt x="306" y="65" on="1"/>
        <pt x="437" y="65" on="0"/>
        <pt x="437" y="255" on="1"/>
        <pt x="437" y="406" on="0"/>
        <pt x="359" y="436" on="1"/>
        <pt x="335" y="446" on="0"/>
        <pt x="306" y="446" on="1"/>
        <pt x="244" y="446" on="0"/>
        <pt x="212" y="405" on="1"/>
        <pt x="176" y="358" on="0"/>
      </contour>
    </TTGlyph>
    <TTGlyph name="backslash" xMin="15" yMin="-171" xMax="585" yMax="686">
      <contour>
        <pt x="15" y="686" on="1"/>
        <pt x="95" y="686" on="1"/>
        <pt x="585" y="-171" on="1"/>
        <pt x="504" y="-171" on="1"/>
      </contour>
    </TTGlyph>
    <TTGlyph name="bar" xMin="84" yMin="-199" xMax="164" yMax="721">
      <contour>
        <pt x="84" y="-199" on="1"/>
        <pt x="84" y="721" on="1"/>
        <pt x="164" y="721" on="1"/>
        <pt x="164" y="-199" on="1"/>
      </contour>
    </TTGlyph>
    <TTGlyph name="braceleft" xMin="40" yMin="-159" xMax="275" yMax="686">
      <contour>
        <pt x="40" y="303" on="1"/>
        <pt x="91" y="303" on="0"/>
        <pt x="110" y="333" on="1"/>
        <pt x="117" y="344" on="0"/>
        <pt x="117" y="360" on="1"/>
        <pt x="117" y="546" on="1"/>
        <pt x="117" y="664" on="0"/>
        <pt x="216" y="681" on="1"/>
        <pt x="244" y="686" on="0"/>
        <pt x="275" y="686" on="1"/>
        <pt x="275" y="636" on="1"/>
        <pt x="241" y="636" on="0"/>
        <pt x="226" y="625" on="1"/>
        <pt x="196" y="603" on="0"/>
        <pt x="196" y="560" on="1"/>
        <pt x="196" y="516" on="0"/>
        <pt x="191" y="420" on="0"/>
        <pt x="189" y="371" on="1"/>
        <pt x="187" y="322" on="0"/>
        <pt x="149" y="268" on="0"/>
        <pt x="100" y="268" on="1"/>
        <pt x="100" y="259" on="1"/>
        <pt x="149" y="259" on="0"/>
        <pt x="187" y="205" on="0"/>
        <pt x="189" y="156" on="1"/>
        <pt x="191" y="107" on="0"/>
        <pt x="196" y="11" on="0"/>
        <pt x="196" y="-24" on="1"/>
        <pt x="196" y="-60" on="0"/>
        <pt x="211" y="-87" on="0"/>
        <pt x="222" y="-95" on="1"/>
        <pt x="241" y="-109" on="0"/>
        <pt x="275" y="-109" on="1"/>
        <pt x="275" y="-159" on="1"/>
        <pt x="202" y="-159" on="0"/>
        <pt x="165" y="-134" on="1"/>
        <pt x="117" y="-101" on="0"/>
        <pt x="117" y="-19" on="1"/>
        <pt x="117" y="167" on="1"/>
        <pt x="117" y="195" on="0"/>
        <pt x="92" y="211" on="1"/>
        <pt x="72" y="224" on="0"/>
        <pt x="40" y="224" on="1"/>
      </contour>
    </TTGlyph>
    <TTGlyph name="braceright" xMin="40" yMin="-159" xMax="275" yMax="686">
      <contour>
        <pt x="275" y="224" on="1"/>
        <pt x="225" y="224" on="0"/>
        <pt x="205" y="194" on="1"/>
        <pt x="198" y="183" on="0"/>
        <pt x="198" y="167" on="1"/>
        <pt x="198" y="-19" on="1"/>
        <pt x="198" y="-137" on="0"/>
        <pt x="100" y="-154" on="1"/>
        <pt x="71" y="-159" on="0"/>
        <pt x="40" y="-159" on="1"/>
        <pt x="40" y="-109" on="1"/>
        <pt x="74" y="-109" on="0"/>
        <pt x="89" y="-98" on="1"/>
        <pt x="119" y="-76" on="0"/>
        <pt x="119" y="-32" on="1"/>
        <pt x="119" y="11" on="0"/>
        <pt x="124" y="107" on="0"/>
        <pt x="126" y="156" on="1"/>
        <pt x="128" y="205" on="0"/>
        <pt x="166" y="259" on="0"/>
        <pt x="215" y="259" on="1"/>
        <pt x="215" y="268" on="1"/>
        <pt x="166" y="268" on="0"/>
        <pt x="128" y="322" on="0"/>
        <pt x="126" y="371" on="1"/>
        <pt x="124" y="420" on="0"/>
        <pt x="119" y="516" on="0"/>
        <pt x="119" y="552" on="1"/>
        <pt x="119" y="587" on="0"/>
        <pt x="104" y="614" on="0"/>
        <pt x="93" y="622" on="1"/>
        <pt x="74" y="636" on="0"/>
        <pt x="40" y="636" on="1"/>
        <pt x="40" y="686" on="1"/>
        <pt x="113" y="686" on="0"/>
        <pt x="150" y="661" on="1"/>
        <pt x="198" y="628" on="0"/>
        <pt x="198" y="546" on="1"/>
        <pt x="198" y="360" on="1"/>
        <pt x="198" y="317" on="0"/>
        <pt x="248" y="306" on="1"/>
        <pt x="261" y="303" on="0"/>
        <pt x="275" y="303" on="1"/>
      </contour>
    </TTGlyph>
    <TTGlyph name="bracketleft" xMin="85" yMin="-161" xMax="254" yMax="686">
      <contour>
        <pt x="85" y="-161" on="1"/>
        <pt x="85" y="686" on="1"/>
        <pt x="254" y="686" on="1"/>
        <pt x="254" y="631" on="1"/>
        <pt x="166" y="631" on="1"/>
        <pt x="166" y="-106" on="1"/>
        <pt x="254" y="-106" on="1"/>
        <pt x="254" y="-161" on="1"/>
      </contour>
    </TTGlyph>
    <TTGlyph name="bracketright" xMin="39" yMin="-161" xMax="208" yMax="686">
      <contour>
        <pt x="39" y="-161" on="1"/>
        <pt x="39" y="-106" on="1"/>
        <pt x="127" y="-106" on="1"/>
        <pt x="127" y="631" on="1"/>
        <pt x="39" y="631" on="1"/>
        <pt x="39" y="686" on="1"/>
        <pt x="208" y="686" on="1"/>
        <pt x="208" y="-161" on="1"/>
      </contour>
    </TTGlyph>
    <TTGlyph name="breve" xMin="68" yMin="613" xMax="453" yMax="737">
      <contour>
        <pt x="260" y="613" on="1"/>
        <pt x="183" y="613" on="0"/>
        <pt x="124" y="654" on="1"/>
        <pt x="68" y="693" on="0"/>
        <pt x="68" y="737" on="1"/>
        <pt x="135" y="737" on="1"/>
        <pt x="143" y="710" on="0"/>
        <pt x="213" y="675" on="0"/>
        <pt x="260" y="675" on="1"/>
        <pt x="306" y="675" on="0"/>
        <pt x="377" y="710" on="0"/>
        <pt x="385" y="737" on="1"/>
        <pt x="453" y="737" on="1"/>
        <pt x="453" y="692" on="0"/>
        <pt x="396" y="654" on="1"/>
        <pt x="336" y="613" on="0"/>
      </contour>
    </TTGlyph>
    <TTGlyph name="brokenbar" xMin="90" yMin="0" xMax="179" yMax="686">
      <contour>
        <pt x="90" y="266" on="1"/>
        <pt x="179" y="266" on="1"/>
        <pt x="179" y="0" on="1"/>
        <pt x="90" y="0" on="1"/>
      </contour>
      <contour>
        <pt x="90" y="686" on="1"/>
        <pt x="179" y="686" on="1"/>
        <pt x="179" y="419" on="1"/>
        <pt x="90" y="419" on="1"/>
      </contour>
    </TTGlyph>
    <TTGlyph name="bullet" xMin="150" yMin="191" xMax="450" yMax="496">
      <contour>
        <pt x="450" y="344" on="1"/>
        <pt x="450" y="312" on="0"/>
        <pt x="426" y="257" on="0"/>
        <pt x="406" y="236" on="1"/>
        <pt x="362" y="191" on="0"/>
        <pt x="299" y="191" on="1"/>
        <pt x="237" y="191" on="0"/>
        <pt x="194" y="236" on="1"/>
        <pt x="150" y="281" on="0"/>
        <pt x="150" y="344" on="1"/>
        <pt x="150" y="408" on="0"/>
        <pt x="194" y="452" on="1"/>
        <pt x="238" y="496" on="0"/>
        <pt x="299" y="496" on="1"/>
        <pt x="361" y="496" on="0"/>
        <pt x="450" y="407" on="0"/>
      </contour>
    </TTGlyph>
    <TTGlyph name="c" xMin="51" yMin="-10" xMax="495" yMax="521">
      <contour>
        <pt x="495" y="200" on="1"/>
        <pt x="495" y="101" on="0"/>
        <pt x="435" y="44" on="1"/>
        <pt x="377" y="-10" on="0"/>
        <pt x="284" y="-10" on="1"/>
        <pt x="276" y="-10" on="1"/>
        <pt x="175" y="-10" on="0"/>
        <pt x="115" y="56" on="1"/>
        <pt x="51" y="125" on="0"/>
        <pt x="51" y="243" on="1"/>
        <pt x="51" y="267" on="1"/>
        <pt x="51" y="385" on="0"/>
        <pt x="115" y="454" on="1"/>
        <pt x="176" y="521" on="0"/>
        <pt x="275" y="521" on="1"/>
        <pt x="283" y="521" on="1"/>
        <pt x="376" y="521" on="0"/>
        <pt x="495" y="406" on="0"/>
        <pt x="495" y="310" on="1"/>
        <pt x="402" y="310" on="1"/>
        <pt x="402" y="404" on="0"/>
        <pt x="332" y="436" on="1"/>
        <pt x="309" y="446" on="0"/>
        <pt x="280" y="446" on="1"/>
        <pt x="250" y="446" on="0"/>
        <pt x="201" y="426" on="0"/>
        <pt x="183" y="406" on="1"/>
        <pt x="145" y="365" on="0"/>
        <pt x="145" y="291" on="1"/>
        <pt x="145" y="237" on="1"/>
        <pt x="145" y="148" on="0"/>
        <pt x="219" y="65" on="0"/>
        <pt x="283" y="65" on="1"/>
        <pt x="346" y="65" on="0"/>
        <pt x="405" y="141" on="0"/>
        <pt x="405" y="200" on="1"/>
      </contour>
    </TTGlyph>
    <TTGlyph name="caron" xMin="92" yMin="575" xMax="441" yMax="720">
      <contour>
        <pt x="92" y="720" on="1"/>
        <pt x="172" y="720" on="1"/>
        <pt x="267" y="631" on="1"/>
        <pt x="361" y="720" on="1"/>
        <pt x="441" y="720" on="1"/>
        <pt x="306" y="575" on="1"/>
        <pt x="228" y="575" on="1"/>
      </contour>
    </TTGlyph>
    <TTGlyph name="ccedilla" xMin="51" yMin="-197" xMax="495" yMax="521">
      <contour>
        <pt x="495" y="200" on="1"/>
        <pt x="495" y="101" on="0"/>
        <pt x="435" y="44" on="1"/>
        <pt x="377" y="-10" on="0"/>
        <pt x="284" y="-10" on="1"/>
        <pt x="276" y="-10" on="1"/>
        <pt x="175" y="-10" on="0"/>
        <pt x="115" y="56" on="1"/>
        <pt x="51" y="125" on="0"/>
        <pt x="51" y="243" on="1"/>
        <pt x="51" y="267" on="1"/>
        <pt x="51" y="385" on="0"/>
        <pt x="115" y="454" on="1"/>
        <pt x="176" y="521" on="0"/>
        <pt x="275" y="521" on="1"/>
        <pt x="283" y="521" on="1"/>
        <pt x="376" y="521" on="0"/>
        <pt x="495" y="406" on="0"/>
        <pt x="495" y="310" on="1"/>
        <pt x="402" y="310" on="1"/>
        <pt x="402" y="404" on="0"/>
        <pt x="332" y="436" on="1"/>
        <pt x="309" y="446" on="0"/>
        <pt x="280" y="446" on="1"/>
        <pt x="250" y="446" on="0"/>
        <pt x="201" y="426" on="0"/>
        <pt x="183" y="406" on="1"/>
        <pt x="145" y="365" on="0"/>
        <pt x="145" y="291" on="1"/>
        <pt x="145" y="237" on="1"/>
        <pt x="145" y="148" on="0"/>
        <pt x="219" y="65" on="0"/>
        <pt x="283" y="65" on="1"/>
        <pt x="346" y="65" on="0"/>
        <pt x="405" y="141" on="0"/>
        <pt x="405" y="200" on="1"/>
      </contour>
      <contour>
        <pt x="278" y="-17" on="1"/>
        <pt x="389" y="-17" on="0"/>
        <pt x="389" y="-106" on="1"/>
        <pt x="389" y="-155" on="0"/>
        <pt x="348" y="-179" on="1"/>
        <pt x="317" y="-197" on="0"/>
        <pt x="284" y="-197" on="1"/>
        <pt x="219" y="-197" on="0"/>
        <pt x="179" y="-175" on="1"/>
        <pt x="188" y="-126" on="1"/>
        <pt x="228" y="-146" on="0"/>
        <pt x="260" y="-146" on="1"/>
        <pt x="327" y="-146" on="0"/>
        <pt x="327" y="-101" on="1"/>
        <pt x="327" y="-81" on="0"/>
        <pt x="296" y="-60" on="0"/>
        <pt x="275" y="-60" on="1"/>
        <pt x="254" y="-60" on="1"/>
        <pt x="254" y="-17" on="1"/>
      </contour>
    </TTGlyph>
    <TTGlyph name="cedilla" xMin="70" yMin="-197" xMax="280" yMax="-17">
      <contour>
        <pt x="169" y="-17" on="1"/>
        <pt x="280" y="-17" on="0"/>
        <pt x="280" y="-106" on="1"/>
        <pt x="280" y="-155" on="0"/>
        <pt x="239" y="-179" on="1"/>
        <pt x="208" y="-197" on="0"/>
        <pt x="175" y="-197" on="1"/>
        <pt x="110" y="-197" on="0"/>
        <pt x="70" y="-175" on="1"/>
        <pt x="79" y="-126" on="1"/>
        <pt x="119" y="-146" on="0"/>
        <pt x="152" y="-146" on="1"/>
        <pt x="218" y="-146" on="0"/>
        <pt x="218" y="-101" on="1"/>
        <pt x="218" y="-81" on="0"/>
        <pt x="187" y="-60" on="0"/>
        <pt x="166" y="-60" on="1"/>
        <pt x="145" y="-60" on="1"/>
        <pt x="145" y="-17" on="1"/>
      </contour>
    </TTGlyph>
    <TTGlyph name="cent" xMin="48" yMin="-7" xMax="492" yMax="693">
      <contour>
        <pt x="492" y="288" on="1"/>
        <pt x="492" y="196" on="0"/>
        <pt x="439" y="140" on="1"/>
        <pt x="388" y="85" on="0"/>
        <pt x="303" y="79" on="1"/>
        <pt x="314" y="-7" on="1"/>
        <pt x="241" y="-7" on="1"/>
        <pt x="251" y="79" on="1"/>
        <pt x="161" y="85" on="0"/>
        <pt x="105" y="151" on="1"/>
        <pt x="48" y="219" on="0"/>
        <pt x="48" y="331" on="1"/>
        <pt x="48" y="355" on="1"/>
        <pt x="48" y="467" on="0"/>
        <pt x="105" y="536" on="1"/>
        <pt x="160" y="602" on="0"/>
        <pt x="251" y="608" on="1"/>
        <pt x="241" y="693" on="1"/>
        <pt x="314" y="693" on="1"/>
        <pt x="303" y="608" on="1"/>
        <pt x="435" y="595" on="0"/>
        <pt x="478" y="480" on="1"/>
        <pt x="492" y="443" on="0"/>
        <pt x="492" y="398" on="1"/>
        <pt x="399" y="398" on="1"/>
        <pt x="399" y="492" on="0"/>
        <pt x="330" y="524" on="1"/>
        <pt x="306" y="534" on="0"/>
        <pt x="277" y="534" on="1"/>
        <pt x="247" y="534" on="0"/>
        <pt x="198" y="514" on="0"/>
        <pt x="180" y="494" on="1"/>
        <pt x="142" y="453" on="0"/>
        <pt x="142" y="379" on="1"/>
        <pt x="142" y="325" on="1"/>
        <pt x="142" y="236" on="0"/>
        <pt x="216" y="153" on="0"/>
        <pt x="280" y="153" on="1"/>
        <pt x="343" y="153" on="0"/>
        <pt x="402" y="229" on="0"/>
        <pt x="402" y="288" on="1"/>
      </contour>
    </TTGlyph>
    <TTGlyph name="circumflex" xMin="92" yMin="575" xMax="441" yMax="720">
      <contour>
        <pt x="228" y="720" on="1"/>
        <pt x="306" y="720" on="1"/>
        <pt x="441" y="575" on="1"/>
        <pt x="361" y="575" on="1"/>
        <pt x="267" y="664" on="1"/>
        <pt x="172" y="575" on="1"/>
        <pt x="92" y="575" on="1"/>
      </contour>
    </TTGlyph>
    <TTGlyph name="colon" xMin="69" yMin="0" xMax="170" yMax="511">
      <contour>
        <pt x="69" y="111" on="1"/>
        <pt x="170" y="111" on="1"/>
        <pt x="170" y="0" on="1"/>
        <pt x="69" y="0" on="1"/>
      </contour>
      <contour>
        <pt x="69" y="511" on="1"/>
        <pt x="170" y="511" on="1"/>
        <pt x="170" y="399" on="1"/>
        <pt x="69" y="399" on="1"/>
      </contour>
    </TTGlyph>
    <TTGlyph name="comma" xMin="69" yMin="-124" xMax="170" yMax="111">
      <contour>
        <pt x="83" y="-124" on="1"/>
        <pt x="110" y="0" on="1"/>
        <pt x="69" y="0" on="1"/>
        <pt x="69" y="111" on="1"/>
        <pt x="170" y="111" on="1"/>
        <pt x="170" y="26" on="1"/>
        <pt x="135" y="-124" on="1"/>
      </contour>
    </TTGlyph>
    <TTGlyph name="copyright" xMin="36" yMin="-10" xMax="744" yMax="696">
      <contour>
        <pt x="491" y="401" on="1"/>
        <pt x="491" y="448" on="0"/>
        <pt x="460" y="475" on="1"/>
        <pt x="433" y="499" on="0"/>
        <pt x="393" y="499" on="1"/>
        <pt x="322" y="499" on="0"/>
        <pt x="296" y="444" on="1"/>
        <pt x="288" y="426" on="0"/>
        <pt x="288" y="401" on="1"/>
        <pt x="288" y="286" on="1"/>
        <pt x="288" y="236" on="0"/>
        <pt x="321" y="210" on="1"/>
        <pt x="350" y="187" on="0"/>
        <pt x="394" y="187" on="1"/>
        <pt x="437" y="187" on="0"/>
        <pt x="493" y="243" on="0"/>
        <pt x="493" y="296" on="1"/>
        <pt x="558" y="296" on="1"/>
        <pt x="558" y="214" on="0"/>
        <pt x="511" y="170" on="1"/>
        <pt x="466" y="129" on="0"/>
        <pt x="396" y="129" on="1"/>
        <pt x="391" y="129" on="1"/>
        <pt x="317" y="129" on="0"/>
        <pt x="271" y="171" on="1"/>
        <pt x="221" y="217" on="0"/>
        <pt x="221" y="300" on="1"/>
        <pt x="221" y="386" on="1"/>
        <pt x="221" y="468" on="0"/>
        <pt x="271" y="514" on="1"/>
        <pt x="317" y="556" on="0"/>
        <pt x="390" y="556" on="1"/>
        <pt x="395" y="556" on="1"/>
        <pt x="509" y="556" on="0"/>
        <pt x="546" y="463" on="1"/>
        <pt x="558" y="431" on="0"/>
        <pt x="558" y="388" on="1"/>
        <pt x="491" y="388" on="1"/>
      </contour>
      <contour>
        <pt x="688" y="545" on="0"/>
        <pt x="744" y="417" on="0"/>
        <pt x="744" y="344" on="1"/>
        <pt x="744" y="270" on="0"/>
        <pt x="688" y="141" on="0"/>
        <pt x="592" y="45" on="0"/>
        <pt x="463" y="-10" on="0"/>
        <pt x="390" y="-10" on="1"/>
        <pt x="316" y="-10" on="0"/>
        <pt x="187" y="45" on="0"/>
        <pt x="91" y="141" on="0"/>
        <pt x="36" y="270" on="0"/>
        <pt x="36" y="344" on="1"/>
        <pt x="36" y="417" on="0"/>
        <pt x="91" y="545" on="0"/>
        <pt x="187" y="641" on="0"/>
        <pt x="316" y="696" on="0"/>
        <pt x="390" y="696" on="1"/>
        <pt x="463" y="696" on="0"/>
        <pt x="592" y="641" on="0"/>
      </contour>
      <contour>
        <pt x="703" y="343" on="1"/>
        <pt x="703" y="410" on="0"/>
        <pt x="655" y="524" on="0"/>
        <pt x="612" y="566" on="1"/>
        <pt x="522" y="655" on="0"/>
        <pt x="390" y="655" on="1"/>
        <pt x="255" y="655" on="0"/>
        <pt x="166" y="566" on="1"/>
        <pt x="76" y="476" on="0"/>
        <pt x="76" y="344" on="1"/>
        <pt x="76" y="209" on="0"/>
        <pt x="166" y="119" on="1"/>
        <pt x="255" y="30" on="0"/>
        <pt x="390" y="30" on="1"/>
        <pt x="522" y="30" on="0"/>
        <pt x="612" y="119" on="1"/>
        <pt x="703" y="208" on="0"/>
      </contour>
    </TTGlyph>
    <TTGlyph name="currency" xMin="62" yMin="85" xMax="565" yMax="587">
      <contour>
        <pt x="115" y="186" on="1"/>
        <pt x="64" y="254" on="0"/>
        <pt x="64" y="336" on="1"/>
        <pt x="64" y="417" on="0"/>
        <pt x="114" y="487" on="1"/>
        <pt x="63" y="539" on="1"/>
        <pt x="111" y="587" on="1"/>
        <pt x="162" y="535" on="1"/>
        <pt x="232" y="585" on="0"/>
        <pt x="313" y="585" on="1"/>
        <pt x="394" y="585" on="0"/>
        <pt x="463" y="533" on="1"/>
        <pt x="517" y="587" on="1"/>
        <pt x="565" y="539" on="1"/>
        <pt x="511" y="485" on="1"/>
        <pt x="560" y="417" on="0"/>
        <pt x="560" y="337" on="1"/>
        <pt x="560" y="255" on="0"/>
        <pt x="509" y="187" on="1"/>
        <pt x="564" y="133" on="1"/>
        <pt x="516" y="85" on="1"/>
        <pt x="461" y="139" on="1"/>
        <pt x="394" y="89" on="0"/>
        <pt x="312" y="89" on="1"/>
        <pt x="231" y="89" on="0"/>
        <pt x="163" y="138" on="1"/>
        <pt x="110" y="85" on="1"/>
        <pt x="62" y="133" on="1"/>
      </contour>
      <contour>
        <pt x="133" y="337" on="1"/>
        <pt x="133" y="263" on="0"/>
        <pt x="238" y="158" on="0"/>
        <pt x="312" y="158" on="1"/>
        <pt x="386" y="158" on="0"/>
        <pt x="491" y="263" on="0"/>
        <pt x="491" y="337" on="1"/>
        <pt x="491" y="411" on="0"/>
        <pt x="386" y="516" on="0"/>
        <pt x="312" y="516" on="1"/>
        <pt x="238" y="516" on="0"/>
        <pt x="133" y="411" on="0"/>
      </contour>
    </TTGlyph>
    <TTGlyph name="d" xMin="52" yMin="-10" xMax="500" yMax="720">
      <contour>
        <pt x="406" y="446" on="1"/>
        <pt x="406" y="720" on="1"/>
        <pt x="500" y="720" on="1"/>
        <pt x="500" y="0" on="1"/>
        <pt x="430" y="0" on="1"/>
        <pt x="425" y="19" on="0"/>
        <pt x="417" y="70" on="1"/>
        <pt x="360" y="-10" on="0"/>
        <pt x="259" y="-10" on="1"/>
        <pt x="168" y="-10" on="0"/>
        <pt x="113" y="54" on="1"/>
        <pt x="52" y="124" on="0"/>
        <pt x="52" y="256" on="1"/>
        <pt x="52" y="267" on="1"/>
        <pt x="52" y="388" on="0"/>
        <pt x="110" y="457" on="1"/>
        <pt x="164" y="521" on="0"/>
        <pt x="259" y="521" on="1"/>
        <pt x="354" y="521" on="0"/>
      </contour>
      <contour>
        <pt x="146" y="255" on="1"/>
        <pt x="146" y="105" on="0"/>
        <pt x="223" y="74" on="1"/>
        <pt x="247" y="65" on="0"/>
        <pt x="276" y="65" on="1"/>
        <pt x="407" y="65" on="0"/>
        <pt x="407" y="255" on="1"/>
        <pt x="407" y="406" on="0"/>
        <pt x="329" y="436" on="1"/>
        <pt x="305" y="446" on="0"/>
        <pt x="276" y="446" on="1"/>
        <pt x="214" y="446" on="0"/>
        <pt x="182" y="405" on="1"/>
        <pt x="146" y="358" on="0"/>
      </contour>
    </TTGlyph>
    <TTGlyph name="dagger" xMin="23" yMin="-170" xMax="487" yMax="686">
      <contour>
        <pt x="282" y="435" on="1"/>
        <pt x="302" y="-170" on="1"/>
        <pt x="208" y="-170" on="1"/>
        <pt x="228" y="435" on="1"/>
        <pt x="23" y="417" on="1"/>
        <pt x="23" y="510" on="1"/>
        <pt x="228" y="493" on="1"/>
        <pt x="211" y="686" on="1"/>
        <pt x="299" y="686" on="1"/>
        <pt x="282" y="493" on="1"/>
        <pt x="487" y="510" on="1"/>
        <pt x="487" y="417" on="1"/>
      </contour>
    </TTGlyph>
    <TTGlyph name="daggerdbl" xMin="35" yMin="-175" xMax="498" yMax="686">
      <contour>
        <pt x="293" y="434" on="1"/>
        <pt x="299" y="381" on="0"/>
        <pt x="310" y="256" on="1"/>
        <pt x="306" y="211" on="0"/>
        <pt x="298" y="121" on="0"/>
        <pt x="293" y="76" on="1"/>
        <pt x="440" y="87" on="0"/>
        <pt x="498" y="93" on="1"/>
        <pt x="498" y="0" on="1"/>
        <pt x="293" y="18" on="1"/>
        <pt x="299" y="-37" on="0"/>
        <pt x="310" y="-175" on="1"/>
        <pt x="223" y="-175" on="1"/>
        <pt x="234" y="-37" on="0"/>
        <pt x="240" y="18" on="1"/>
        <pt x="35" y="0" on="1"/>
        <pt x="35" y="93" on="1"/>
        <pt x="86" y="88" on="0"/>
        <pt x="189" y="80" on="0"/>
        <pt x="240" y="76" on="1"/>
        <pt x="235" y="121" on="0"/>
        <pt x="227" y="211" on="0"/>
        <pt x="223" y="256" on="1"/>
        <pt x="234" y="381" on="0"/>
        <pt x="240" y="434" on="1"/>
        <pt x="193" y="429" on="0"/>
        <pt x="35" y="417" on="1"/>
        <pt x="35" y="510" on="1"/>
        <pt x="240" y="492" on="1"/>
        <pt x="235" y="544" on="0"/>
        <pt x="223" y="686" on="1"/>
        <pt x="310" y="686" on="1"/>
        <pt x="298" y="544" on="0"/>
        <pt x="293" y="492" on="1"/>
        <pt x="498" y="510" on="1"/>
        <pt x="498" y="417" on="1"/>
        <pt x="450" y="421" on="0"/>
        <pt x="353" y="429" on="0"/>
      </contour>
    </TTGlyph>
    <TTGlyph name="degree" xMin="47" yMin="396" xMax="347" yMax="696">
      <contour>
        <pt x="347" y="546" on="1"/>
        <pt x="347" y="483" on="0"/>
        <pt x="302" y="440" on="1"/>
        <pt x="257" y="396" on="0"/>
        <pt x="197" y="396" on="1"/>
        <pt x="137" y="396" on="0"/>
        <pt x="92" y="440" on="1"/>
        <pt x="47" y="483" on="0"/>
        <pt x="47" y="546" on="1"/>
        <pt x="47" y="606" on="0"/>
        <pt x="91" y="652" on="1"/>
        <pt x="134" y="696" on="0"/>
        <pt x="197" y="696" on="1"/>
        <pt x="258" y="696" on="0"/>
        <pt x="347" y="607" on="0"/>
      </contour>
      <contour>
        <pt x="290" y="545" on="1"/>
        <pt x="290" y="583" on="0"/>
        <pt x="262" y="609" on="1"/>
        <pt x="235" y="635" on="0"/>
        <pt x="196" y="635" on="1"/>
        <pt x="158" y="635" on="0"/>
        <pt x="130" y="609" on="1"/>
        <pt x="103" y="583" on="0"/>
        <pt x="103" y="545" on="1"/>
        <pt x="103" y="507" on="0"/>
        <pt x="130" y="481" on="1"/>
        <pt x="158" y="455" on="0"/>
        <pt x="197" y="455" on="1"/>
        <pt x="235" y="455" on="0"/>
        <pt x="262" y="481" on="1"/>
        <pt x="290" y="507" on="0"/>
      </contour>
    </TTGlyph>
    <TTGlyph name="dieresis" xMin="81" yMin="633" xMax="360" yMax="731">
      <contour>
        <pt x="81" y="731" on="1"/>
        <pt x="171" y="731" on="1"/>
        <pt x="171" y="633" on="1"/>
        <pt x="81" y="633" on="1"/>
      </contour>
      <contour>
        <pt x="269" y="731" on="1"/>
        <pt x="360" y="731" on="1"/>
        <pt x="360" y="633" on="1"/>
        <pt x="269" y="633" on="1"/>
      </contour>
    </TTGlyph>
    <TTGlyph name="divide" xMin="51" yMin="51" xMax="563" yMax="460">
      <contour>
        <pt x="51" y="213" on="1"/>
        <pt x="51" y="297" on="1"/>
        <pt x="563" y="297" on="1"/>
        <pt x="563" y="213" on="1"/>
      </contour>
      <contour>
        <pt x="266" y="141" on="1"/>
        <pt x="349" y="141" on="1"/>
        <pt x="349" y="51" on="1"/>
        <pt x="266" y="51" on="1"/>
      </contour>
      <contour>
        <pt x="266" y="460" on="1"/>
        <pt x="349" y="460" on="1"/>
        <pt x="349" y="369" on="1"/>
        <pt x="266" y="369" on="1"/>
      </contour>
    </TTGlyph>
    <TTGlyph name="dollar" xMin="31" yMin="-66" xMax="514" yMax="760">
      <contour>
        <pt x="268" y="105" on="1"/>
        <pt x="420" y="105" on="0"/>
        <pt x="420" y="202" on="1"/>
        <pt x="420" y="241" on="0"/>
        <pt x="365" y="282" on="0"/>
        <pt x="281" y="309" on="0"/>
        <pt x="185" y="331" on="0"/>
        <pt x="101" y="371" on="0"/>
        <pt x="46" y="439" on="0"/>
        <pt x="46" y="490" on="1"/>
        <pt x="46" y="540" on="0"/>
        <pt x="77" y="602" on="0"/>
        <pt x="104" y="623" on="1"/>
        <pt x="156" y="665" on="0"/>
        <pt x="245" y="671" on="1"/>
        <pt x="234" y="760" on="1"/>
        <pt x="307" y="760" on="1"/>
        <pt x="296" y="671" on="1"/>
        <pt x="385" y="667" on="0"/>
        <pt x="440" y="624" on="1"/>
        <pt x="498" y="579" on="0"/>
        <pt x="498" y="495" on="1"/>
        <pt x="498" y="483" on="1"/>
        <pt x="403" y="483" on="1"/>
        <pt x="403" y="497" on="1"/>
        <pt x="403" y="541" on="0"/>
        <pt x="330" y="586" on="0"/>
        <pt x="274" y="586" on="1"/>
        <pt x="218" y="586" on="0"/>
        <pt x="141" y="547" on="0"/>
        <pt x="141" y="505" on="1"/>
        <pt x="141" y="457" on="0"/>
        <pt x="200" y="431" on="1"/>
        <pt x="226" y="419" on="0"/>
        <pt x="293" y="402" on="0"/>
        <pt x="362" y="383" on="0"/>
        <pt x="429" y="358" on="0"/>
        <pt x="456" y="338" on="1"/>
        <pt x="514" y="294" on="0"/>
        <pt x="514" y="216" on="1"/>
        <pt x="514" y="119" on="0"/>
        <pt x="452" y="68" on="1"/>
        <pt x="396" y="23" on="0"/>
        <pt x="296" y="19" on="1"/>
        <pt x="307" y="-66" on="1"/>
        <pt x="234" y="-66" on="1"/>
        <pt x="244" y="20" on="1"/>
        <pt x="93" y="30" on="0"/>
        <pt x="48" y="126" on="1"/>
        <pt x="31" y="161" on="0"/>
        <pt x="31" y="209" on="1"/>
        <pt x="32" y="227" on="1"/>
        <pt x="127" y="227" on="1"/>
        <pt x="126" y="208" on="1"/>
        <pt x="126" y="155" on="0"/>
        <pt x="206" y="105" on="0"/>
      </contour>
    </TTGlyph>
    <TTGlyph name="dotaccent" xMin="74" yMin="604" xMax="206" yMax="736">
      <contour>
        <pt x="168" y="736" on="0"/>
        <pt x="206" y="697" on="0"/>
        <pt x="206" y="669" on="1"/>
        <pt x="206" y="641" on="0"/>
        <pt x="167" y="604" on="0"/>
        <pt x="140" y="604" on="1"/>
        <pt x="113" y="604" on="0"/>
        <pt x="74" y="643" on="0"/>
        <pt x="74" y="671" on="1"/>
        <pt x="74" y="698" on="0"/>
        <pt x="112" y="736" on="0"/>
        <pt x="140" y="736" on="1"/>
      </contour>
    </TTGlyph>
    <TTGlyph name="dotlessi" xMin="83" yMin="0" xMax="177" yMax="511">
      <contour>
        <pt x="83" y="0" on="1"/>
        <pt x="83" y="511" on="1"/>
        <pt x="177" y="511" on="1"/>
        <pt x="177" y="0" on="1"/>
      </contour>
    </TTGlyph>
    <TTGlyph name="e" xMin="51" yMin="-10" xMax="502" yMax="521">
      <contour>
        <pt x="145" y="234" on="1"/>
        <pt x="148" y="116" on="0"/>
        <pt x="224" y="78" on="1"/>
        <pt x="250" y="65" on="0"/>
        <pt x="290" y="65" on="1"/>
        <pt x="329" y="65" on="0"/>
        <pt x="379" y="95" on="0"/>
        <pt x="392" y="115" on="1"/>
        <pt x="413" y="147" on="0"/>
        <pt x="413" y="190" on="1"/>
        <pt x="502" y="190" on="1"/>
        <pt x="502" y="99" on="0"/>
        <pt x="442" y="44" on="1"/>
        <pt x="382" y="-10" on="0"/>
        <pt x="288" y="-10" on="1"/>
        <pt x="284" y="-10" on="1"/>
        <pt x="179" y="-10" on="0"/>
        <pt x="116" y="56" on="1"/>
        <pt x="51" y="126" on="0"/>
        <pt x="51" y="245" on="1"/>
        <pt x="51" y="265" on="1"/>
        <pt x="51" y="384" on="0"/>
        <pt x="116" y="454" on="1"/>
        <pt x="177" y="521" on="0"/>
        <pt x="281" y="521" on="1"/>
        <pt x="288" y="521" on="1"/>
        <pt x="383" y="521" on="0"/>
        <pt x="442" y="463" on="1"/>
        <pt x="502" y="405" on="0"/>
        <pt x="502" y="305" on="1"/>
        <pt x="502" y="234" on="1"/>
      </contour>
      <contour>
        <pt x="283" y="446" on="1"/>
        <pt x="227" y="446" on="0"/>
        <pt x="155" y="377" on="0"/>
        <pt x="147" y="307" on="1"/>
        <pt x="409" y="307" on="1"/>
        <pt x="409" y="319" on="1"/>
        <pt x="409" y="379" on="0"/>
        <pt x="372" y="414" on="1"/>
        <pt x="338" y="446" on="0"/>
      </contour>
    </TTGlyph>
    <TTGlyph name="eacute" xMin="51" yMin="-10" xMax="502" yMax="720">
      <contour>
        <pt x="145" y="234" on="1"/>
        <pt x="148" y="116" on="0"/>
        <pt x="224" y="78" on="1"/>
        <pt x="250" y="65" on="0"/>
        <pt x="290" y="65" on="1"/>
        <pt x="329" y="65" on="0"/>
        <pt x="379" y="95" on="0"/>
        <pt x="392" y="115" on="1"/>
        <pt x="413" y="147" on="0"/>
        <pt x="413" y="190" on="1"/>
        <pt x="502" y="190" on="1"/>
        <pt x="502" y="99" on="0"/>
        <pt x="442" y="44" on="1"/>
        <pt x="382" y="-10" on="0"/>
        <pt x="288" y="-10" on="1"/>
        <pt x="284" y="-10" on="1"/>
        <pt x="179" y="-10" on="0"/>
        <pt x="116" y="56" on="1"/>
        <pt x="51" y="126" on="0"/>
        <pt x="51" y="245" on="1"/>
        <pt x="51" y="265" on="1"/>
        <pt x="51" y="384" on="0"/>
        <pt x="116" y="454" on="1"/>
        <pt x="177" y="521" on="0"/>
        <pt x="281" y="521" on="1"/>
        <pt x="288" y="521" on="1"/>
        <pt x="383" y="521" on="0"/>
        <pt x="442" y="463" on="1"/>
        <pt x="502" y="405" on="0"/>
        <pt x="502" y="305" on="1"/>
        <pt x="502" y="234" on="1"/>
      </contour>
      <contour>
        <pt x="283" y="446" on="1"/>
        <pt x="227" y="446" on="0"/>
        <pt x="155" y="377" on="0"/>
        <pt x="147" y="307" on="1"/>
        <pt x="409" y="307" on="1"/>
        <pt x="409" y="319" on="1"/>
        <pt x="409" y="379" on="0"/>
        <pt x="372" y="414" on="1"/>
        <pt x="338" y="446" on="0"/>
      </contour>
      <contour>
        <pt x="246" y="575" on="1"/>
        <pt x="340" y="720" on="1"/>
        <pt x="430" y="720" on="1"/>
        <pt x="431" y="717" on="1"/>
        <pt x="315" y="575" on="1"/>
      </contour>
    </TTGlyph>
    <TTGlyph name="ecircumflex" xMin="51" yMin="-10" xMax="502" yMax="720">
      <contour>
        <pt x="145" y="234" on="1"/>
        <pt x="148" y="116" on="0"/>
        <pt x="224" y="78" on="1"/>
        <pt x="250" y="65" on="0"/>
        <pt x="290" y="65" on="1"/>
        <pt x="329" y="65" on="0"/>
        <pt x="379" y="95" on="0"/>
        <pt x="392" y="115" on="1"/>
        <pt x="413" y="147" on="0"/>
        <pt x="413" y="190" on="1"/>
        <pt x="502" y="190" on="1"/>
        <pt x="502" y="99" on="0"/>
        <pt x="442" y="44" on="1"/>
        <pt x="382" y="-10" on="0"/>
        <pt x="288" y="-10" on="1"/>
        <pt x="284" y="-10" on="1"/>
        <pt x="179" y="-10" on="0"/>
        <pt x="116" y="56" on="1"/>
        <pt x="51" y="126" on="0"/>
        <pt x="51" y="245" on="1"/>
        <pt x="51" y="265" on="1"/>
        <pt x="51" y="384" on="0"/>
        <pt x="116" y="454" on="1"/>
        <pt x="177" y="521" on="0"/>
        <pt x="281" y="521" on="1"/>
        <pt x="288" y="521" on="1"/>
        <pt x="383" y="521" on="0"/>
        <pt x="442" y="463" on="1"/>
        <pt x="502" y="405" on="0"/>
        <pt x="502" y="305" on="1"/>
        <pt x="502" y="234" on="1"/>
      </contour>
      <contour>
        <pt x="283" y="446" on="1"/>
        <pt x="227" y="446" on="0"/>
        <pt x="155" y="377" on="0"/>
        <pt x="147" y="307" on="1"/>
        <pt x="409" y="307" on="1"/>
        <pt x="409" y="319" on="1"/>
        <pt x="409" y="379" on="0"/>
        <pt x="372" y="414" on="1"/>
        <pt x="338" y="446" on="0"/>
      </contour>
      <contour>
        <pt x="244" y="720" on="1"/>
        <pt x="322" y="720" on="1"/>
        <pt x="457" y="575" on="1"/>
        <pt x="377" y="575" on="1"/>
        <pt x="283" y="664" on="1"/>
        <pt x="188" y="575" on="1"/>
        <pt x="108" y="575" on="1"/>
      </contour>
    </TTGlyph>
    <TTGlyph name="edieresis" xMin="51" yMin="-10" xMax="502" yMax="720">
      <contour>
        <pt x="145" y="234" on="1"/>
        <pt x="148" y="116" on="0"/>
        <pt x="224" y="78" on="1"/>
        <pt x="250" y="65" on="0"/>
        <pt x="290" y="65" on="1"/>
        <pt x="329" y="65" on="0"/>
        <pt x="379" y="95" on="0"/>
        <pt x="392" y="115" on="1"/>
        <pt x="413" y="147" on="0"/>
        <pt x="413" y="190" on="1"/>
        <pt x="502" y="190" on="1"/>
        <pt x="502" y="99" on="0"/>
        <pt x="442" y="44" on="1"/>
        <pt x="382" y="-10" on="0"/>
        <pt x="288" y="-10" on="1"/>
        <pt x="284" y="-10" on="1"/>
        <pt x="179" y="-10" on="0"/>
        <pt x="116" y="56" on="1"/>
        <pt x="51" y="126" on="0"/>
        <pt x="51" y="245" on="1"/>
        <pt x="51" y="265" on="1"/>
        <pt x="51" y="384" on="0"/>
        <pt x="116" y="454" on="1"/>
        <pt x="177" y="521" on="0"/>
        <pt x="281" y="521" on="1"/>
        <pt x="288" y="521" on="1"/>
        <pt x="383" y="521" on="0"/>
        <pt x="442" y="463" on="1"/>
        <pt x="502" y="405" on="0"/>
        <pt x="502" y="305" on="1"/>
        <pt x="502" y="234" on="1"/>
      </contour>
      <contour>
        <pt x="283" y="446" on="1"/>
        <pt x="227" y="446" on="0"/>
        <pt x="155" y="377" on="0"/>
        <pt x="147" y="307" on="1"/>
        <pt x="409" y="307" on="1"/>
        <pt x="409" y="319" on="1"/>
        <pt x="409" y="379" on="0"/>
        <pt x="372" y="414" on="1"/>
        <pt x="338" y="446" on="0"/>
      </contour>
      <contour>
        <pt x="143" y="720" on="1"/>
        <pt x="233" y="720" on="1"/>
        <pt x="233" y="622" on="1"/>
        <pt x="143" y="622" on="1"/>
      </contour>
      <contour>
        <pt x="331" y="720" on="1"/>
        <pt x="422" y="720" on="1"/>
        <pt x="422" y="622" on="1"/>
        <pt x="331" y="622" on="1"/>
      </contour>
    </TTGlyph>
    <TTGlyph name="egrave" xMin="51" yMin="-10" xMax="502" yMax="720">
      <contour>
        <pt x="145" y="234" on="1"/>
        <pt x="148" y="116" on="0"/>
        <pt x="224" y="78" on="1"/>
        <pt x="250" y="65" on="0"/>
        <pt x="290" y="65" on="1"/>
        <pt x="329" y="65" on="0"/>
        <pt x="379" y="95" on="0"/>
        <pt x="392" y="115" on="1"/>
        <pt x="413" y="147" on="0"/>
        <pt x="413" y="190" on="1"/>
        <pt x="502" y="190" on="1"/>
        <pt x="502" y="99" on="0"/>
        <pt x="442" y="44" on="1"/>
        <pt x="382" y="-10" on="0"/>
        <pt x="288" y="-10" on="1"/>
        <pt x="284" y="-10" on="1"/>
        <pt x="179" y="-10" on="0"/>
        <pt x="116" y="56" on="1"/>
        <pt x="51" y="126" on="0"/>
        <pt x="51" y="245" on="1"/>
        <pt x="51" y="265" on="1"/>
        <pt x="51" y="384" on="0"/>
        <pt x="116" y="454" on="1"/>
        <pt x="177" y="521" on="0"/>
        <pt x="281" y="521" on="1"/>
        <pt x="288" y="521" on="1"/>
        <pt x="383" y="521" on="0"/>
        <pt x="442" y="463" on="1"/>
        <pt x="502" y="405" on="0"/>
        <pt x="502" y="305" on="1"/>
        <pt x="502" y="234" on="1"/>
      </contour>
      <contour>
        <pt x="283" y="446" on="1"/>
        <pt x="227" y="446" on="0"/>
        <pt x="155" y="377" on="0"/>
        <pt x="147" y="307" on="1"/>
        <pt x="409" y="307" on="1"/>
        <pt x="409" y="319" on="1"/>
        <pt x="409" y="379" on="0"/>
        <pt x="372" y="414" on="1"/>
        <pt x="338" y="446" on="0"/>
      </contour>
      <contour>
        <pt x="250" y="575" on="1"/>
        <pt x="135" y="717" on="1"/>
        <pt x="136" y="720" on="1"/>
        <pt x="225" y="720" on="1"/>
        <pt x="320" y="575" on="1"/>
      </contour>
    </TTGlyph>
    <TTGlyph name="eight" xMin="67" yMin="-10" xMax="547" yMax="696">
      <contour>
        <pt x="431" y="350" on="1"/>
        <pt x="483" y="326" on="0"/>
        <pt x="547" y="252" on="0"/>
        <pt x="547" y="185" on="1"/>
        <pt x="547" y="94" on="0"/>
        <pt x="423" y="-10" on="0"/>
        <pt x="307" y="-10" on="1"/>
        <pt x="199" y="-10" on="0"/>
        <pt x="134" y="40" on="1"/>
        <pt x="67" y="91" on="0"/>
        <pt x="67" y="185" on="1"/>
        <pt x="67" y="251" on="0"/>
        <pt x="131" y="328" on="0"/>
        <pt x="183" y="350" on="1"/>
        <pt x="183" y="354" on="1"/>
        <pt x="136" y="382" on="0"/>
        <pt x="120" y="405" on="1"/>
        <pt x="90" y="448" on="0"/>
        <pt x="90" y="499" on="1"/>
        <pt x="90" y="550" on="0"/>
        <pt x="122" y="621" on="0"/>
        <pt x="151" y="646" on="1"/>
        <pt x="211" y="696" on="0"/>
        <pt x="307" y="696" on="1"/>
        <pt x="403" y="696" on="0"/>
        <pt x="463" y="646" on="1"/>
        <pt x="524" y="594" on="0"/>
        <pt x="524" y="505" on="1"/>
        <pt x="524" y="422" on="0"/>
        <pt x="468" y="379" on="1"/>
        <pt x="451" y="366" on="0"/>
        <pt x="431" y="354" on="1"/>
      </contour>
      <contour>
        <pt x="188" y="501" on="1"/>
        <pt x="188" y="456" on="0"/>
        <pt x="252" y="395" on="0"/>
        <pt x="307" y="395" on="1"/>
        <pt x="362" y="395" on="0"/>
        <pt x="426" y="456" on="0"/>
        <pt x="426" y="501" on="1"/>
        <pt x="426" y="546" on="0"/>
        <pt x="362" y="607" on="0"/>
        <pt x="307" y="607" on="1"/>
        <pt x="252" y="607" on="0"/>
        <pt x="188" y="546" on="0"/>
      </contour>
      <contour>
        <pt x="176" y="242" on="1"/>
        <pt x="165" y="220" on="0"/>
        <pt x="165" y="192" on="1"/>
        <pt x="165" y="163" on="0"/>
        <pt x="187" y="121" on="0"/>
        <pt x="206" y="107" on="1"/>
        <pt x="246" y="79" on="0"/>
        <pt x="307" y="79" on="1"/>
        <pt x="368" y="79" on="0"/>
        <pt x="408" y="107" on="1"/>
        <pt x="449" y="137" on="0"/>
        <pt x="449" y="192" on="1"/>
        <pt x="449" y="247" on="0"/>
        <pt x="408" y="278" on="1"/>
        <pt x="369" y="306" on="0"/>
        <pt x="307" y="306" on="1"/>
        <pt x="209" y="306" on="0"/>
      </contour>
    </TTGlyph>
    <TTGlyph name="ellipsis" xMin="69" yMin="0" xMax="666" yMax="111">
      <contour>
        <pt x="69" y="111" on="1"/>
        <pt x="171" y="111" on="1"/>
        <pt x="171" y="0" on="1"/>
        <pt x="69" y="0" on="1"/>
      </contour>
      <contour>
        <pt x="317" y="111" on="1"/>
        <pt x="419" y="111" on="1"/>
        <pt x="419" y="0" on="1"/>
        <pt x="317" y="0" on="1"/>
      </contour>
      <contour>
        <pt x="564" y="111" on="1"/>
        <pt x="666" y="111" on="1"/>
        <pt x="666" y="0" on="1"/>
        <pt x="564" y="0" on="1"/>
      </contour>
    </TTGlyph>
    <TTGlyph name="emdash" xMin="72" yMin="223" xMax="982" yMax="317">
      <contour>
        <pt x="72" y="223" on="1"/>
        <pt x="72" y="317" on="1"/>
        <pt x="982" y="317" on="1"/>
        <pt x="982" y="223" on="1"/>
      </contour>
    </TTGlyph>
    <TTGlyph name="endash" xMin="69" yMin="223" xMax="569" yMax="318">
      <contour>
        <pt x="69" y="223" on="1"/>
        <pt x="69" y="318" on="1"/>
        <pt x="569" y="318" on="1"/>
        <pt x="569" y="223" on="1"/>
      </contour>
    </TTGlyph>
    <TTGlyph name="equal" xMin="55" yMin="106" xMax="559" yMax="402">
      <contour>
        <pt x="55" y="318" on="1"/>
        <pt x="55" y="402" on="1"/>
        <pt x="559" y="402" on="1"/>
        <pt x="559" y="318" on="1"/>
      </contour>
      <contour>
        <pt x="55" y="106" on="1"/>
        <pt x="55" y="189" on="1"/>
        <pt x="559" y="189" on="1"/>
        <pt x="559" y="106" on="1"/>
      </contour>
    </TTGlyph>
    <TTGlyph name="eth" xMin="52" yMin="-10" xMax="522" yMax="729">
      <contour>
        <pt x="114" y="700" on="1"/>
        <pt x="173" y="729" on="1"/>
        <pt x="218" y="706" on="0"/>
        <pt x="268" y="673" on="1"/>
        <pt x="362" y="717" on="1"/>
        <pt x="370" y="708" on="0"/>
        <pt x="386" y="692" on="0"/>
        <pt x="394" y="683" on="1"/>
        <pt x="307" y="643" on="1"/>
        <pt x="456" y="522" on="0"/>
        <pt x="504" y="384" on="1"/>
        <pt x="522" y="332" on="0"/>
        <pt x="522" y="274" on="1"/>
        <pt x="522" y="237" on="1"/>
        <pt x="522" y="116" on="0"/>
        <pt x="453" y="50" on="1"/>
        <pt x="390" y="-10" on="0"/>
        <pt x="287" y="-10" on="1"/>
        <pt x="184" y="-10" on="0"/>
        <pt x="121" y="50" on="1"/>
        <pt x="52" y="116" on="0"/>
        <pt x="52" y="237" on="1"/>
        <pt x="52" y="274" on="1"/>
        <pt x="52" y="395" on="0"/>
        <pt x="121" y="460" on="1"/>
        <pt x="184" y="521" on="0"/>
        <pt x="287" y="521" on="1"/>
        <pt x="302" y="521" on="0"/>
        <pt x="319" y="518" on="1"/>
        <pt x="283" y="562" on="0"/>
        <pt x="236" y="605" on="1"/>
        <pt x="145" y="562" on="1"/>
        <pt x="135" y="570" on="0"/>
        <pt x="118" y="587" on="0"/>
        <pt x="109" y="595" on="1"/>
        <pt x="155" y="617" on="0"/>
        <pt x="203" y="639" on="1"/>
        <pt x="180" y="659" on="0"/>
        <pt x="130" y="689" on="0"/>
      </contour>
      <contour>
        <pt x="428" y="265" on="1"/>
        <pt x="428" y="357" on="0"/>
        <pt x="387" y="404" on="1"/>
        <pt x="351" y="446" on="0"/>
        <pt x="287" y="446" on="1"/>
        <pt x="188" y="446" on="0"/>
        <pt x="157" y="348" on="1"/>
        <pt x="146" y="313" on="0"/>
        <pt x="146" y="265" on="1"/>
        <pt x="146" y="246" on="1"/>
        <pt x="146" y="154" on="0"/>
        <pt x="187" y="107" on="1"/>
        <pt x="223" y="65" on="0"/>
        <pt x="287" y="65" on="1"/>
        <pt x="386" y="65" on="0"/>
        <pt x="417" y="164" on="1"/>
        <pt x="428" y="198" on="0"/>
        <pt x="428" y="246" on="1"/>
      </contour>
    </TTGlyph>
    <TTGlyph name="exclam" xMin="78" yMin="0" xMax="193" yMax="686">
      <contour>
        <pt x="85" y="111" on="1"/>
        <pt x="186" y="111" on="1"/>
        <pt x="186" y="0" on="1"/>
        <pt x="85" y="0" on="1"/>
      </contour>
      <contour>
        <pt x="193" y="686" on="1"/>
        <pt x="190" y="663" on="0"/>
        <pt x="168" y="174" on="1"/>
        <pt x="102" y="174" on="1"/>
        <pt x="79" y="662" on="0"/>
        <pt x="78" y="686" on="1"/>
      </contour>
    </TTGlyph>
    <TTGlyph name="exclamdown" xMin="69" yMin="-176" xMax="184" yMax="510">
      <contour>
        <pt x="76" y="510" on="1"/>
        <pt x="177" y="510" on="1"/>
        <pt x="177" y="399" on="1"/>
        <pt x="76" y="399" on="1"/>
      </contour>
      <contour>
        <pt x="160" y="335" on="1"/>
        <pt x="162" y="305" on="0"/>
        <pt x="184" y="-176" on="1"/>
        <pt x="69" y="-176" on="1"/>
        <pt x="94" y="335" on="1"/>
      </contour>
    </TTGlyph>
    <TTGlyph name="f" xMin="47" yMin="0" xMax="316" yMax="728">
      <contour>
        <pt x="103" y="580" on="1"/>
        <pt x="103" y="728" on="0"/>
        <pt x="222" y="728" on="1"/>
        <pt x="278" y="728" on="0"/>
        <pt x="316" y="709" on="1"/>
        <pt x="316" y="640" on="1"/>
        <pt x="285" y="653" on="0"/>
        <pt x="265" y="653" on="1"/>
        <pt x="244" y="653" on="0"/>
        <pt x="224" y="649" on="0"/>
        <pt x="216" y="642" on="1"/>
        <pt x="197" y="628" on="0"/>
        <pt x="197" y="590" on="1"/>
        <pt x="197" y="511" on="1"/>
        <pt x="316" y="511" on="1"/>
        <pt x="316" y="436" on="1"/>
        <pt x="197" y="436" on="1"/>
        <pt x="197" y="0" on="1"/>
        <pt x="103" y="0" on="1"/>
        <pt x="103" y="436" on="1"/>
        <pt x="47" y="436" on="1"/>
        <pt x="47" y="511" on="1"/>
        <pt x="103" y="511" on="1"/>
      </contour>
    </TTGlyph>
    <TTGlyph name="fi" xMin="47" yMin="0" xMax="522" yMax="728">
      <contour>
        <pt x="103" y="580" on="1"/>
        <pt x="103" y="728" on="0"/>
        <pt x="222" y="728" on="1"/>
        <pt x="278" y="728" on="0"/>
        <pt x="316" y="709" on="1"/>
        <pt x="316" y="640" on="1"/>
        <pt x="285" y="653" on="0"/>
        <pt x="265" y="653" on="1"/>
        <pt x="244" y="653" on="0"/>
        <pt x="224" y="649" on="0"/>
        <pt x="216" y="642" on="1"/>
        <pt x="197" y="628" on="0"/>
        <pt x="197" y="590" on="1"/>
        <pt x="197" y="511" on="1"/>
        <pt x="316" y="511" on="1"/>
        <pt x="316" y="436" on="1"/>
        <pt x="197" y="436" on="1"/>
        <pt x="197" y="0" on="1"/>
        <pt x="103" y="0" on="1"/>
        <pt x="103" y="436" on="1"/>
        <pt x="47" y="436" on="1"/>
        <pt x="47" y="511" on="1"/>
        <pt x="103" y="511" on="1"/>
      </contour>
      <contour>
        <pt x="426" y="0" on="1"/>
        <pt x="426" y="511" on="1"/>
        <pt x="520" y="511" on="1"/>
        <pt x="520" y="0" on="1"/>
      </contour>
      <contour>
        <pt x="424" y="720" on="1"/>
        <pt x="522" y="720" on="1"/>
        <pt x="522" y="633" on="1"/>
        <pt x="424" y="633" on="1"/>
      </contour>
    </TTGlyph>
    <TTGlyph name="five" xMin="71" yMin="-10" xMax="545" yMax="686">
      <contour>
        <pt x="190" y="396" on="1"/>
        <pt x="254" y="447" on="0"/>
        <pt x="320" y="447" on="1"/>
        <pt x="385" y="447" on="0"/>
        <pt x="467" y="409" on="0"/>
        <pt x="494" y="378" on="1"/>
        <pt x="545" y="318" on="0"/>
        <pt x="545" y="222" on="1"/>
        <pt x="545" y="119" on="0"/>
        <pt x="416" y="-10" on="0"/>
        <pt x="308" y="-10" on="1"/>
        <pt x="202" y="-10" on="0"/>
        <pt x="136" y="56" on="1"/>
        <pt x="73" y="119" on="0"/>
        <pt x="71" y="214" on="1"/>
        <pt x="169" y="214" on="1"/>
        <pt x="171" y="154" on="0"/>
        <pt x="212" y="116" on="1"/>
        <pt x="250" y="79" on="0"/>
        <pt x="308" y="79" on="1"/>
        <pt x="368" y="79" on="0"/>
        <pt x="406" y="116" on="1"/>
        <pt x="447" y="155" on="0"/>
        <pt x="447" y="225" on="1"/>
        <pt x="447" y="284" on="0"/>
        <pt x="410" y="322" on="1"/>
        <pt x="371" y="363" on="0"/>
        <pt x="312" y="363" on="1"/>
        <pt x="226" y="363" on="0"/>
        <pt x="183" y="294" on="1"/>
        <pt x="95" y="307" on="1"/>
        <pt x="123" y="686" on="1"/>
        <pt x="509" y="686" on="1"/>
        <pt x="509" y="597" on="1"/>
        <pt x="205" y="597" on="1"/>
      </contour>
    </TTGlyph>
    <TTGlyph name="fl" xMin="47" yMin="0" xMax="520" yMax="728">
      <contour>
        <pt x="103" y="580" on="1"/>
        <pt x="103" y="728" on="0"/>
        <pt x="222" y="728" on="1"/>
        <pt x="278" y="728" on="0"/>
        <pt x="316" y="709" on="1"/>
        <pt x="316" y="640" on="1"/>
        <pt x="285" y="653" on="0"/>
        <pt x="265" y="653" on="1"/>
        <pt x="244" y="653" on="0"/>
        <pt x="224" y="649" on="0"/>
        <pt x="216" y="642" on="1"/>
        <pt x="197" y="628" on="0"/>
        <pt x="197" y="590" on="1"/>
        <pt x="197" y="511" on="1"/>
        <pt x="316" y="511" on="1"/>
        <pt x="316" y="436" on="1"/>
        <pt x="197" y="436" on="1"/>
        <pt x="197" y="0" on="1"/>
        <pt x="103" y="0" on="1"/>
        <pt x="103" y="436" on="1"/>
        <pt x="47" y="436" on="1"/>
        <pt x="47" y="511" on="1"/>
        <pt x="103" y="511" on="1"/>
      </contour>
      <contour>
        <pt x="426" y="0" on="1"/>
        <pt x="426" y="720" on="1"/>
        <pt x="520" y="720" on="1"/>
        <pt x="520" y="0" on="1"/>
      </contour>
    </TTGlyph>
    <TTGlyph name="florin" xMin="-80" yMin="-184" xMax="374" yMax="728">
      <contour>
        <pt x="-72" y="-96" on="1"/>
        <pt x="-41" y="-110" on="0"/>
        <pt x="-21" y="-110" on="1"/>
        <pt x="-1" y="-110" on="0"/>
        <pt x="19" y="-106" on="0"/>
        <pt x="28" y="-100" on="1"/>
        <pt x="49" y="-85" on="0"/>
        <pt x="54" y="-46" on="1"/>
        <pt x="125" y="436" on="1"/>
        <pt x="66" y="436" on="1"/>
        <pt x="75" y="511" on="1"/>
        <pt x="134" y="511" on="1"/>
        <pt x="147" y="602" on="1"/>
        <pt x="166" y="728" on="0"/>
        <pt x="290" y="728" on="1"/>
        <pt x="342" y="728" on="0"/>
        <pt x="374" y="709" on="1"/>
        <pt x="365" y="640" on="1"/>
        <pt x="334" y="654" on="0"/>
        <pt x="305" y="654" on="1"/>
        <pt x="278" y="654" on="0"/>
        <pt x="267" y="646" on="1"/>
        <pt x="244" y="628" on="0"/>
        <pt x="239" y="590" on="1"/>
        <pt x="227" y="511" on="1"/>
        <pt x="347" y="511" on="1"/>
        <pt x="338" y="436" on="1"/>
        <pt x="218" y="436" on="1"/>
        <pt x="147" y="-58" on="1"/>
        <pt x="137" y="-125" on="0"/>
        <pt x="59" y="-184" on="0"/>
        <pt x="4" y="-184" on="1"/>
        <pt x="-50" y="-184" on="0"/>
        <pt x="-80" y="-165" on="1"/>
      </contour>
    </TTGlyph>
    <TTGlyph name="four" xMin="50" yMin="0" xMax="558" yMax="696">
      <contour>
        <pt x="50" y="259" on="1"/>
        <pt x="186" y="463" on="0"/>
        <pt x="263" y="696" on="1"/>
        <pt x="368" y="696" on="1"/>
        <pt x="334" y="573" on="0"/>
        <pt x="255" y="429" on="1"/>
        <pt x="193" y="316" on="0"/>
        <pt x="143" y="258" on="1"/>
        <pt x="373" y="258" on="1"/>
        <pt x="373" y="457" on="1"/>
        <pt x="408" y="525" on="0"/>
        <pt x="427" y="594" on="1"/>
        <pt x="471" y="594" on="1"/>
        <pt x="471" y="258" on="1"/>
        <pt x="558" y="258" on="1"/>
        <pt x="558" y="169" on="1"/>
        <pt x="471" y="169" on="1"/>
        <pt x="471" y="0" on="1"/>
        <pt x="373" y="0" on="1"/>
        <pt x="373" y="169" on="1"/>
        <pt x="50" y="169" on="1"/>
      </contour>
    </TTGlyph>
    <TTGlyph name="fraction" xMin="2" yMin="0" xMax="478" yMax="686">
      <contour>
        <pt x="61" y="0" on="1"/>
        <pt x="2" y="0" on="1"/>
        <pt x="422" y="686" on="1"/>
        <pt x="478" y="686" on="1"/>
      </contour>
    </TTGlyph>
    <TTGlyph name="g" xMin="36" yMin="-188" xMax="551" yMax="603">
      <contour>
        <pt x="447" y="470" on="1"/>
        <pt x="497" y="427" on="0"/>
        <pt x="497" y="360" on="1"/>
        <pt x="497" y="291" on="0"/>
        <pt x="447" y="247" on="1"/>
        <pt x="394" y="200" on="0"/>
        <pt x="296" y="200" on="1"/>
        <pt x="228" y="200" on="1"/>
        <pt x="198" y="200" on="0"/>
        <pt x="158" y="169" on="0"/>
        <pt x="158" y="145" on="1"/>
        <pt x="158" y="121" on="0"/>
        <pt x="196" y="93" on="0"/>
        <pt x="228" y="93" on="1"/>
        <pt x="421" y="93" on="1"/>
        <pt x="481" y="93" on="0"/>
        <pt x="516" y="56" on="1"/>
        <pt x="551" y="19" on="0"/>
        <pt x="551" y="-38" on="1"/>
        <pt x="551" y="-109" on="0"/>
        <pt x="496" y="-150" on="1"/>
        <pt x="445" y="-188" on="0"/>
        <pt x="361" y="-188" on="1"/>
        <pt x="160" y="-188" on="1"/>
        <pt x="108" y="-188" on="0"/>
        <pt x="72" y="-150" on="1"/>
        <pt x="36" y="-112" on="0"/>
        <pt x="36" y="-68" on="1"/>
        <pt x="36" y="-25" on="0"/>
        <pt x="78" y="37" on="0"/>
        <pt x="111" y="51" on="1"/>
        <pt x="65" y="80" on="0"/>
        <pt x="65" y="134" on="1"/>
        <pt x="65" y="171" on="0"/>
        <pt x="108" y="222" on="0"/>
        <pt x="145" y="235" on="1"/>
        <pt x="78" y="273" on="0"/>
        <pt x="78" y="360" on="1"/>
        <pt x="78" y="431" on="0"/>
        <pt x="128" y="474" on="1"/>
        <pt x="182" y="521" on="0"/>
        <pt x="284" y="521" on="1"/>
        <pt x="288" y="521" on="1"/>
        <pt x="345" y="521" on="0"/>
        <pt x="390" y="504" on="1"/>
        <pt x="461" y="539" on="0"/>
        <pt x="471" y="603" on="1"/>
        <pt x="551" y="603" on="1"/>
        <pt x="551" y="553" on="0"/>
        <pt x="497" y="483" on="0"/>
        <pt x="449" y="473" on="1"/>
      </contour>
      <contour>
        <pt x="171" y="360" on="1"/>
        <pt x="171" y="313" on="0"/>
        <pt x="238" y="275" on="0"/>
        <pt x="287" y="275" on="1"/>
        <pt x="336" y="275" on="0"/>
        <pt x="404" y="313" on="0"/>
        <pt x="404" y="360" on="1"/>
        <pt x="404" y="407" on="0"/>
        <pt x="336" y="446" on="0"/>
        <pt x="287" y="446" on="1"/>
        <pt x="238" y="446" on="0"/>
        <pt x="171" y="407" on="0"/>
      </contour>
      <contour>
        <pt x="380" y="-113" on="1"/>
        <pt x="412" y="-113" on="0"/>
        <pt x="458" y="-76" on="0"/>
        <pt x="458" y="-52" on="1"/>
        <pt x="458" y="-28" on="0"/>
        <pt x="425" y="3" on="0"/>
        <pt x="393" y="3" on="1"/>
        <pt x="187" y="3" on="1"/>
        <pt x="163" y="3" on="0"/>
        <pt x="129" y="-31" on="0"/>
        <pt x="129" y="-55" on="1"/>
        <pt x="129" y="-79" on="0"/>
        <pt x="163" y="-113" on="0"/>
        <pt x="187" y="-113" on="1"/>
      </contour>
    </TTGlyph>
    <TTGlyph name="germandbls" xMin="46" yMin="-66" xMax="565" yMax="728">
      <contour>
        <pt x="565" y="200" on="1"/>
        <pt x="565" y="162" on="0"/>
        <pt x="530" y="85" on="0"/>
        <pt x="500" y="58" on="1"/>
        <pt x="437" y="0" on="0"/>
        <pt x="342" y="0" on="1"/>
        <pt x="259" y="0" on="1"/>
        <pt x="259" y="75" on="1"/>
        <pt x="332" y="75" on="1"/>
        <pt x="392" y="75" on="0"/>
        <pt x="430" y="115" on="1"/>
        <pt x="471" y="157" on="0"/>
        <pt x="471" y="214" on="1"/>
        <pt x="471" y="268" on="0"/>
        <pt x="430" y="307" on="1"/>
        <pt x="390" y="346" on="0"/>
        <pt x="332" y="346" on="1"/>
        <pt x="259" y="346" on="1"/>
        <pt x="259" y="420" on="1"/>
        <pt x="324" y="420" on="1"/>
        <pt x="376" y="420" on="0"/>
        <pt x="412" y="454" on="1"/>
        <pt x="448" y="489" on="0"/>
        <pt x="448" y="540" on="1"/>
        <pt x="448" y="590" on="0"/>
        <pt x="384" y="653" on="0"/>
        <pt x="327" y="653" on="1"/>
        <pt x="270" y="653" on="0"/>
        <pt x="198" y="576" on="0"/>
        <pt x="198" y="513" on="1"/>
        <pt x="198" y="-66" on="1"/>
        <pt x="104" y="-66" on="1"/>
        <pt x="104" y="436" on="1"/>
        <pt x="46" y="436" on="1"/>
        <pt x="46" y="511" on="1"/>
        <pt x="104" y="511" on="1"/>
        <pt x="106" y="611" on="0"/>
        <pt x="171" y="670" on="1"/>
        <pt x="235" y="728" on="0"/>
        <pt x="331" y="728" on="1"/>
        <pt x="421" y="728" on="0"/>
        <pt x="480" y="679" on="1"/>
        <pt x="542" y="626" on="0"/>
        <pt x="542" y="543" on="1"/>
        <pt x="542" y="493" on="0"/>
        <pt x="486" y="408" on="0"/>
        <pt x="442" y="391" on="1"/>
        <pt x="444" y="387" on="1"/>
        <pt x="497" y="367" on="0"/>
        <pt x="565" y="268" on="0"/>
      </contour>
    </TTGlyph>
    <TTGlyph name="grave" xMin="68" yMin="575" xMax="253" yMax="720">
      <contour>
        <pt x="183" y="575" on="1"/>
        <pt x="68" y="717" on="1"/>
        <pt x="69" y="720" on="1"/>
        <pt x="158" y="720" on="1"/>
        <pt x="253" y="575" on="1"/>
      </contour>
    </TTGlyph>
    <TTGlyph name="greater" xMin="62" yMin="4" xMax="571" yMax="504">
      <contour>
        <pt x="490" y="254" on="1"/>
        <pt x="178" y="370" on="0"/>
        <pt x="62" y="414" on="1"/>
        <pt x="62" y="504" on="1"/>
        <pt x="571" y="307" on="1"/>
        <pt x="571" y="200" on="1"/>
        <pt x="62" y="4" on="1"/>
        <pt x="62" y="94" on="1"/>
        <pt x="169" y="134" on="0"/>
        <pt x="382" y="213" on="0"/>
      </contour>
    </TTGlyph>
    <TTGlyph name="greaterequal" xMin="56" yMin="0" xMax="566" yMax="520">
      <contour>
        <pt x="56" y="520" on="1"/>
        <pt x="67" y="517" on="0"/>
        <pt x="565" y="365" on="1"/>
        <pt x="565" y="258" on="1"/>
        <pt x="426" y="217" on="0"/>
        <pt x="56" y="104" on="1"/>
        <pt x="56" y="194" on="1"/>
        <pt x="188" y="230" on="0"/>
        <pt x="484" y="312" on="1"/>
        <pt x="315" y="357" on="0"/>
        <pt x="56" y="430" on="1"/>
      </contour>
      <contour>
        <pt x="566" y="0" on="1"/>
        <pt x="56" y="0" on="1"/>
        <pt x="56" y="83" on="1"/>
        <pt x="566" y="83" on="1"/>
      </contour>
    </TTGlyph>
    <TTGlyph name="guillemotleft" xMin="49" yMin="163" xMax="404" yMax="511">
      <contour>
        <pt x="354" y="163" on="1"/>
        <pt x="231" y="337" on="1"/>
        <pt x="354" y="511" on="1"/>
        <pt x="404" y="511" on="1"/>
        <pt x="311" y="337" on="1"/>
        <pt x="404" y="163" on="1"/>
      </contour>
      <contour>
        <pt x="171" y="163" on="1"/>
        <pt x="49" y="337" on="1"/>
        <pt x="171" y="511" on="1"/>
        <pt x="222" y="511" on="1"/>
        <pt x="128" y="337" on="1"/>
        <pt x="222" y="163" on="1"/>
      </contour>
    </TTGlyph>
    <TTGlyph name="guillemotright" xMin="56" yMin="163" xMax="411" yMax="511">
      <contour>
        <pt x="56" y="163" on="1"/>
        <pt x="150" y="337" on="1"/>
        <pt x="56" y="511" on="1"/>
        <pt x="107" y="511" on="1"/>
        <pt x="230" y="337" on="1"/>
        <pt x="107" y="163" on="1"/>
      </contour>
      <contour>
        <pt x="239" y="163" on="1"/>
        <pt x="332" y="337" on="1"/>
        <pt x="239" y="511" on="1"/>
        <pt x="289" y="511" on="1"/>
        <pt x="411" y="337" on="1"/>
        <pt x="289" y="163" on="1"/>
      </contour>
    </TTGlyph>
    <TTGlyph name="guilsinglleft" xMin="49" yMin="163" xMax="222" yMax="511">
      <contour>
        <pt x="171" y="163" on="1"/>
        <pt x="49" y="337" on="1"/>
        <pt x="171" y="511" on="1"/>
        <pt x="222" y="511" on="1"/>
        <pt x="128" y="337" on="1"/>
        <pt x="222" y="163" on="1"/>
      </contour>
    </TTGlyph>
    <TTGlyph name="guilsinglright" xMin="56" yMin="163" xMax="229" yMax="511">
      <contour>
        <pt x="56" y="163" on="1"/>
        <pt x="150" y="337" on="1"/>
        <pt x="56" y="511" on="1"/>
        <pt x="107" y="511" on="1"/>
        <pt x="229" y="337" on="1"/>
        <pt x="107" y="163" on="1"/>
      </contour>
    </TTGlyph>
    <TTGlyph name="h" xMin="83" yMin="0" xMax="515" yMax="720">
      <contour>
        <pt x="177" y="447" on="1"/>
        <pt x="240" y="521" on="0"/>
        <pt x="335" y="521" on="1"/>
        <pt x="460" y="521" on="0"/>
        <pt x="501" y="424" on="1"/>
        <pt x="515" y="390" on="0"/>
        <pt x="515" y="344" on="1"/>
        <pt x="515" y="0" on="1"/>
        <pt x="421" y="0" on="1"/>
        <pt x="421" y="327" on="1"/>
        <pt x="421" y="392" on="0"/>
        <pt x="361" y="446" on="0"/>
        <pt x="313" y="446" on="1"/>
        <pt x="259" y="446" on="0"/>
        <pt x="177" y="364" on="0"/>
        <pt x="177" y="304" on="1"/>
        <pt x="177" y="0" on="1"/>
        <pt x="83" y="0" on="1"/>
        <pt x="83" y="720" on="1"/>
        <pt x="177" y="720" on="1"/>
      </contour>
    </TTGlyph>
    <TTGlyph name="hungarumlaut" xMin="51" yMin="575" xMax="391" yMax="720">
      <contour>
        <pt x="51" y="575" on="1"/>
        <pt x="146" y="720" on="1"/>
        <pt x="235" y="720" on="1"/>
        <pt x="236" y="717" on="1"/>
        <pt x="121" y="575" on="1"/>
      </contour>
      <contour>
        <pt x="206" y="575" on="1"/>
        <pt x="300" y="720" on="1"/>
        <pt x="390" y="720" on="1"/>
        <pt x="391" y="717" on="1"/>
        <pt x="276" y="575" on="1"/>
      </contour>
    </TTGlyph>
    <TTGlyph name="hyphen" xMin="69" yMin="221" xMax="322" yMax="319">
      <contour>
        <pt x="69" y="319" on="1"/>
        <pt x="322" y="319" on="1"/>
        <pt x="322" y="221" on="1"/>
        <pt x="69" y="221" on="1"/>
      </contour>
    </TTGlyph>
    <TTGlyph name="i" xMin="81" yMin="0" xMax="179" yMax="720">
      <contour>
        <pt x="83" y="0" on="1"/>
        <pt x="83" y="511" on="1"/>
        <pt x="177" y="511" on="1"/>
        <pt x="177" y="0" on="1"/>
      </contour>
      <contour>
        <pt x="81" y="720" on="1"/>
        <pt x="179" y="720" on="1"/>
        <pt x="179" y="633" on="1"/>
        <pt x="81" y="633" on="1"/>
      </contour>
    </TTGlyph>
    <TTGlyph name="iacute" xMin="83" yMin="0" xMax="270" yMax="720">
      <contour>
        <pt x="83" y="0" on="1"/>
        <pt x="83" y="511" on="1"/>
        <pt x="177" y="511" on="1"/>
        <pt x="177" y="0" on="1"/>
      </contour>
      <contour>
        <pt x="85" y="575" on="1"/>
        <pt x="179" y="720" on="1"/>
        <pt x="269" y="720" on="1"/>
        <pt x="270" y="717" on="1"/>
        <pt x="154" y="575" on="1"/>
      </contour>
    </TTGlyph>
    <TTGlyph name="icircumflex" xMin="-44" yMin="0" xMax="305" yMax="720">
      <contour>
        <pt x="83" y="0" on="1"/>
        <pt x="83" y="511" on="1"/>
        <pt x="177" y="511" on="1"/>
        <pt x="177" y="0" on="1"/>
      </contour>
      <contour>
        <pt x="92" y="720" on="1"/>
        <pt x="170" y="720" on="1"/>
        <pt x="305" y="575" on="1"/>
        <pt x="225" y="575" on="1"/>
        <pt x="131" y="664" on="1"/>
        <pt x="36" y="575" on="1"/>
        <pt x="-44" y="575" on="1"/>
      </contour>
    </TTGlyph>
    <TTGlyph name="idieresis" xMin="-9" yMin="0" xMax="270" yMax="720">
      <contour>
        <pt x="83" y="0" on="1"/>
        <pt x="83" y="511" on="1"/>
        <pt x="177" y="511" on="1"/>
        <pt x="177" y="0" on="1"/>
      </contour>
      <contour>
        <pt x="-9" y="720" on="1"/>
        <pt x="81" y="720" on="1"/>
        <pt x="81" y="622" on="1"/>
        <pt x="-9" y="622" on="1"/>
      </contour>
      <contour>
        <pt x="179" y="720" on="1"/>
        <pt x="270" y="720" on="1"/>
        <pt x="270" y="622" on="1"/>
        <pt x="179" y="622" on="1"/>
      </contour>
    </TTGlyph>
    <TTGlyph name="igrave" xMin="-9" yMin="0" xMax="177" yMax="720">
      <contour>
        <pt x="83" y="0" on="1"/>
        <pt x="83" y="511" on="1"/>
        <pt x="177" y="511" on="1"/>
        <pt x="177" y="0" on="1"/>
      </contour>
      <contour>
        <pt x="106" y="575" on="1"/>
        <pt x="-9" y="717" on="1"/>
        <pt x="-8" y="720" on="1"/>
        <pt x="81" y="720" on="1"/>
        <pt x="176" y="575" on="1"/>
      </contour>
    </TTGlyph>
    <TTGlyph name="infinity" xMin="37" yMin="113" xMax="726" yMax="448">
      <contour>
        <pt x="726" y="282" on="1"/>
        <pt x="726" y="244" on="0"/>
        <pt x="699" y="181" on="0"/>
        <pt x="676" y="159" on="1"/>
        <pt x="629" y="113" on="0"/>
        <pt x="566" y="113" on="1"/>
        <pt x="521" y="113" on="0"/>
        <pt x="434" y="164" on="0"/>
        <pt x="381" y="229" on="1"/>
        <pt x="330" y="170" on="0"/>
        <pt x="302" y="151" on="1"/>
        <pt x="248" y="113" on="0"/>
        <pt x="192" y="113" on="1"/>
        <pt x="129" y="113" on="0"/>
        <pt x="84" y="160" on="1"/>
        <pt x="37" y="208" on="0"/>
        <pt x="37" y="279" on="1"/>
        <pt x="37" y="352" on="0"/>
        <pt x="84" y="400" on="1"/>
        <pt x="129" y="448" on="0"/>
        <pt x="194" y="448" on="1"/>
        <pt x="258" y="448" on="0"/>
        <pt x="347" y="382" on="0"/>
        <pt x="386" y="333" on="1"/>
        <pt x="406" y="353" on="0"/>
        <pt x="444" y="394" on="0"/>
        <pt x="466" y="410" on="1"/>
        <pt x="514" y="448" on="0"/>
        <pt x="571" y="448" on="1"/>
        <pt x="639" y="448" on="0"/>
        <pt x="682" y="401" on="1"/>
        <pt x="726" y="354" on="0"/>
      </contour>
      <contour>
        <pt x="349" y="276" on="1"/>
        <pt x="276" y="386" on="0"/>
        <pt x="195" y="386" on="1"/>
        <pt x="151" y="386" on="0"/>
        <pt x="99" y="324" on="0"/>
        <pt x="99" y="278" on="1"/>
        <pt x="99" y="236" on="0"/>
        <pt x="155" y="176" on="0"/>
        <pt x="200" y="176" on="1"/>
        <pt x="253" y="176" on="0"/>
        <pt x="310" y="235" on="1"/>
        <pt x="326" y="251" on="0"/>
        <pt x="340" y="266" on="1"/>
      </contour>
      <contour>
        <pt x="566" y="386" on="1"/>
        <pt x="511" y="386" on="0"/>
        <pt x="446" y="312" on="1"/>
        <pt x="430" y="295" on="0"/>
        <pt x="417" y="282" on="1"/>
        <pt x="466" y="223" on="0"/>
        <pt x="491" y="205" on="1"/>
        <pt x="533" y="176" on="0"/>
        <pt x="562" y="176" on="1"/>
        <pt x="591" y="176" on="0"/>
        <pt x="626" y="195" on="0"/>
        <pt x="638" y="210" on="1"/>
        <pt x="663" y="240" on="0"/>
        <pt x="663" y="284" on="1"/>
        <pt x="663" y="328" on="0"/>
        <pt x="608" y="386" on="0"/>
      </contour>
    </TTGlyph>
    <TTGlyph name="integral" xMin="26" yMin="-250" xMax="242" yMax="750">
      <contour>
        <pt x="111" y="-142" on="1"/>
        <pt x="84" y="455" on="0"/>
        <pt x="84" y="638" on="1"/>
        <pt x="84" y="701" on="0"/>
        <pt x="138" y="729" on="1"/>
        <pt x="180" y="750" on="0"/>
        <pt x="242" y="750" on="1"/>
        <pt x="242" y="701" on="1"/>
        <pt x="215" y="701" on="0"/>
        <pt x="194" y="692" on="1"/>
        <pt x="155" y="673" on="0"/>
        <pt x="155" y="644" on="1"/>
        <pt x="183" y="18" on="0"/>
        <pt x="183" y="-138" on="1"/>
        <pt x="183" y="-202" on="0"/>
        <pt x="129" y="-230" on="1"/>
        <pt x="91" y="-250" on="0"/>
        <pt x="26" y="-250" on="1"/>
        <pt x="26" y="-200" on="1"/>
        <pt x="76" y="-200" on="0"/>
        <pt x="102" y="-170" on="1"/>
        <pt x="111" y="-159" on="0"/>
      </contour>
    </TTGlyph>
    <TTGlyph name="j" xMin="-34" yMin="-186" xMax="179" yMax="720">
      <contour>
        <pt x="-34" y="-97" on="1"/>
        <pt x="-1" y="-112" on="0"/>
        <pt x="18" y="-112" on="1"/>
        <pt x="37" y="-112" on="0"/>
        <pt x="58" y="-107" on="0"/>
        <pt x="66" y="-100" on="1"/>
        <pt x="83" y="-84" on="0"/>
        <pt x="83" y="-44" on="1"/>
        <pt x="83" y="511" on="1"/>
        <pt x="177" y="511" on="1"/>
        <pt x="177" y="-15" on="1"/>
        <pt x="177" y="-104" on="0"/>
        <pt x="122" y="-186" on="0"/>
        <pt x="52" y="-186" on="1"/>
        <pt x="0" y="-186" on="0"/>
        <pt x="-34" y="-167" on="1"/>
      </contour>
      <contour>
        <pt x="81" y="720" on="1"/>
        <pt x="179" y="720" on="1"/>
        <pt x="179" y="633" on="1"/>
        <pt x="81" y="633" on="1"/>
      </contour>
    </TTGlyph>
    <TTGlyph name="k" xMin="83" yMin="0" xMax="521" yMax="720">
      <contour>
        <pt x="407" y="0" on="1"/>
        <pt x="254" y="190" on="1"/>
        <pt x="177" y="110" on="1"/>
        <pt x="177" y="0" on="1"/>
        <pt x="83" y="0" on="1"/>
        <pt x="83" y="720" on="1"/>
        <pt x="177" y="720" on="1"/>
        <pt x="177" y="226" on="1"/>
        <pt x="405" y="511" on="1"/>
        <pt x="508" y="511" on="1"/>
        <pt x="311" y="263" on="1"/>
        <pt x="521" y="0" on="1"/>
      </contour>
    </TTGlyph>
    <TTGlyph name="l" xMin="87" yMin="0" xMax="181" yMax="720">
      <contour>
        <pt x="87" y="0" on="1"/>
        <pt x="87" y="720" on="1"/>
        <pt x="181" y="720" on="1"/>
        <pt x="181" y="0" on="1"/>
      </contour>
    </TTGlyph>
    <TTGlyph name="less" xMin="44" yMin="4" xMax="553" yMax="504">
      <contour>
        <pt x="44" y="307" on="1"/>
        <pt x="553" y="504" on="1"/>
        <pt x="553" y="414" on="1"/>
        <pt x="124" y="254" on="1"/>
        <pt x="553" y="94" on="1"/>
        <pt x="553" y="4" on="1"/>
        <pt x="44" y="200" on="1"/>
      </contour>
    </TTGlyph>
    <TTGlyph name="lessequal" xMin="49" yMin="0" xMax="559" yMax="520">
      <contour>
        <pt x="559" y="104" on="1"/>
        <pt x="189" y="217" on="0"/>
        <pt x="50" y="258" on="1"/>
        <pt x="50" y="365" on="1"/>
        <pt x="178" y="404" on="0"/>
        <pt x="431" y="482" on="0"/>
        <pt x="559" y="520" on="1"/>
        <pt x="559" y="430" on="1"/>
        <pt x="256" y="346" on="0"/>
        <pt x="130" y="312" on="1"/>
        <pt x="433" y="228" on="0"/>
        <pt x="559" y="194" on="1"/>
      </contour>
      <contour>
        <pt x="49" y="83" on="1"/>
        <pt x="559" y="83" on="1"/>
        <pt x="559" y="0" on="1"/>
        <pt x="49" y="0" on="1"/>
      </contour>
    </TTGlyph>
    <TTGlyph name="logicalnot" xMin="37" yMin="174" xMax="556" yMax="453">
      <contour>
        <pt x="556" y="174" on="1"/>
        <pt x="472" y="174" on="1"/>
        <pt x="472" y="360" on="1"/>
        <pt x="37" y="360" on="1"/>
        <pt x="37" y="453" on="1"/>
        <pt x="556" y="453" on="1"/>
      </contour>
    </TTGlyph>
    <TTGlyph name="lozenge" xMin="29" yMin="0" xMax="461" yMax="686">
      <contour>
        <pt x="194" y="0" on="1"/>
        <pt x="29" y="343" on="1"/>
        <pt x="194" y="686" on="1"/>
        <pt x="297" y="686" on="1"/>
        <pt x="461" y="343" on="1"/>
        <pt x="297" y="0" on="1"/>
      </contour>
      <contour>
        <pt x="246" y="611" on="1"/>
        <pt x="112" y="343" on="1"/>
        <pt x="246" y="74" on="1"/>
        <pt x="312" y="209" on="0"/>
        <pt x="379" y="343" on="1"/>
        <pt x="312" y="476" on="0"/>
      </contour>
    </TTGlyph>
    <TTGlyph name="lslash" xMin="20" yMin="0" xMax="278" yMax="720">
      <contour>
        <pt x="20" y="351" on="1"/>
        <pt x="102" y="392" on="1"/>
        <pt x="102" y="720" on="1"/>
        <pt x="196" y="720" on="1"/>
        <pt x="196" y="440" on="1"/>
        <pt x="278" y="481" on="1"/>
        <pt x="278" y="411" on="1"/>
        <pt x="196" y="370" on="1"/>
        <pt x="196" y="0" on="1"/>
        <pt x="102" y="0" on="1"/>
        <pt x="102" y="322" on="1"/>
        <pt x="20" y="281" on="1"/>
      </contour>
    </TTGlyph>
    <TTGlyph name="m" xMin="83" yMin="0" xMax="789" yMax="521">
      <contour>
        <pt x="389" y="327" on="1"/>
        <pt x="389" y="446" on="0"/>
        <pt x="297" y="446" on="1"/>
        <pt x="248" y="446" on="0"/>
        <pt x="177" y="364" on="0"/>
        <pt x="177" y="304" on="1"/>
        <pt x="177" y="0" on="1"/>
        <pt x="83" y="0" on="1"/>
        <pt x="83" y="511" on="1"/>
        <pt x="151" y="511" on="1"/>
        <pt x="164" y="436" on="1"/>
        <pt x="223" y="521" on="0"/>
        <pt x="325" y="521" on="1"/>
        <pt x="426" y="521" on="0"/>
        <pt x="465" y="436" on="1"/>
        <pt x="502" y="488" on="0"/>
        <pt x="583" y="521" on="0"/>
        <pt x="622" y="521" on="1"/>
        <pt x="660" y="521" on="0"/>
        <pt x="720" y="500" on="0"/>
        <pt x="742" y="478" on="1"/>
        <pt x="789" y="433" on="0"/>
        <pt x="789" y="344" on="1"/>
        <pt x="789" y="0" on="1"/>
        <pt x="695" y="0" on="1"/>
        <pt x="695" y="327" on="1"/>
        <pt x="695" y="446" on="0"/>
        <pt x="603" y="446" on="1"/>
        <pt x="554" y="446" on="0"/>
        <pt x="483" y="364" on="0"/>
        <pt x="483" y="304" on="1"/>
        <pt x="483" y="0" on="1"/>
        <pt x="389" y="0" on="1"/>
      </contour>
    </TTGlyph>
    <TTGlyph name="macron" xMin="71" yMin="662" xMax="389" yMax="736">
      <contour>
        <pt x="71" y="662" on="1"/>
        <pt x="71" y="736" on="1"/>
        <pt x="389" y="736" on="1"/>
        <pt x="389" y="662" on="1"/>
      </contour>
    </TTGlyph>
    <TTGlyph name="minus" xMin="51" yMin="221" xMax="563" yMax="312">
      <contour>
        <pt x="51" y="312" on="1"/>
        <pt x="563" y="312" on="1"/>
        <pt x="563" y="221" on="1"/>
        <pt x="51" y="221" on="1"/>
      </contour>
    </TTGlyph>
    <TTGlyph name="mu" xMin="82" yMin="-161" xMax="587" yMax="511">
      <contour>
        <pt x="587" y="10" on="1"/>
        <pt x="557" y="-10" on="0"/>
        <pt x="524" y="-10" on="1"/>
        <pt x="490" y="-10" on="0"/>
        <pt x="457" y="4" on="0"/>
        <pt x="446" y="16" on="1"/>
        <pt x="427" y="37" on="0"/>
        <pt x="425" y="74" on="1"/>
        <pt x="386" y="17" on="0"/>
        <pt x="314" y="-3" on="1"/>
        <pt x="290" y="-10" on="0"/>
        <pt x="264" y="-10" on="1"/>
        <pt x="211" y="-10" on="0"/>
        <pt x="170" y="15" on="1"/>
        <pt x="176" y="-32" on="1"/>
        <pt x="176" y="-161" on="1"/>
        <pt x="82" y="-161" on="1"/>
        <pt x="82" y="511" on="1"/>
        <pt x="176" y="511" on="1"/>
        <pt x="176" y="184" on="1"/>
        <pt x="176" y="119" on="0"/>
        <pt x="236" y="65" on="0"/>
        <pt x="284" y="65" on="1"/>
        <pt x="338" y="65" on="0"/>
        <pt x="420" y="147" on="0"/>
        <pt x="420" y="207" on="1"/>
        <pt x="420" y="511" on="1"/>
        <pt x="514" y="511" on="1"/>
        <pt x="514" y="100" on="1"/>
        <pt x="514" y="81" on="0"/>
        <pt x="531" y="65" on="0"/>
        <pt x="542" y="65" on="1"/>
        <pt x="565" y="65" on="0"/>
        <pt x="587" y="79" on="1"/>
      </contour>
    </TTGlyph>
    <TTGlyph name="multiply" xMin="99" yMin="45" xMax="516" yMax="466">
      <contour>
        <pt x="99" y="407" on="1"/>
        <pt x="154" y="466" on="1"/>
        <pt x="308" y="314" on="1"/>
        <pt x="461" y="466" on="1"/>
        <pt x="516" y="407" on="1"/>
        <pt x="363" y="255" on="1"/>
        <pt x="516" y="104" on="1"/>
        <pt x="461" y="45" on="1"/>
        <pt x="308" y="195" on="1"/>
        <pt x="154" y="45" on="1"/>
        <pt x="99" y="104" on="1"/>
        <pt x="252" y="255" on="1"/>
      </contour>
    </TTGlyph>
    <TTGlyph name="n" xMin="83" yMin="0" xMax="515" yMax="521">
      <contour>
        <pt x="164" y="436" on="1"/>
        <pt x="229" y="521" on="0"/>
        <pt x="335" y="521" on="1"/>
        <pt x="460" y="521" on="0"/>
        <pt x="501" y="424" on="1"/>
        <pt x="515" y="390" on="0"/>
        <pt x="515" y="344" on="1"/>
        <pt x="515" y="0" on="1"/>
        <pt x="421" y="0" on="1"/>
        <pt x="421" y="327" on="1"/>
        <pt x="421" y="392" on="0"/>
        <pt x="361" y="446" on="0"/>
        <pt x="313" y="446" on="1"/>
        <pt x="259" y="446" on="0"/>
        <pt x="177" y="364" on="0"/>
        <pt x="177" y="304" on="1"/>
        <pt x="177" y="0" on="1"/>
        <pt x="83" y="0" on="1"/>
        <pt x="83" y="511" on="1"/>
        <pt x="151" y="511" on="1"/>
      </contour>
    </TTGlyph>
    <TTGlyph name="nine" xMin="63" yMin="-10" xMax="536" yMax="696">
      <contour>
        <pt x="438" y="320" on="1"/>
        <pt x="376" y="254" on="0"/>
        <pt x="283" y="254" on="1"/>
        <pt x="192" y="254" on="0"/>
        <pt x="128" y="314" on="1"/>
        <pt x="63" y="375" on="0"/>
        <pt x="63" y="465" on="1"/>
        <pt x="63" y="572" on="0"/>
        <pt x="132" y="636" on="1"/>
        <pt x="198" y="696" on="0"/>
        <pt x="299" y="696" on="1"/>
        <pt x="400" y="696" on="0"/>
        <pt x="466" y="634" on="1"/>
        <pt x="536" y="568" on="0"/>
        <pt x="536" y="463" on="1"/>
        <pt x="536" y="221" on="1"/>
        <pt x="536" y="125" on="0"/>
        <pt x="401" y="-10" on="0"/>
        <pt x="305" y="-10" on="1"/>
        <pt x="203" y="-10" on="0"/>
        <pt x="140" y="50" on="1"/>
        <pt x="74" y="112" on="0"/>
        <pt x="74" y="213" on="1"/>
        <pt x="172" y="213" on="1"/>
        <pt x="172" y="150" on="0"/>
        <pt x="245" y="79" on="0"/>
        <pt x="305" y="79" on="1"/>
        <pt x="360" y="79" on="0"/>
        <pt x="438" y="157" on="0"/>
        <pt x="438" y="212" on="1"/>
      </contour>
      <contour>
        <pt x="161" y="475" on="1"/>
        <pt x="161" y="415" on="0"/>
        <pt x="201" y="379" on="1"/>
        <pt x="241" y="343" on="0"/>
        <pt x="299" y="343" on="1"/>
        <pt x="358" y="343" on="0"/>
        <pt x="398" y="379" on="1"/>
        <pt x="438" y="416" on="0"/>
        <pt x="438" y="475" on="1"/>
        <pt x="438" y="534" on="0"/>
        <pt x="398" y="571" on="1"/>
        <pt x="358" y="607" on="0"/>
        <pt x="299" y="607" on="1"/>
        <pt x="241" y="607" on="0"/>
        <pt x="201" y="571" on="1"/>
        <pt x="161" y="535" on="0"/>
      </contour>
    </TTGlyph>
    <TTGlyph name="notequal" xMin="56" yMin="0" xMax="559" yMax="511">
      <contour>
        <pt x="365" y="401" on="1"/>
        <pt x="443" y="511" on="1"/>
        <pt x="522" y="511" on="1"/>
        <pt x="446" y="401" on="1"/>
        <pt x="559" y="401" on="1"/>
        <pt x="559" y="318" on="1"/>
        <pt x="393" y="318" on="1"/>
        <pt x="370" y="286" on="0"/>
        <pt x="325" y="221" on="0"/>
        <pt x="302" y="189" on="1"/>
        <pt x="559" y="189" on="1"/>
        <pt x="559" y="105" on="1"/>
        <pt x="250" y="105" on="1"/>
        <pt x="176" y="0" on="1"/>
        <pt x="94" y="0" on="1"/>
        <pt x="143" y="71" on="0"/>
        <pt x="168" y="105" on="1"/>
        <pt x="56" y="105" on="1"/>
        <pt x="56" y="189" on="1"/>
        <pt x="221" y="189" on="1"/>
        <pt x="312" y="318" on="1"/>
        <pt x="56" y="318" on="1"/>
        <pt x="56" y="401" on="1"/>
      </contour>
    </TTGlyph>
    <TTGlyph name="ntilde" xMin="83" yMin="0" xMax="515" yMax="720">
      <contour>
        <pt x="164" y="436" on="1"/>
        <pt x="229" y="521" on="0"/>
        <pt x="335" y="521" on="1"/>
        <pt x="460" y="521" on="0"/>
        <pt x="501" y="424" on="1"/>
        <pt x="515" y="390" on="0"/>
        <pt x="515" y="344" on="1"/>
        <pt x="515" y="0" on="1"/>
        <pt x="421" y="0" on="1"/>
        <pt x="421" y="327" on="1"/>
        <pt x="421" y="392" on="0"/>
        <pt x="361" y="446" on="0"/>
        <pt x="313" y="446" on="1"/>
        <pt x="259" y="446" on="0"/>
        <pt x="177" y="364" on="0"/>
        <pt x="177" y="304" on="1"/>
        <pt x="177" y="0" on="1"/>
        <pt x="83" y="0" on="1"/>
        <pt x="83" y="511" on="1"/>
        <pt x="151" y="511" on="1"/>
      </contour>
      <contour>
        <pt x="497" y="720" on="1"/>
        <pt x="497" y="679" on="0"/>
        <pt x="470" y="650" on="1"/>
        <pt x="440" y="616" on="0"/>
        <pt x="385" y="616" on="1"/>
        <pt x="355" y="616" on="0"/>
        <pt x="276" y="639" on="0"/>
        <pt x="236" y="650" on="0"/>
        <pt x="216" y="650" on="1"/>
        <pt x="171" y="650" on="0"/>
        <pt x="161" y="616" on="1"/>
        <pt x="111" y="616" on="1"/>
        <pt x="111" y="681" on="0"/>
        <pt x="174" y="710" on="1"/>
        <pt x="195" y="720" on="0"/>
        <pt x="222" y="720" on="1"/>
        <pt x="248" y="720" on="0"/>
        <pt x="291" y="709" on="0"/>
        <pt x="312" y="702" on="1"/>
        <pt x="367" y="685" on="0"/>
        <pt x="392" y="685" on="1"/>
        <pt x="436" y="685" on="0"/>
        <pt x="447" y="720" on="1"/>
      </contour>
    </TTGlyph>
    <TTGlyph name="numbersign" xMin="28" yMin="0" xMax="613" yMax="696">
      <contour>
        <pt x="68" y="486" on="1"/>
        <pt x="206" y="486" on="1"/>
        <pt x="253" y="696" on="1"/>
        <pt x="329" y="696" on="1"/>
        <pt x="282" y="486" on="1"/>
        <pt x="432" y="486" on="1"/>
        <pt x="479" y="696" on="1"/>
        <pt x="555" y="696" on="1"/>
        <pt x="508" y="486" on="1"/>
        <pt x="613" y="486" on="1"/>
        <pt x="613" y="410" on="1"/>
        <pt x="491" y="410" on="1"/>
        <pt x="457" y="255" on="1"/>
        <pt x="573" y="255" on="1"/>
        <pt x="573" y="179" on="1"/>
        <pt x="440" y="179" on="1"/>
        <pt x="400" y="0" on="1"/>
        <pt x="324" y="0" on="1"/>
        <pt x="364" y="179" on="1"/>
        <pt x="214" y="179" on="1"/>
        <pt x="174" y="0" on="1"/>
        <pt x="98" y="0" on="1"/>
        <pt x="138" y="179" on="1"/>
        <pt x="28" y="179" on="1"/>
        <pt x="28" y="255" on="1"/>
        <pt x="155" y="255" on="1"/>
        <pt x="189" y="410" on="1"/>
        <pt x="68" y="410" on="1"/>
      </contour>
      <contour>
        <pt x="231" y="255" on="1"/>
        <pt x="381" y="255" on="1"/>
        <pt x="415" y="410" on="1"/>
        <pt x="265" y="410" on="1"/>
      </contour>
    </TTGlyph>
    <TTGlyph name="o" xMin="52" yMin="-10" xMax="522" yMax="521">
      <contour>
        <pt x="428" y="265" on="1"/>
        <pt x="428" y="357" on="0"/>
        <pt x="387" y="404" on="1"/>
        <pt x="351" y="446" on="0"/>
        <pt x="287" y="446" on="1"/>
        <pt x="188" y="446" on="0"/>
        <pt x="157" y="348" on="1"/>
        <pt x="146" y="313" on="0"/>
        <pt x="146" y="265" on="1"/>
        <pt x="146" y="246" on="1"/>
        <pt x="146" y="154" on="0"/>
        <pt x="187" y="107" on="1"/>
        <pt x="223" y="65" on="0"/>
        <pt x="287" y="65" on="1"/>
        <pt x="386" y="65" on="0"/>
        <pt x="417" y="164" on="1"/>
        <pt x="428" y="198" on="0"/>
        <pt x="428" y="246" on="1"/>
      </contour>
      <contour>
        <pt x="522" y="237" on="1"/>
        <pt x="522" y="116" on="0"/>
        <pt x="453" y="50" on="1"/>
        <pt x="390" y="-10" on="0"/>
        <pt x="287" y="-10" on="1"/>
        <pt x="184" y="-10" on="0"/>
        <pt x="121" y="50" on="1"/>
        <pt x="52" y="116" on="0"/>
        <pt x="52" y="237" on="1"/>
        <pt x="52" y="274" on="1"/>
        <pt x="52" y="395" on="0"/>
        <pt x="121" y="460" on="1"/>
        <pt x="184" y="521" on="0"/>
        <pt x="287" y="521" on="1"/>
        <pt x="390" y="521" on="0"/>
        <pt x="453" y="460" on="1"/>
        <pt x="522" y="395" on="0"/>
        <pt x="522" y="274" on="1"/>
      </contour>
    </TTGlyph>
    <TTGlyph name="oacute" xMin="52" yMin="-10" xMax="522" yMax="720">
      <contour>
        <pt x="428" y="265" on="1"/>
        <pt x="428" y="357" on="0"/>
        <pt x="387" y="404" on="1"/>
        <pt x="351" y="446" on="0"/>
        <pt x="287" y="446" on="1"/>
        <pt x="188" y="446" on="0"/>
        <pt x="157" y="348" on="1"/>
        <pt x="146" y="313" on="0"/>
        <pt x="146" y="265" on="1"/>
        <pt x="146" y="246" on="1"/>
        <pt x="146" y="154" on="0"/>
        <pt x="187" y="107" on="1"/>
        <pt x="223" y="65" on="0"/>
        <pt x="287" y="65" on="1"/>
        <pt x="386" y="65" on="0"/>
        <pt x="417" y="164" on="1"/>
        <pt x="428" y="198" on="0"/>
        <pt x="428" y="246" on="1"/>
      </contour>
      <contour>
        <pt x="522" y="237" on="1"/>
        <pt x="522" y="116" on="0"/>
        <pt x="453" y="50" on="1"/>
        <pt x="390" y="-10" on="0"/>
        <pt x="287" y="-10" on="1"/>
        <pt x="184" y="-10" on="0"/>
        <pt x="121" y="50" on="1"/>
        <pt x="52" y="116" on="0"/>
        <pt x="52" y="237" on="1"/>
        <pt x="52" y="274" on="1"/>
        <pt x="52" y="395" on="0"/>
        <pt x="121" y="460" on="1"/>
        <pt x="184" y="521" on="0"/>
        <pt x="287" y="521" on="1"/>
        <pt x="390" y="521" on="0"/>
        <pt x="453" y="460" on="1"/>
        <pt x="522" y="395" on="0"/>
        <pt x="522" y="274" on="1"/>
      </contour>
      <contour>
        <pt x="255" y="575" on="1"/>
        <pt x="349" y="720" on="1"/>
        <pt x="439" y="720" on="1"/>
        <pt x="440" y="717" on="1"/>
        <pt x="324" y="575" on="1"/>
      </contour>
    </TTGlyph>
    <TTGlyph name="ocircumflex" xMin="52" yMin="-10" xMax="522" yMax="720">
      <contour>
        <pt x="428" y="265" on="1"/>
        <pt x="428" y="357" on="0"/>
        <pt x="387" y="404" on="1"/>
        <pt x="351" y="446" on="0"/>
        <pt x="287" y="446" on="1"/>
        <pt x="188" y="446" on="0"/>
        <pt x="157" y="348" on="1"/>
        <pt x="146" y="313" on="0"/>
        <pt x="146" y="265" on="1"/>
        <pt x="146" y="246" on="1"/>
        <pt x="146" y="154" on="0"/>
        <pt x="187" y="107" on="1"/>
        <pt x="223" y="65" on="0"/>
        <pt x="287" y="65" on="1"/>
        <pt x="386" y="65" on="0"/>
        <pt x="417" y="164" on="1"/>
        <pt x="428" y="198" on="0"/>
        <pt x="428" y="246" on="1"/>
      </contour>
      <contour>
        <pt x="522" y="237" on="1"/>
        <pt x="522" y="116" on="0"/>
        <pt x="453" y="50" on="1"/>
        <pt x="390" y="-10" on="0"/>
        <pt x="287" y="-10" on="1"/>
        <pt x="184" y="-10" on="0"/>
        <pt x="121" y="50" on="1"/>
        <pt x="52" y="116" on="0"/>
        <pt x="52" y="237" on="1"/>
        <pt x="52" y="274" on="1"/>
        <pt x="52" y="395" on="0"/>
        <pt x="121" y="460" on="1"/>
        <pt x="184" y="521" on="0"/>
        <pt x="287" y="521" on="1"/>
        <pt x="390" y="521" on="0"/>
        <pt x="453" y="460" on="1"/>
        <pt x="522" y="395" on="0"/>
        <pt x="522" y="274" on="1"/>
      </contour>
      <contour>
        <pt x="247" y="720" on="1"/>
        <pt x="325" y="720" on="1"/>
        <pt x="460" y="575" on="1"/>
        <pt x="380" y="575" on="1"/>
        <pt x="286" y="664" on="1"/>
        <pt x="191" y="575" on="1"/>
        <pt x="111" y="575" on="1"/>
      </contour>
    </TTGlyph>
    <TTGlyph name="odieresis" xMin="52" yMin="-10" xMax="522" yMax="720">
      <contour>
        <pt x="428" y="265" on="1"/>
        <pt x="428" y="357" on="0"/>
        <pt x="387" y="404" on="1"/>
        <pt x="351" y="446" on="0"/>
        <pt x="287" y="446" on="1"/>
        <pt x="188" y="446" on="0"/>
        <pt x="157" y="348" on="1"/>
        <pt x="146" y="313" on="0"/>
        <pt x="146" y="265" on="1"/>
        <pt x="146" y="246" on="1"/>
        <pt x="146" y="154" on="0"/>
        <pt x="187" y="107" on="1"/>
        <pt x="223" y="65" on="0"/>
        <pt x="287" y="65" on="1"/>
        <pt x="386" y="65" on="0"/>
        <pt x="417" y="164" on="1"/>
        <pt x="428" y="198" on="0"/>
        <pt x="428" y="246" on="1"/>
      </contour>
      <contour>
        <pt x="522" y="237" on="1"/>
        <pt x="522" y="116" on="0"/>
        <pt x="453" y="50" on="1"/>
        <pt x="390" y="-10" on="0"/>
        <pt x="287" y="-10" on="1"/>
        <pt x="184" y="-10" on="0"/>
        <pt x="121" y="50" on="1"/>
        <pt x="52" y="116" on="0"/>
        <pt x="52" y="237" on="1"/>
        <pt x="52" y="274" on="1"/>
        <pt x="52" y="395" on="0"/>
        <pt x="121" y="460" on="1"/>
        <pt x="184" y="521" on="0"/>
        <pt x="287" y="521" on="1"/>
        <pt x="390" y="521" on="0"/>
        <pt x="453" y="460" on="1"/>
        <pt x="522" y="395" on="0"/>
        <pt x="522" y="274" on="1"/>
      </contour>
      <contour>
        <pt x="147" y="720" on="1"/>
        <pt x="237" y="720" on="1"/>
        <pt x="237" y="622" on="1"/>
        <pt x="147" y="622" on="1"/>
      </contour>
      <contour>
        <pt x="335" y="720" on="1"/>
        <pt x="426" y="720" on="1"/>
        <pt x="426" y="622" on="1"/>
        <pt x="335" y="622" on="1"/>
      </contour>
    </TTGlyph>
    <TTGlyph name="oe" xMin="52" yMin="-10" xMax="879" yMax="521">
      <contour>
        <pt x="476" y="434" on="1"/>
        <pt x="540" y="521" on="0"/>
        <pt x="658" y="521" on="1"/>
        <pt x="665" y="521" on="1"/>
        <pt x="760" y="521" on="0"/>
        <pt x="820" y="463" on="1"/>
        <pt x="879" y="405" on="0"/>
        <pt x="879" y="305" on="1"/>
        <pt x="879" y="234" on="1"/>
        <pt x="522" y="234" on="1"/>
        <pt x="525" y="116" on="0"/>
        <pt x="601" y="78" on="1"/>
        <pt x="627" y="65" on="0"/>
        <pt x="667" y="65" on="1"/>
        <pt x="706" y="65" on="0"/>
        <pt x="756" y="95" on="0"/>
        <pt x="769" y="115" on="1"/>
        <pt x="790" y="147" on="0"/>
        <pt x="790" y="190" on="1"/>
        <pt x="879" y="190" on="1"/>
        <pt x="879" y="99" on="0"/>
        <pt x="818" y="44" on="1"/>
        <pt x="759" y="-10" on="0"/>
        <pt x="665" y="-10" on="1"/>
        <pt x="661" y="-10" on="1"/>
        <pt x="541" y="-10" on="0"/>
        <pt x="476" y="77" on="1"/>
        <pt x="414" y="-10" on="0"/>
        <pt x="287" y="-10" on="1"/>
        <pt x="184" y="-10" on="0"/>
        <pt x="121" y="50" on="1"/>
        <pt x="52" y="116" on="0"/>
        <pt x="52" y="237" on="1"/>
        <pt x="52" y="274" on="1"/>
        <pt x="52" y="395" on="0"/>
        <pt x="121" y="460" on="1"/>
        <pt x="184" y="521" on="0"/>
        <pt x="287" y="521" on="1"/>
        <pt x="414" y="521" on="0"/>
      </contour>
      <contour>
        <pt x="428" y="265" on="1"/>
        <pt x="428" y="357" on="0"/>
        <pt x="387" y="404" on="1"/>
        <pt x="351" y="446" on="0"/>
        <pt x="287" y="446" on="1"/>
        <pt x="188" y="446" on="0"/>
        <pt x="157" y="348" on="1"/>
        <pt x="146" y="313" on="0"/>
        <pt x="146" y="265" on="1"/>
        <pt x="146" y="246" on="1"/>
        <pt x="146" y="154" on="0"/>
        <pt x="187" y="107" on="1"/>
        <pt x="223" y="65" on="0"/>
        <pt x="287" y="65" on="1"/>
        <pt x="386" y="65" on="0"/>
        <pt x="417" y="164" on="1"/>
        <pt x="428" y="198" on="0"/>
        <pt x="428" y="246" on="1"/>
      </contour>
      <contour>
        <pt x="660" y="446" on="1"/>
        <pt x="604" y="446" on="0"/>
        <pt x="532" y="377" on="0"/>
        <pt x="524" y="307" on="1"/>
        <pt x="786" y="307" on="1"/>
        <pt x="786" y="319" on="1"/>
        <pt x="786" y="379" on="0"/>
        <pt x="749" y="414" on="1"/>
        <pt x="715" y="446" on="0"/>
      </contour>
    </TTGlyph>
    <TTGlyph name="ogonek" xMin="69" yMin="-143" xMax="255" yMax="0">
      <contour>
        <pt x="242" y="-82" on="1"/>
        <pt x="255" y="-119" on="1"/>
        <pt x="214" y="-143" on="0"/>
        <pt x="166" y="-143" on="1"/>
        <pt x="101" y="-143" on="0"/>
        <pt x="78" y="-106" on="1"/>
        <pt x="69" y="-92" on="0"/>
        <pt x="69" y="-69" on="1"/>
        <pt x="69" y="-47" on="0"/>
        <pt x="105" y="-12" on="0"/>
        <pt x="123" y="0" on="1"/>
        <pt x="177" y="0" on="1"/>
        <pt x="162" y="-8" on="0"/>
        <pt x="131" y="-41" on="0"/>
        <pt x="131" y="-58" on="1"/>
        <pt x="131" y="-96" on="0"/>
        <pt x="175" y="-96" on="1"/>
        <pt x="197" y="-96" on="0"/>
      </contour>
    </TTGlyph>
    <TTGlyph name="ograve" xMin="52" yMin="-10" xMax="522" yMax="720">
      <contour>
        <pt x="428" y="265" on="1"/>
        <pt x="428" y="357" on="0"/>
        <pt x="387" y="404" on="1"/>
        <pt x="351" y="446" on="0"/>
        <pt x="287" y="446" on="1"/>
        <pt x="188" y="446" on="0"/>
        <pt x="157" y="348" on="1"/>
        <pt x="146" y="313" on="0"/>
        <pt x="146" y="265" on="1"/>
        <pt x="146" y="246" on="1"/>
        <pt x="146" y="154" on="0"/>
        <pt x="187" y="107" on="1"/>
        <pt x="223" y="65" on="0"/>
        <pt x="287" y="65" on="1"/>
        <pt x="386" y="65" on="0"/>
        <pt x="417" y="164" on="1"/>
        <pt x="428" y="198" on="0"/>
        <pt x="428" y="246" on="1"/>
      </contour>
      <contour>
        <pt x="522" y="237" on="1"/>
        <pt x="522" y="116" on="0"/>
        <pt x="453" y="50" on="1"/>
        <pt x="390" y="-10" on="0"/>
        <pt x="287" y="-10" on="1"/>
        <pt x="184" y="-10" on="0"/>
        <pt x="121" y="50" on="1"/>
        <pt x="52" y="116" on="0"/>
        <pt x="52" y="237" on="1"/>
        <pt x="52" y="274" on="1"/>
        <pt x="52" y="395" on="0"/>
        <pt x="121" y="460" on="1"/>
        <pt x="184" y="521" on="0"/>
        <pt x="287" y="521" on="1"/>
        <pt x="390" y="521" on="0"/>
        <pt x="453" y="460" on="1"/>
        <pt x="522" y="395" on="0"/>
        <pt x="522" y="274" on="1"/>
      </contour>
      <contour>
        <pt x="253" y="575" on="1"/>
        <pt x="138" y="717" on="1"/>
        <pt x="139" y="720" on="1"/>
        <pt x="228" y="720" on="1"/>
        <pt x="323" y="575" on="1"/>
      </contour>
    </TTGlyph>
</ttFont>
